<?xml version="1.0" encoding="UTF-8" standalone="no"?>
<svg
   xmlns:dc="http://purl.org/dc/elements/1.1/"
   xmlns:cc="http://creativecommons.org/ns#"
   xmlns:rdf="http://www.w3.org/1999/02/22-rdf-syntax-ns#"
   xmlns:svg="http://www.w3.org/2000/svg"
   xmlns="http://www.w3.org/2000/svg"
   xmlns:sodipodi="http://sodipodi.sourceforge.net/DTD/sodipodi-0.dtd"
   xmlns:inkscape="http://www.inkscape.org/namespaces/inkscape"
   version="1.1"
   id="Layer_1"
   x="0px"
   y="0px"
   width="1000"
   height="1024"
   viewBox="0 0 1000 1024"
   enable-background="new 0 0 512 512"
   xml:space="preserve"
   inkscape:version="0.48.0 r9654"
   sodipodi:docname="ab2-x12016.svg"><title
   id="title3743">Mesopotamian Font</title><metadata
   id="metadata72"><rdf:RDF><cc:Work
       rdf:about=""><dc:format>image/svg+xml</dc:format><dc:type
         rdf:resource="http://purl.org/dc/dcmitype/StillImage" /><dc:title>Sinai 357</dc:title><dc:date>2017</dc:date><dc:creator><cc:Agent><dc:title>Celeste Claire Horner</dc:title></cc:Agent></dc:creator><dc:publisher><cc:Agent><dc:title>beitdina.net</dc:title></cc:Agent></dc:publisher></cc:Work></rdf:RDF></metadata><defs
   id="defs70" /><sodipodi:namedview
   pagecolor="#ffffff"
   bordercolor="#666666"
   borderopacity="1"
   objecttolerance="10"
   gridtolerance="10"
   guidetolerance="10"
   inkscape:pageopacity="0"
   inkscape:pageshadow="2"
   inkscape:window-width="923"
   inkscape:window-height="679"
   id="namedview68"
   showgrid="false"
   inkscape:zoom="0.28132272"
   inkscape:cx="-160.30195"
   inkscape:cy="481.68189"
   inkscape:window-x="154"
   inkscape:window-y="88"
   inkscape:window-maximized="0"
   inkscape:current-layer="Layer_1" />
   
	<g
   id="Grid"
   transform="matrix(1.9070913,0,0,2.0358291,11.554725,2.4725107)">
		<rect
   x="0"
   stroke-miterlimit="10"
   width="512"
   height="512"
   id="rect4"
   y="0"
   style="fill:none;stroke:#a9ccdb;stroke-miterlimit:10" />
		<line
   stroke-miterlimit="10"
   x1="0"
   y1="32"
   x2="512"
   y2="32"
   id="line6"
   style="fill:none;stroke:#a9ccdb;stroke-miterlimit:10" />
		<line
   stroke-miterlimit="10"
   x1="0"
   y1="64"
   x2="512"
   y2="64"
   id="line8"
   style="fill:none;stroke:#a9ccdb;stroke-miterlimit:10" />
		<line
   stroke-miterlimit="10"
   x1="0"
   y1="96"
   x2="512"
   y2="96"
   id="line10"
   style="fill:none;stroke:#a9ccdb;stroke-miterlimit:10" />
		<line
   stroke-miterlimit="10"
   x1="0"
   y1="128"
   x2="512"
   y2="128"
   id="line12"
   style="fill:none;stroke:#a9ccdb;stroke-miterlimit:10" />
		<line
   stroke-miterlimit="10"
   x1="0"
   y1="160"
   x2="512"
   y2="160"
   id="line14"
   style="fill:none;stroke:#a9ccdb;stroke-miterlimit:10" />
		<line
   stroke-miterlimit="10"
   x1="0"
   y1="192"
   x2="512"
   y2="192"
   id="line16"
   style="fill:none;stroke:#a9ccdb;stroke-miterlimit:10" />
		<line
   stroke-miterlimit="10"
   x1="0"
   y1="224"
   x2="512"
   y2="224"
   id="line18"
   style="fill:none;stroke:#a9ccdb;stroke-miterlimit:10" />
		<line
   stroke-miterlimit="10"
   x1="0"
   y1="256"
   x2="512"
   y2="256"
   id="line20"
   style="fill:none;stroke:#a9ccdb;stroke-miterlimit:10" />
		<line
   stroke-miterlimit="10"
   x1="0"
   y1="288"
   x2="512"
   y2="288"
   id="line22"
   style="fill:none;stroke:#a9ccdb;stroke-miterlimit:10" />
		<line
   stroke-miterlimit="10"
   x1="0"
   y1="320"
   x2="512"
   y2="320"
   id="line24"
   style="fill:none;stroke:#a9ccdb;stroke-miterlimit:10" />
		<line
   stroke-miterlimit="10"
   x1="0"
   y1="352"
   x2="512"
   y2="352"
   id="line26"
   style="fill:none;stroke:#a9ccdb;stroke-miterlimit:10" />
		<line
   stroke-miterlimit="10"
   x1="0"
   y1="384"
   x2="512"
   y2="384"
   id="line28"
   style="fill:none;stroke:#a9ccdb;stroke-miterlimit:10" />
		<line
   stroke-miterlimit="10"
   x1="0"
   y1="416"
   x2="512"
   y2="416"
   id="line30"
   style="fill:none;stroke:#a9ccdb;stroke-miterlimit:10" />
		<line
   stroke-miterlimit="10"
   x1="0"
   y1="448"
   x2="512"
   y2="448"
   id="line32"
   style="fill:none;stroke:#ff0000;stroke-miterlimit:10" />
		<line
   stroke-miterlimit="10"
   x1="0"
   y1="480"
   x2="512"
   y2="480"
   id="line34"
   style="fill:none;stroke:#a9ccdb;stroke-miterlimit:10" />
		<line
   stroke-miterlimit="10"
   x1="32"
   y1="0"
   x2="32"
   y2="512"
   id="line36"
   style="fill:none;stroke:#a9ccdb;stroke-miterlimit:10" />
		<line
   stroke-miterlimit="10"
   x1="64"
   y1="0"
   x2="64"
   y2="512"
   id="line38"
   style="fill:none;stroke:#a9ccdb;stroke-miterlimit:10" />
		<line
   stroke-miterlimit="10"
   x1="96"
   y1="0"
   x2="96"
   y2="512"
   id="line40"
   style="fill:none;stroke:#a9ccdb;stroke-miterlimit:10" />
		<line
   stroke-miterlimit="10"
   x1="128"
   y1="0"
   x2="128"
   y2="512"
   id="line42"
   style="fill:none;stroke:#a9ccdb;stroke-miterlimit:10" />
		<line
   stroke-miterlimit="10"
   x1="160"
   y1="0"
   x2="160"
   y2="512"
   id="line44"
   style="fill:none;stroke:#a9ccdb;stroke-miterlimit:10" />
		<line
   stroke-miterlimit="10"
   x1="192"
   y1="0"
   x2="192"
   y2="512"
   id="line46"
   style="fill:none;stroke:#a9ccdb;stroke-miterlimit:10" />
		<line
   stroke-miterlimit="10"
   x1="224"
   y1="0"
   x2="224"
   y2="512"
   id="line48"
   style="fill:none;stroke:#a9ccdb;stroke-miterlimit:10" />
		<line
   stroke-miterlimit="10"
   x1="256"
   y1="0"
   x2="256"
   y2="512"
   id="line50"
   style="fill:none;stroke:#a9ccdb;stroke-miterlimit:10" />
		<line
   stroke-miterlimit="10"
   x1="288"
   y1="0"
   x2="288"
   y2="512"
   id="line52"
   style="fill:none;stroke:#a9ccdb;stroke-miterlimit:10" />
		<line
   stroke-miterlimit="10"
   x1="320"
   y1="0"
   x2="320"
   y2="512"
   id="line54"
   style="fill:none;stroke:#a9ccdb;stroke-miterlimit:10" />
		<line
   stroke-miterlimit="10"
   x1="352"
   y1="0"
   x2="352"
   y2="512"
   id="line56"
   style="fill:none;stroke:#a9ccdb;stroke-miterlimit:10" />
		<line
   stroke-miterlimit="10"
   x1="384"
   y1="0"
   x2="384"
   y2="512"
   id="line58"
   style="fill:none;stroke:#a9ccdb;stroke-miterlimit:10" />
		<line
   stroke-miterlimit="10"
   x1="416"
   y1="0"
   x2="416"
   y2="512"
   id="line60"
   style="fill:none;stroke:#a9ccdb;stroke-miterlimit:10" />
		<line
   stroke-miterlimit="10"
   x1="448"
   y1="0"
   x2="448"
   y2="512"
   id="line62"
   style="fill:none;stroke:#a9ccdb;stroke-miterlimit:10" />
		<line
   stroke-miterlimit="10"
   x1="480"
   y1="0"
   x2="480"
   y2="512"
   id="line64"
   style="fill:none;stroke:#a9ccdb;stroke-miterlimit:10" />
	</g>
<path
   style="fill:#5d5d5d"
   d="m 392.2748,808.90272 c -13.7708,-0.87081 -19.4288,-3.11392 -26.3719,-10.45523 -8.9655,-9.47969 -14.96988,-20.4282 -17.73088,-32.3306 -2.1345,-9.20166 -1.886,-29.30906 0.5267,-42.60709 2.2921,-12.63408 2.2845,-12.6629 -5.8399,-21.92481 -6.45,-7.35316 -7.9802,-10.34458 -9.2148,-18.01341 -0.546,-3.39134 -3.039,-10.89107 -5.5401,-16.66607 -8.2491,-19.04703 -62.1155,-126.30779 -68.2993,-136 -3.3336,-5.225 -8.7282,-13.60457 -11.9878,-18.62127 -8.4161,-12.95253 -19.042,-33.5343 -19.042,-36.88323 0,-1.56091 0.6977,-3.60901 1.5505,-4.55132 2.8294,-3.12647 -2.57,-3.9448 -18.2483,-2.7657 -11.6047,-0.61114 -21.0342,6.04698 -30.0751,6.90095 -8.3727,0.76314 -12.3463,2.3648 -14.0683,5.67057 -0.8998,17.28863 -20.9912,11.17789 -28.5318,18.0373 -7.5766,7.49877 -9.3695,26.29218 -14.0219,27.74311 -7.8734,3.80065 -9.6475,10.27385 -14.1524,19.94691 -0.7441,8.68578 -5.7859,16.13426 -12.557607,21.92005 -6.589099,5.62976 -15.052297,14.85083 -24.661597,18.62853 -10.578,4.15853 -22.1686,2.47371 -25.5044,-0.51349 -11.8989,-8.82169 -20.4722,-16.80452 -26.5912,-26.07914 -15.2955994,-24.80451 -14.5541994,-56.43954 5.7604,-79.44412 1.3086,-25.13227 12.5812,-32.58642 27.2321,-45.78948 8.334,-15.68424 17.684,-26.61433 29.392,-34.64503 11.701398,-2.64835 19.468504,-8.05122 25.936504,-14.49219 11.07,-11.02385 18.3346,-25.0886 35.0056,-33.58887 10.8296,-5.29842 25.2103,-4.16799 35.583,2.79708 5.9996,4.02862 6.1519,4.07045 8.779,2.41082 1.4704,-0.92891 7.9369,-4.61225 14.37,-8.1852 14.0922,-7.82693 27.1981,-57.88818 34.482,-52.65526 4.8805,3.5063 5.1085,3.56473 8.2523,2.11417 1.0769,-0.49688 5.5164,-17.93258 11.9098,-32.60727 6.3671,-20.182 23.9347,-21.14085 38.1623,-30.53041 31.5429,-19.16548 63.14018,-37.23202 97.62938,-38.48592 26.5163,-0.7406 55.0003,-1.13884 74.3993,3.71937 35.71,-1.69443 56.119,18.28214 90.7908,31.75945 11.9241,4.60719 21.9204,21.48618 33.0868,18.87302 7.5998,-1.79517 24.5503,46.61693 30.5643,47.74516 1.808,0.33918 6.1535,2.47998 9.6568,4.75735 3.5033,2.27736 8.7633,5.4094 11.6888,6.96007 l 5.3191,2.81941 6.4101,-4.38908 c 10.6273,-7.27665 24.9353,-8.51044 35.9872,-3.10322 5.6447,2.76169 11.3892,8.50519 24.5879,24.58353 l 8.6235,10.50487 16.3765,5.19441 c 10.1322,6.84749 20.6567,20.81081 34.875,35.72896 13.7308,14.40673 23.1481,33.13881 33.7091,50.29422 8.7809,14.26394 10.8375,28.66658 13.085,41.85867 1.3272,18.45457 0.363,34.562 -7.609,47.46879 -3.39,5.48848 -8.0472,10.39819 -14.3342,14.66351 -9.1841,4.12954 -19.9585,2.65896 -27.2808,0.40657 -20.6429,-6.34994 -35.9263,-27.7076 -50.5607,-46.42225 -5.6843,-7.16713 0.6046,-22.62192 -4.304,-27.98571 -12.7322,2.59715 -23.5638,5.85891 -25.558,5.89522 -16.4876,0 -21.4468,-12.87043 -22.6869,-25.16391 -0.3884,-3.85 -1.1163,-7.7875 -1.6177,-8.75 -1.722,-3.30577 -5.6956,-4.90743 -14.0683,-5.67057 -6.598,-0.60137 -9.1924,-1.32869 -12.4649,-3.49432 -5.3393,-3.53334 -9.6685,-3.29035 -10.1151,0.56775 -0.2706,2.33856 0.3777,2.99181 5.4725,5.51375 7.1646,3.54647 12.131,10.21245 15.7864,21.18855 3.5153,10.55561 3.3512,13.80558 -0.9838,19.483 -1.9427,2.54417 -4.3661,5.07211 -5.3854,5.61766 -1.0194,0.54554 -3.573,3.59116 -5.6748,6.76804 -2.1017,3.17688 -5.6458,8.02614 -7.8757,10.77614 -2.23,2.75 -6.2412,8.825 -8.9138,13.5 -2.6726,4.675 -7.6787,13.225 -11.1247,19 -12.8526,21.53911 -15.0262,26.58864 -27.9805,65 -13.5262,40.10719 -15.4936,44.75183 -24.5683,58.00122 -6.9113,10.0908 -9.9949,16.77565 -12.4539,26.99878 -2.2501,9.35447 -4.4664,14.62902 -7.8233,18.61845 -4.8036,5.70873 -5.0133,7.20461 -4.8206,34.38155 0.1077,15.18525 -0.2776,28.30048 -0.9527,32.42331 -2.8631,17.48737 -18.702,40.56293 -29.9146,43.58215 -2.341,0.63036 -8.1316,1.55401 -12.868,2.05256 -9.8198,1.03361 -84.014,0.98877 -100.6117,-0.0608 z m 93.1894,-8.98455 c 8.4911,-0.52276 16.6492,-1.54542 18.5,-2.31905 4.8278,-2.01813 14.1024,-12.55449 18.12,-20.5853 5.0511,-10.09659 6.0546,-17.813 5.4542,-41.94318 l -0.506,-20.33488 -4.8788,-4.98753 c -6.8149,-6.96672 -13.1071,-11.40812 -18.3788,-12.97278 -3.3966,-1.00811 -16.0248,-1.41761 -51.5,-1.67001 -25.85,-0.18392 -51.725,-0.40705 -57.5,-0.49585 l -10.5,-0.16145 -10.1633,5.77178 c -5.5899,3.17448 -10.6053,6.31489 -11.1454,6.97868 -1.2954,1.59213 -4.9354,13.4728 -6.7471,22.02229 -1.6869,7.96078 -1.867,22.43396 -0.3942,31.68462 2.1567,13.54697 15.7116,34.11607 24.3639,36.97159 7.7964,2.57304 75.3586,3.88293 105.2755,2.04107 z m -102.705,-19.86465 c -5.998,-3.18798 -9.6007,-9.13409 -14.0976,-23.26715 l -4.1332,-12.98973 2.2975,-2.44557 c 2.9596,-3.15027 5.1122,-3.07955 12.4489,0.40897 6.6261,3.15067 14.7259,11.04847 17.0599,16.63452 3.2563,7.79357 1.0052,17.97664 -4.7497,21.48532 -4.0608,2.47576 -4.479,2.48398 -8.8258,0.17364 z m 5.4838,-14.63455 c -0.031,-5.63921 -0.1612,-5.91206 -4.8467,-10.15419 -7.3629,-6.66604 -7.6298,-6.25958 -4.0959,6.23786 1.4503,5.12853 5.8719,10.7811 7.8892,10.08547 0.6176,-0.21298 1.0715,-2.87112 1.0534,-6.16914 z m 100.0107,13.16541 c -3.8172,-3.8172 -5.0332,-8.49661 -3.9994,-15.39045 0.6169,-4.11398 1.6102,-5.60395 7.9878,-11.98158 9.994,-9.99391 20.2871,-14.71753 23.5372,-10.80142 1.6657,2.00709 0.7835,7.1074 -3.5207,20.3535 -4.0503,12.46483 -6.2724,16.43191 -10.7247,19.14648 -4.9983,3.04752 -9.3398,2.61386 -13.2802,-1.32653 z m 9.4998,-6.66746 c 2.6568,-1.42186 9.0685,-20.01141 6.9022,-20.01141 -0.5562,0 -3.3852,2.37386 -6.2866,5.27524 -5.4779,5.47796 -7.0685,9.34721 -5.5185,13.42415 0.957,2.51712 2.0864,2.81935 4.9029,1.31202 z M 332.55912,533.61097 c 0.2204,-8.37027 0.6134,-10.92086 1.75,-11.35699 2.3533,-0.90306 1.7863,-2.74041 -4.0343,-13.07226 -3.025,-5.36955 -5.5,-10.1137 -5.5,-10.54256 0,-0.42887 1.1215,-0.0449 2.4923,0.85325 3.7171,2.43556 5.1725,1.25126 5.932,-4.82702 0.7645,-6.11925 -0.4276,-10.47701 -6.1836,-22.60344 -6.8825,-14.50001 -25.5048,-30.71017 -40.6482,-35.38318 -12.7234,-3.92622 -35.6371,-2.1344 -41.0067,3.20667 -2.4088,2.39597 -2.3132,6.20609 0.5024,20.02007 3.0047,14.74224 14.3412,40.66989 21.6838,49.59312 2.8996,3.52378 5.8246,6.41069 6.5,6.41536 0.6754,0.005 6.0716,2.40829 11.9915,5.3414 l 10.7636,5.33294 0.6142,-3.84141 c 0.3379,-2.11278 0.9284,-3.84141 1.3122,-3.84141 1.7621,0 5.0153,4.94464 6.099,9.27003 1.3892,5.54498 2.9541,6.86804 15.0569,12.72968 12.1974,5.90748 12.3292,5.83165 12.6749,-7.29425 z m -50.7843,-35.22937 c -9.3282,-3.06439 -18.8413,-12.45913 -21.0964,-20.83396 -0.5997,-2.2273 -1.6565,-8.34545 -2.3484,-13.59588 -1.4765,-11.20491 -2.0455,-10.27611 9.9448,-16.23299 7.7393,-3.84495 8.2622,-3.95955 16.0482,-3.5171 13.2916,0.7553 20.2614,5.31405 32.0491,20.96237 7.1653,9.51193 7.562,10.30497 6.8376,13.66961 -0.4229,1.96452 -0.7547,5.40388 -0.7373,7.643 l 0.032,4.07115 -9.6146,4.36942 c -8.5748,3.89682 -10.5341,4.40042 -18.1147,4.65604 -5.5291,0.18645 -10.0729,-0.23007 -13,-1.19166 z m 24.0554,-7.50435 c 2.1327,-1.08805 4.3428,-2.84722 4.9112,-3.90926 1.254,-2.34324 1.3336,-9.04024 0.1299,-10.9406 -1.2148,-1.91794 -2.5989,-0.80203 -6.4426,5.19432 -4.4168,6.89045 -5.7614,7.85047 -10.9953,7.85047 -8.2037,0 -13.8309,-4.73843 -17.6961,-14.90107 -2.0271,-5.32989 -2.8044,-14.38366 -1.7826,-20.76512 0.2274,-1.4206 -0.3128,-2.08975 -1.866,-2.31117 -3.0671,-0.43726 -4.3013,4.64906 -4.3083,17.75409 l -0.01,10.44341 5.3975,5.22793 c 2.9687,2.87537 6.9062,6.02729 8.75,7.00426 6.8339,3.62101 16.0294,3.37206 23.9079,-0.64726 z m -9.5554,-10.03145 c 1.65,-1.0471 3.6275,-2.31625 4.3944,-2.82033 1.1596,-0.76218 1.0451,-1.48091 -0.6799,-4.26824 -3.0783,-4.97385 -8.0383,-9.42796 -9.2023,-8.26388 -0.5361,0.53606 -1.2676,2.5356 -1.6257,4.44341 -0.5374,2.86366 -0.4186,3.2507 0.6813,2.21875 2.0297,-1.90447 5.7315,-1.4936 6.9433,0.77067 1.4152,2.64432 0.6684,3.67528 -3.2726,4.51787 -4.1308,0.88317 -5.7385,2.19781 -5.7385,4.69231 0,1.66623 0.4427,1.87546 2.75,1.29961 1.5125,-0.3775 4.1,-1.54308 5.75,-2.59017 z m -14.6928,-16.9689 c -0.3422,-5.91873 -1.8556,-7.35531 -3.6349,-3.45023 -1.6325,3.58305 -1.463,6.50012 0.5041,8.67373 2.4204,2.67452 3.4847,0.89875 3.1308,-5.2235 z m 254.71738,75.83547 c 2.1297,-0.97037 2.7831,-0.92697 3.4997,0.23243 0.7205,1.16584 1.3907,0.95045 3.6784,-1.18209 1.5385,-1.43423 4.1473,-3.02803 5.7973,-3.5418 1.8937,-0.58966 3.5132,-2.07737 4.3917,-4.03446 1.0986,-2.44744 2.3621,-3.35247 6,-4.29757 2.5345,-0.65847 5.3958,-1.40442 6.3583,-1.65768 1.1182,-0.29422 1.75,0.10542 1.75,1.10692 0,2.53455 1.6703,1.86021 8.3026,-3.3519 5.0842,-3.99549 6.3051,-5.51502 6.5014,-8.09161 0.1329,-1.74478 1.2431,-4.91231 2.4671,-7.03896 2.2167,-3.85166 2.2176,-3.87237 0.2271,-5.34454 -1.099,-0.81285 -4.588,-2.51226 -7.7533,-3.77647 -3.1653,-1.26421 -5.6127,-2.75544 -5.4387,-3.31385 0.1741,-0.5584 2.5389,-2.45809 5.2551,-4.22153 10.6331,-6.90312 12.5106,-9.14348 13.8462,-16.52147 0.6096,-3.36795 0.2989,-4.14005 -3.2201,-8 -2.1421,-2.34975 -4.2012,-5.53769 -4.5757,-7.08431 -0.3745,-1.54661 -2.4994,-5.4761 -4.722,-8.7322 -4.7631,-6.97791 -6.4449,-12.04981 -4.9327,-14.87546 1.5107,-2.82279 1.3983,-3.0339 -2.4776,-4.65337 -3.1109,-1.2998 -4.2049,-1.29369 -9.4,0.0525 -18.9605,4.91316 -31.7722,13.56372 -45.501,30.72254 -11.6284,14.53369 -17.3354,28.89816 -13.1459,33.08772 0.7879,0.7879 5.4004,2.66959 10.25,4.18154 11.4124,3.55801 14.3175,5.59964 14.3175,10.06193 0,4.23274 -2.594,12.06059 -5.2274,15.77443 -2.4613,3.47115 -2.0727,3.92568 2.287,2.67532 4.9715,-1.42579 5.2533,-1.29765 4.5776,2.08092 -0.4165,2.08287 0.03,4.32409 1.3954,7 2.2797,4.46874 2.0053,4.33167 5.492,2.74304 z m -1.9551,-39.87864 c -2.1617,-0.53458 -8.1409,-2.96648 -13.2871,-5.40424 -8.6291,-4.08764 -9.2623,-4.58328 -8.1439,-6.37411 0.9799,-1.56914 0.8741,-2.82835 -0.5514,-6.56091 l -1.764,-4.61909 5.5711,-7.73493 c 9.6076,-13.33912 14.1256,-17.87322 21.3569,-21.43316 5.2139,-2.56683 8.2088,-3.35588 13.7101,-3.61222 6.6249,-0.30869 7.5772,-0.0639 16.1949,4.16229 5.0359,2.46965 9.5824,5.25191 10.1034,6.18281 1.3899,2.48372 -2.2862,21.85502 -5.3477,28.17978 -6.0798,12.56002 -23.8934,20.66313 -37.8423,17.21378 z m 18.3272,-8.11429 c 3.3978,-1.75234 8.2401,-5.39089 10.7607,-8.08567 l 4.583,-4.89958 -0.481,-11.66434 c -0.5572,-13.51027 -1.0471,-15.16434 -4.4914,-15.16434 -2.3399,0 -2.4609,0.22982 -1.7098,3.25 2.9358,11.8055 -3.2542,28.00346 -12.505,32.72284 -8.0662,4.11511 -12.5334,2.41865 -18.615,-7.06928 -2.716,-4.2372 -4.9533,-6.78847 -5.486,-6.25581 -0.4947,0.49472 -0.9826,3.24963 -1.0843,6.12203 -0.2042,5.7685 1.2723,8.21713 6.6233,10.98421 8.1701,4.22495 14.298,4.24134 22.4055,0.0599 z m -5.4095,-8.79326 c 1.1795,-1.90838 -1.5368,-4.93934 -5.0104,-5.591 -4.4285,-0.83078 -5.0618,-1.8879 -3.0086,-5.02156 l 1.6407,-2.50393 3.4155,2.11089 3.4155,2.11089 -1.1151,-3.31298 c -1.9497,-5.79309 -2.7873,-6.22257 -6.0496,-3.10185 -1.6034,1.53388 -3.8554,4.3079 -5.0044,6.16449 l -2.0892,3.37561 2.4092,1.84709 c 2.996,2.297 8.0169,4.84864 9.6002,4.87891 0.655,0.0125 1.4633,-0.41793 1.7962,-0.95656 z m 10.5997,-15.74934 c 1.114,-2.93003 -0.8174,-7.77133 -3.1004,-7.77133 -1.0405,0 -1.5805,1.30959 -1.7996,4.3644 -0.1722,2.40043 -0.077,4.98034 0.2122,5.73315 0.7577,1.97462 3.5863,0.571 4.6878,-2.32622 z m -444.94608,35.96469 c 0.4331,-14.17533 7.3215,-20.12343 15.4631,-23.88757 9.839,-4.54889 21.508,-5.90826 25.8259,-14.74389 5.9695,-12.91344 10.3082,-17.8903 22.8283,-17.8903 10.3548,2.64763 22.746,6.19259 35.1157,-3.54269 2.7764,-3.11543 3.9325,-17.27876 3.2594,-39.93038 -0.5793,-19.49459 -0.9909,-21.66371 -4.9325,-25.99119 -2.7267,-2.99364 -7.4996,-2.92861 -17.4126,0.23723 -10.5024,3.35409 -12.5251,3.20327 -20.3365,-1.51644 -3.6677,-2.21607 -8.1947,-4.46958 -10.0601,-5.0078 -4.3478,-1.25449 -18.6571,7.83888 -21.2441,10.05495 -5.8922,9.55522 -11.8102,21.5313 -18.1825,27.23233 -7.8206,6.99676 -12.771,5.46375 -22.75231,13.25748 -4.224396,6.63839 -14.138296,22.17527 -19.205494,26.12688 -19.2616,3.48031 -10.5458,15.67836 -20.6094,28.84323 -10.0153,12.85385 -25.8935,23.04572 -24.5958,35.12596 -0.9706,24.3225 1.7185,43.91155 21.3875,49.54474 l 23.7052,-9.42327 c 10.597598,2.6919 4.5853,-16.57693 9.490998,-28.06846 5.7215,-13.40252 16.480406,-22.98199 22.255206,-20.42081 z m 659.49468,13.11531 15.6902,3.22157 c 4.0013,0.82156 9.5391,-8.8857 12.7495,-10.98857 8.9119,-4.67285 7.7092,-18.6958 5.9966,-31.78024 -4.0791,-12.22988 -3.7221,-30.83436 -10.8702,-43.52015 -10.1488,-18.01087 -20.2209,-31.28438 -34.1173,-42.2667 -8.1737,-6.45959 -3.7996,-16.5882 -15.9003,-16.63046 l -5.342,-4.21102 c -2.9381,-2.31607 -10.3019,-7.49916 -16.3639,-11.51799 -11.8829,-7.8777 -16.2425,-12.27846 -22.3526,-22.56315 -2.1562,-3.62947 -4.754,-7.31316 -5.7729,-8.18598 -2.5871,-2.21607 -16.8963,-4.20017 -21.2441,-2.94568 -1.8654,0.53822 -6.3924,2.79173 -10.0602,5.0078 -7.8113,4.71971 -9.834,4.87053 -20.3364,1.51644 -9.913,-3.16584 -14.686,-3.23087 -17.4126,-0.23723 -3.9416,4.32748 -4.3532,6.4966 -4.9325,25.99119 -0.6731,22.65162 0.483,36.81495 3.2594,39.93038 1.0306,1.15641 5.8096,4.02618 10.6199,6.37726 7.7096,3.7681 9.5595,4.2747 15.6091,4.2747 12.5201,0 22.1909,6.75418 28.1604,19.66762 5.1832,11.21236 7.7314,22.40733 20.0498,23.25166 15.4685,1.06025 11.4762,-18.09181 29.6614,-0.81987 9.1387,8.67981 4.8328,22.35678 12.0267,32.30148 14.5818,20.15754 23.5186,28.9214 30.882,34.12694 z"
   id="path4608"
   inkscape:connector-curvature="0"
   sodipodi:nodetypes="ssscsssssscccccccsscccccscsssssccccccssscsssccsscscscccscsscssccccssssssscssssssscsssscscsssssscsssssssccsssscssssssssscssccssssscsccscssccsssscccsscccscssscsccssccscccccsssssccsccccsssssscccsccccssssssssssscccccccccsssscsccscsscsscssccssccccccccscsssccsscscccsssscscccccccsccsccsscsscscscscssssssc" /></svg>