<?xml version="1.0" encoding="UTF-8" standalone="no"?>
<svg
   xmlns:dc="http://purl.org/dc/elements/1.1/"
   xmlns:cc="http://creativecommons.org/ns#"
   xmlns:rdf="http://www.w3.org/1999/02/22-rdf-syntax-ns#"
   xmlns:svg="http://www.w3.org/2000/svg"
   xmlns="http://www.w3.org/2000/svg"
   xmlns:sodipodi="http://sodipodi.sourceforge.net/DTD/sodipodi-0.dtd"
   xmlns:inkscape="http://www.inkscape.org/namespaces/inkscape"
   version="1.1"
   id="Layer_1"
   x="0px"
   y="0px"
   width="800"
   height="1024"
   viewBox="0 0 800 1024"
   enable-background="new 0 0 512 512"
   xml:space="preserve"
   inkscape:version="0.48.0 r9654"
   sodipodi:docname="an-x1202D.svg"><title
   id="title3743">Mesopotamian Font</title><metadata
   id="metadata72"><rdf:RDF><cc:Work
       rdf:about=""><dc:format>image/svg+xml</dc:format><dc:type
         rdf:resource="http://purl.org/dc/dcmitype/StillImage" /><dc:title>Sumerian</dc:title><dc:date>2017</dc:date><dc:creator><cc:Agent><dc:title>FlorinCB</dc:title></cc:Agent></dc:creator><dc:publisher><cc:Agent><dc:title>beitdina.net</dc:title></cc:Agent></dc:publisher></cc:Work></rdf:RDF></metadata><defs
   id="defs70" /><sodipodi:namedview
   pagecolor="#ffffff"
   bordercolor="#666666"
   borderopacity="1"
   objecttolerance="10"
   gridtolerance="10"
   guidetolerance="10"
   inkscape:pageopacity="0"
   inkscape:pageshadow="2"
   inkscape:window-width="1152"
   inkscape:window-height="814"
   id="namedview68"
   showgrid="false"
   inkscape:zoom="0.56264545"
   inkscape:cx="-94.347981"
   inkscape:cy="750.62832"
   inkscape:window-x="-8"
   inkscape:window-y="-8"
   inkscape:window-maximized="1"
   inkscape:current-layer="Layer_1" />
   
	<g
   id="Grid"
   transform="matrix(1.948664,0,0,-2.0011811,-2.6425584,1027.0605)">
		<rect
   x="0"
   stroke-miterlimit="10"
   width="410.30893"
   height="512"
   id="rect4"
   y="-2.220446e-016"
   style="fill:none;stroke:#a9ccdb;stroke-width:0.89520091;stroke-miterlimit:10" />
		<line
   stroke-miterlimit="10"
   x1="0"
   y1="32"
   x2="408.12671"
   y2="32"
   id="line6"
   style="fill:none;stroke:#a9ccdb;stroke-width:0.89281714;stroke-miterlimit:10" />
		<line
   stroke-miterlimit="10"
   x1="0"
   y1="64"
   x2="413.59372"
   y2="64"
   id="line8"
   style="fill:none;stroke:#a9ccdb;stroke-width:0.89877707;stroke-miterlimit:10" />
		<line
   stroke-miterlimit="10"
   x1="0"
   y1="96"
   x2="413.59372"
   y2="96"
   id="line10"
   style="fill:none;stroke:#a9ccdb;stroke-width:0.89877707;stroke-miterlimit:10" />
		<line
   stroke-miterlimit="10"
   x1="0"
   y1="128"
   x2="411.77136"
   y2="128"
   id="line12"
   style="fill:none;stroke:#a9ccdb;stroke-width:0.89679486;stroke-miterlimit:10" />
		<line
   stroke-miterlimit="10"
   x1="0"
   y1="160"
   x2="411.77136"
   y2="160"
   id="line14"
   style="fill:none;stroke:#a9ccdb;stroke-width:0.89679486;stroke-miterlimit:10" />
		<line
   stroke-miterlimit="10"
   x1="0"
   y1="192"
   x2="409.94904"
   y2="192"
   id="line16"
   style="fill:none;stroke:#a9ccdb;stroke-width:0.89480817;stroke-miterlimit:10" />
		<line
   stroke-miterlimit="10"
   x1="0"
   y1="224"
   x2="417.2384"
   y2="224"
   id="line18"
   style="fill:none;stroke:#a9ccdb;stroke-width:0.9027285;stroke-miterlimit:10" />
		<line
   stroke-miterlimit="10"
   x1="0"
   y1="256"
   x2="409.94904"
   y2="256"
   id="line20"
   style="fill:none;stroke:#a9ccdb;stroke-width:0.89480817;stroke-miterlimit:10" />
		<line
   stroke-miterlimit="10"
   x1="0"
   y1="288"
   x2="413.59372"
   y2="288"
   id="line22"
   style="fill:none;stroke:#a9ccdb;stroke-width:0.89877707;stroke-miterlimit:10" />
		<line
   stroke-miterlimit="10"
   x1="0"
   y1="320"
   x2="408.12671"
   y2="320"
   id="line24"
   style="fill:none;stroke:#a9ccdb;stroke-width:0.89281714;stroke-miterlimit:10" />
		<line
   stroke-miterlimit="10"
   x1="0"
   y1="352"
   x2="406.30435"
   y2="352"
   id="line26"
   style="fill:none;stroke:#a9ccdb;stroke-width:0.89082164;stroke-miterlimit:10" />
		<line
   stroke-miterlimit="10"
   x1="0"
   y1="384"
   x2="408.12671"
   y2="384"
   id="line28"
   style="fill:none;stroke:#a9ccdb;stroke-width:0.89281714;stroke-miterlimit:10" />
		<line
   stroke-miterlimit="10"
   x1="0"
   y1="416"
   x2="409.94904"
   y2="416"
   id="line30"
   style="fill:none;stroke:#a9ccdb;stroke-width:0.89480817;stroke-miterlimit:10" />
		<line
   stroke-miterlimit="10"
   x1="0"
   y1="448"
   x2="411.77136"
   y2="448"
   id="line32"
   style="fill:none;stroke:#ff0000;stroke-width:0.89679486;stroke-miterlimit:10" />
		<line
   stroke-miterlimit="10"
   x1="0"
   y1="480"
   x2="411.77136"
   y2="480"
   id="line34"
   style="fill:none;stroke:#a9ccdb;stroke-width:0.89679486;stroke-miterlimit:10" />
		<line
   stroke-miterlimit="10"
   x1="32"
   y1="0"
   x2="32"
   y2="512"
   id="line36"
   style="fill:none;stroke:#a9ccdb;stroke-miterlimit:10" />
		<line
   stroke-miterlimit="10"
   x1="64"
   y1="0"
   x2="64"
   y2="512"
   id="line38"
   style="fill:none;stroke:#a9ccdb;stroke-miterlimit:10" />
		<line
   stroke-miterlimit="10"
   x1="96"
   y1="0"
   x2="96"
   y2="512"
   id="line40"
   style="fill:none;stroke:#a9ccdb;stroke-miterlimit:10" />
		<line
   stroke-miterlimit="10"
   x1="128"
   y1="0"
   x2="128"
   y2="512"
   id="line42"
   style="fill:none;stroke:#a9ccdb;stroke-miterlimit:10" />
		<line
   stroke-miterlimit="10"
   x1="160"
   y1="0"
   x2="160"
   y2="512"
   id="line44"
   style="fill:none;stroke:#a9ccdb;stroke-miterlimit:10" />
		<line
   stroke-miterlimit="10"
   x1="192"
   y1="0"
   x2="192"
   y2="512"
   id="line46"
   style="fill:none;stroke:#a9ccdb;stroke-miterlimit:10" />
		<line
   stroke-miterlimit="10"
   x1="224"
   y1="0"
   x2="224"
   y2="512"
   id="line48"
   style="fill:none;stroke:#a9ccdb;stroke-miterlimit:10" />
		<line
   stroke-miterlimit="10"
   x1="256"
   y1="0"
   x2="256"
   y2="512"
   id="line50"
   style="fill:none;stroke:#a9ccdb;stroke-miterlimit:10" />
		<line
   stroke-miterlimit="10"
   x1="288"
   y1="0"
   x2="288"
   y2="512"
   id="line52"
   style="fill:none;stroke:#a9ccdb;stroke-miterlimit:10" />
		<line
   stroke-miterlimit="10"
   x1="320"
   y1="0"
   x2="320"
   y2="512"
   id="line54"
   style="fill:none;stroke:#a9ccdb;stroke-miterlimit:10" />
		<line
   stroke-miterlimit="10"
   x1="352"
   y1="0"
   x2="352"
   y2="512"
   id="line56"
   style="fill:none;stroke:#a9ccdb;stroke-miterlimit:10" />
		<line
   stroke-miterlimit="10"
   x1="384"
   y1="0"
   x2="384"
   y2="512"
   id="line58"
   style="fill:none;stroke:#a9ccdb;stroke-miterlimit:10" />
		<line
   stroke-miterlimit="10"
   x1="416"
   y1="0"
   x2="416"
   y2="512"
   id="line60"
   style="fill:none;stroke:#a9ccdb;stroke-miterlimit:10" />
		
		
	</g> 
    <path
   style="fill:#636363"
   d="m 398.01605,130.25219 c -6.6116,4.0813 -7.66081,-16.83956 -8.36161,164.06855 -0.1273,32.87058 -0.026,58.89678 0.2003,79.50828 0.8812,80.26831 -2.67163,79.75071 -4.13103,80.21967 -1.0276,0.33017 -5.9693,3.997 -6.3734,3.54042 -0.7235,-0.81745 -4.1426,2.6704 -5.7238,1.60371 -15.6798,-8.11992 -20.33827,-13.62632 -37.91507,-23.80216 -10.7999,-6.2395 -54.81,-30.65633 -62.1456,-38.47973 -20.9642,-32.98761 -29.142,-68.94403 -36.6147,-93.83815 -1.895,-6.12309 -6.0635,-20.04606 -10.4023,-24.49644 -2.3781,-2.56264 -7.2698,-3.78935 -11.1873,-2.80539 -3.69,0.92685 -14.3834,6.91425 -19.2558,15.21739 -1.9988,5.24144 -1.969,9.84814 -7.0434,19.39869 -6.6429,12.50246 -4.665,9.317 -14.4071,24.0235 -7.1251,10.75609 -18.5455,20.41835 -23.9451,28.06306 -15.6526,20.70321 -18.5703,13.44766 -18.9218,24.82754 0,7.35189 1.6372,11.92602 4.4668,12.47947 1.1274,0.22054 11.4303,4.88554 20.7228,5.47903 35.2564,3.21709 75.3672,0.77422 103.4838,14.06556 12.4114,6.10532 21.2697,10.20478 34.3323,16.28845 19.077,12.8759 55.39427,34.50805 64.49717,44.67579 2.1844,2.43992 -1.052,5.74982 -0.052,8.18081 -2.726,1.8001 -0.3917,4.68232 -3.0669,6.15955 -5.6811,2.23668 0.1246,5.28983 -5.6743,7.39184 -5.1201,1.33747 -8.35097,2.68993 -13.46097,4.05675 -56.39,12.80502 -75.8525,20.54366 -125.305,35.84468 -14.7113,4.53574 -58.9234,16.54101 -72.1713,20.85146 -7.0013,0.80556 -12.6706,2.56686 -16.4036,5.27718 -6.1833,4.48933 -7.0541,11.58243 0.1338,21.24883 3.1403,1.88217 8.765,1.19014 15.1178,-0.32177 18.3746,-10.91679 50.2191,-17.86297 72.8008,-24.57121 46.1846,-13.75037 96.25097,-29.38621 126.41947,-37.95508 7.0757,-2.00973 12.9043,-3.53296 17.1074,-4.40831 5.1706,-1.05317 -0.8178,6.19981 5.0179,5.93706 5.5953,4.29587 5.1534,2.30427 2.3381,6.82857 -2.3373,3.8065 -6.67127,17.10819 -13.69417,29.96304 -4.2581,7.79438 -7.5964,10.98119 -10.7098,16.23075 -11.2406,15.62124 -21.6403,32.32713 -31.2345,48.40719 -9.4466,15.4725 -10.6422,13.05187 -19.6462,19.52756 -6.7692,4.45794 -8.2045,8.34385 -12.256,9.42288 -4.7009,1.14367 -62.7089,51.7761 -84.4503,53.64132 -20.279,1.89306 -39.3177,-7.59516 -39.4785,13.93425 -1.0574,8.55936 3.878,10.15001 9.8849,15.76252 5.4427,5.08542 14.8614,1.56249 27.0745,12.13971 8.8284,8.02757 22.0147,17.45353 38.2752,30.87409 11.6387,9.60593 29.519,20.52301 33.289,29.03937 10.5801,25.61219 10.2894,22.22984 17.0304,28.61344 4.3957,4.52008 9.603,4.66373 14.3899,2.68012 3.0745,-1.27401 5.9756,-3.42553 8.3768,-5.85866 7.2273,-7.4912 1.974,-18.1366 2.0473,-23.51279 -2.2005,-8.7511 -4.972,-12.01116 -5.9989,-21.08744 -1.4291,-12.63078 0.2253,-17.98761 4.7943,-42.18842 3.6929,-19.56039 10.2142,-58.20974 11.3273,-69.99185 1.3897,-11.27461 1.1585,-19.11047 5.5654,-28.95892 3.2219,-7.1494 18.2649,-23.1878 26.599,-39.60106 9.0288,-17.79661 17.8908,-27.97848 26.711,-44.46407 4.4681,-8.30402 5.63787,-12.19485 11.50667,-17.76654 3.7508,-2.82788 10.61665,1.49676 11.33705,2.65836 -0.2065,9.54858 0.60318,16.03194 0.55128,24.82334 -0.11672,19.4507 -0.5522,41.87759 -0.47571,60.43685 -0.3763,21.09119 -0.7033,43.05655 -0.523,63.78392 -0.3681,21.02337 -0.1454,45.75036 -2.2146,65.05808 2.005,5.3411 -0.9023,20.88626 -2.0332,24.75436 -8.4513,26.00069 -20.9933,50.30505 -40.5195,74.70404 -4.1511,5.18706 -12.0488,14.77506 -15.9811,19.37266 -3.0598,3.53935 -7.0056,7.87892 -8.3485,11.99257 -2.2969,7.03575 0.6006,12.80577 11.0586,8.40396 22.8093,-8.36547 56.1422,-14.76927 75.6283,-13.91518 12.7538,0.55902 40.4447,5.06981 61.7893,10.06538 5.8411,1.36704 11.2106,2.56121 11.9325,2.65368 1.936,0.24799 4.9294,-4.23984 5.5942,-8.38697 0.8468,-5.28375 -12.7263,-4.72275 -30.6993,-30.1412 -17.0959,-28.22421 -24.4287,-42.99949 -42.3539,-76.51598 -3.2612,-5.8665 -3.1457,-17.13674 -3.8678,-23.39248 -0.105,-22.02703 1.014,-44.21244 0.8291,-64.66671 -0.1756,-21.18918 0.7935,-41.24933 0.5083,-61.57807 -0.28482,-20.13737 -0.37941,-43.93824 -0.19088,-64.49092 0.22419,-7.45424 0.98378,-18.57149 0.27662,-22.606 -0.3663,-1.6982 5.03503,-0.16912 4.46963,-1.06308 0.8873,0.0575 3.11463,-7.62708 4.57713,-7.05307 4.06597,3.49249 5.65555,5.33267 9.7274,9.12894 7.31857,6.82325 16.42137,17.01763 23.14131,23.35955 22.3955,21.15629 27.26838,29.43884 53.81209,53.06747 4.67168,4.15863 7.2996,7.68088 13.4739,13.61138 18.1043,17.38938 41.7355,35.75987 51.4459,51.13878 12.0608,17.80578 14.7275,30.36303 17.0556,44.34725 4.0577,24.37401 4.9244,34.64427 4.9244,58.35243 -0.9643,7.81757 -2.5886,21.04309 3.1564,26.94088 3.5801,3.52243 9.4077,2.74379 16.3598,-4.52554 5.5309,-6.20535 8.2191,-11.02228 16.4638,-29.50036 4.1958,-9.40362 9.5097,-19.96213 11.8089,-23.46336 5.8917,-8.97215 17.5054,-20.15509 37.6542,-36.25715 9.558,-7.63842 21.0057,-16.98535 25.4395,-20.77096 l 8.061,-6.88293 c 2.2639,-2.1446 3.6547,-4.96595 4.1862,-7.66027 1.2196,-10.24954 -4.0438,-8.36832 -11.7959,-8.5457 -8.8263,-0.23288 -18.7687,0.8804 -24.9105,0.39697 -37.9825,4.69522 -72.1018,-8.30971 -98.5708,-23.1341 -21.9004,-15.79891 -41.16267,-30.86301 -59.2115,-46.72463 -13.92962,-12.24159 -28.10798,-25.92985 -41.7533,-40.33251 -15.9413,-17.18929 -32.70587,-34.2844 -47.44488,-52.15575 -1.1716,-1.42148 4.19577,-12.374 2.98357,-13.7609 -3.666,-4.47893 -1.7136,-2.03298 -0.3329,-3.19309 0.8489,-0.71323 1.9048,-2.25935 2.3467,-3.43583 0.7391,-1.96778 -6.491,-4.7052 3.5574,-5.30977 4.46454,-0.26861 27.89459,-4.04618 50.75091,-4.31004 20.95894,-0.10142 42.78502,0.37508 64.09843,0.20575 21.15623,-0.16807 41.16972,-0.98173 62.43365,-1.15197 l 22.38646,11.58029 c 15.92481,8.23774 31.67253,17.74532 49.87783,33.49886 9.52178,6.002 25.91381,27.97219 39.10258,30.15268 4.02106,0.6648 7.56914,-3.71025 10.25187,-7.89041 1.30034,-2.0813 2.1164,-4.45677 2.42083,-6.6587 0.6957,-5.40375 -0.41098,-11.75321 -1.00892,-18.37616 -0.73883,-7.99654 -2.02085,-15.70909 -3.19553,-25.20926 -4.16912,-26.19842 -1.78964,-50.35487 1.53445,-74.64531 0.89046,-5.75641 3.78512,-8.37987 2.62731,-15.43781 -1.46278,-8.91708 -6.85172,-12.60088 -13.42323,-9.42584 -2.22819,2.33896 -4.9261,4.46987 -7.71458,6.50635 -12.56543,9.60354 -26.06684,20.53934 -39.40529,28.29773 -21.09556,8.54768 -40.57386,22.35218 -63.57275,26.20636 -20.66366,-1.23274 -39.0887,0.11553 -62.35783,0.5716 -20.13558,0.39465 -43.11824,0.43389 -62.80999,0.75265 -17.31897,0.28036 -36.13169,-0.23292 -50.31392,-0.62078 -2.31641,-1.06215 -3.923,1.98697 -3.84261,0.4842 -0.14869,-0.80422 -0.0462,-1.59542 0.022,-2.16705 0.33726,-0.82403 0.70877,-1.66465 1.11226,-2.5124 3.92251,-8.96222 12.83985,-14.07184 19.2193,-20.15202 11.24083,-9.58812 21.21616,-22.04842 33.6458,-27.26363 14.88074,-6.22958 51.94167,-21.14748 64.21197,-37.41764 17.39427,-20.87222 34.26188,-42.21729 49.5004,-63.16793 11.9559,-16.41635 25.17624,-35.07051 37.2081,-47.93017 3.8498,-4.09159 6.9998,-7.87046 6.9998,-8.39748 0,-1.20945 -12.0635,-12.99714 -13.3012,-12.99714 -1.8141,0 -6.5507,5.7661 -24.8899,30.30001 -9.20628,12.76129 -20.52171,26.53504 -29.74129,38.18117 -17.82805,24.41269 -30.25589,43.31248 -53.80897,59.98215 -9.06273,6.41414 -25.66138,15.17481 -36.12554,19.82728 -24.65432,9.72169 -45.99535,31.97283 -64.46391,47.76648 -1.83389,1.55356 -2.88919,3.3404 -4.74862,4.70953 l -3.4776,2.46141 -5.4529,-1.69992 -3.2536,-2.32829 0.29243,-77.30451 -1.737,-84.30819 -1.92979,-158.17894 -1.5141,-1.50038 c -4.81789,-4.77423 -8.0098,-3.85789 -12.0158,-1.38495 z M 239.32834,368.44932 c 2.1626,9.80782 6.1536,18.93458 6.1536,19.19556 -4.0561,-0.83214 -18.9353,-0.53483 -23.1313,-2.17021 -8.676,-3.38155 -13.7147,-1.20681 -20.6471,-1.56316 -5.8346,-0.19917 -13.1715,-1.96638 -22.2113,-2.05571 -5.0295,-0.0497 -17.4838,1.37203 -20.177,0.35131 l 20.3198,-18.54955 c 12.7567,-11.64537 33.7278,-58.90726 34.4896,-58.92342 13.4668,24.6525 21.9384,48.50441 25.2037,63.71518 z m 488.01671,179.19039 -0.027,1.81219 c -1.1948,-0.63012 -32.49944,-32.38735 -44.09624,-40.17573 -17.0412,-11.4448 -33.70952,-20.3043 -32.66432,-21.26483 10.80909,-4.98478 22.88471,-10.4988 32.72157,-16.95632 9.42593,-6.18776 17.19321,-11.01493 25.65503,-17.22273 5.36944,-3.93914 11.39389,-9.56027 17.09676,-12.83021 -9.47899,34.82774 -1.21529,72.23864 1.3142,106.63763 z M 612.41424,701.78623 c 6.0629,2.19511 24.8691,6.40129 32.016,8.26095 7.1469,1.85965 26.8453,2.39969 26.9551,2.51118 0.1099,0.11148 -18.2006,11.35368 -25.9883,20.28138 -19.7195,22.60593 -28.6699,44.43223 -29.1215,43.97509 -0.2192,-0.22187 -3.7902,-30.48245 -5.895,-41.19439 -2.1051,-10.71195 -5.7713,-25.32658 -7.0611,-29.76162 -1.2898,-4.43504 -2.2513,-8.06371 -2.137,-8.06371 0.1145,0 5.1688,1.796 11.2318,3.99112 z m -345.2545,78.45146 c 1.5356,-2.1205 -65.9902,-44.83696 -64.4633,-45.45265 3.482,1.26724 6.7763,-5.71821 14.8143,-10.02167 15.3484,-8.21743 66.335,-48.13916 69.6673,-43.89648 2.1037,3.32981 -1.9297,17.32494 -2.9628,32.21857 -1.3512,19.48066 -11.3285,71.41518 -17.0555,67.15223 z m 139.8814,45.68026 c 4.2817,10.70044 14.4695,31.11929 19.3092,38.69993 2.1359,3.34562 7.4381,8.7296 7.4381,9.24904 0,0.58432 -17.9375,-1.72154 -34.0653,-1.72154 -14.3371,0 -27.4004,2.42117 -27.4004,2.12194 0,-2.69845 28.5638,-57.30174 29.8125,-57.30174 0.3511,0 3.1314,4.51733 4.9059,8.95237 z"
   id="path3792"
   inkscape:connector-curvature="0"
   sodipodi:nodetypes="csscccccccscssccccccsccccccscccscccsccccccccsccsccsscccccccccccscscsssccccccccccscsscscccscsccccccsccccsscscscscccccsccccsscccccccccssccscccccccccsccccscscsccccscssccccsccsssccscscccsssscc" />
	 
</svg>