<?xml version="1.0" encoding="UTF-8" standalone="no"?>
<svg
   xmlns:dc="http://purl.org/dc/elements/1.1/"
   xmlns:cc="http://creativecommons.org/ns#"
   xmlns:rdf="http://www.w3.org/1999/02/22-rdf-syntax-ns#"
   xmlns:svg="http://www.w3.org/2000/svg"
   xmlns="http://www.w3.org/2000/svg"
   xmlns:sodipodi="http://sodipodi.sourceforge.net/DTD/sodipodi-0.dtd"
   xmlns:inkscape="http://www.inkscape.org/namespaces/inkscape"
   version="1.1"
   id="Layer_1"
   x="0px"
   y="0px"
   width="1000"
   height="1024"
   viewBox="0 0 1000 1024"
   enable-background="new 0 0 512 512"
   xml:space="preserve"
   inkscape:version="0.48.0 r9654"
   sodipodi:docname="anshe-x12032.svg"><title
   id="title3743">Mesopotamian Font</title><metadata
   id="metadata72"><rdf:RDF><cc:Work
       rdf:about=""><dc:format>image/svg+xml</dc:format><dc:type
         rdf:resource="http://purl.org/dc/dcmitype/StillImage" /><dc:title>Sinai 357</dc:title><dc:date>2017</dc:date><dc:creator><cc:Agent><dc:title>Celeste Claire Horner</dc:title></cc:Agent></dc:creator><dc:publisher><cc:Agent><dc:title>beitdina.net</dc:title></cc:Agent></dc:publisher></cc:Work></rdf:RDF></metadata><defs
   id="defs70" /><sodipodi:namedview
   pagecolor="#ffffff"
   bordercolor="#666666"
   borderopacity="1"
   objecttolerance="10"
   gridtolerance="10"
   guidetolerance="10"
   inkscape:pageopacity="0"
   inkscape:pageshadow="2"
   inkscape:window-width="1152"
   inkscape:window-height="814"
   id="namedview68"
   showgrid="false"
   inkscape:zoom="0.24411956"
   inkscape:cx="-13.877658"
   inkscape:cy="251.16776"
   inkscape:window-x="-8"
   inkscape:window-y="-8"
   inkscape:window-maximized="1"
   inkscape:current-layer="Layer_1" />
   
	<g
   id="Grid"
   transform="matrix(1.9502951,0,0,1.9942504,1.456297,2.45274)">
		<rect
   x="0"
   stroke-miterlimit="10"
   width="512"
   height="512"
   id="rect4"
   y="0"
   style="fill:none;stroke:#a9ccdb;stroke-miterlimit:10" />
		<line
   stroke-miterlimit="10"
   x1="0"
   y1="32"
   x2="512"
   y2="32"
   id="line6"
   style="fill:none;stroke:#a9ccdb;stroke-miterlimit:10" />
		<line
   stroke-miterlimit="10"
   x1="0"
   y1="64"
   x2="512"
   y2="64"
   id="line8"
   style="fill:none;stroke:#a9ccdb;stroke-miterlimit:10" />
		<line
   stroke-miterlimit="10"
   x1="0"
   y1="96"
   x2="512"
   y2="96"
   id="line10"
   style="fill:none;stroke:#a9ccdb;stroke-miterlimit:10" />
		<line
   stroke-miterlimit="10"
   x1="0"
   y1="128"
   x2="512"
   y2="128"
   id="line12"
   style="fill:none;stroke:#a9ccdb;stroke-miterlimit:10" />
		<line
   stroke-miterlimit="10"
   x1="0"
   y1="160"
   x2="512"
   y2="160"
   id="line14"
   style="fill:none;stroke:#a9ccdb;stroke-miterlimit:10" />
		<line
   stroke-miterlimit="10"
   x1="0"
   y1="192"
   x2="512"
   y2="192"
   id="line16"
   style="fill:none;stroke:#a9ccdb;stroke-miterlimit:10" />
		<line
   stroke-miterlimit="10"
   x1="0"
   y1="224"
   x2="512"
   y2="224"
   id="line18"
   style="fill:none;stroke:#a9ccdb;stroke-miterlimit:10" />
		<line
   stroke-miterlimit="10"
   x1="0"
   y1="256"
   x2="512"
   y2="256"
   id="line20"
   style="fill:none;stroke:#a9ccdb;stroke-miterlimit:10" />
		<line
   stroke-miterlimit="10"
   x1="0"
   y1="288"
   x2="512"
   y2="288"
   id="line22"
   style="fill:none;stroke:#a9ccdb;stroke-miterlimit:10" />
		<line
   stroke-miterlimit="10"
   x1="0"
   y1="320"
   x2="512"
   y2="320"
   id="line24"
   style="fill:none;stroke:#a9ccdb;stroke-miterlimit:10" />
		<line
   stroke-miterlimit="10"
   x1="0"
   y1="352"
   x2="512"
   y2="352"
   id="line26"
   style="fill:none;stroke:#a9ccdb;stroke-miterlimit:10" />
		<line
   stroke-miterlimit="10"
   x1="0"
   y1="384"
   x2="512"
   y2="384"
   id="line28"
   style="fill:none;stroke:#a9ccdb;stroke-miterlimit:10" />
		<line
   stroke-miterlimit="10"
   x1="0"
   y1="416"
   x2="512"
   y2="416"
   id="line30"
   style="fill:none;stroke:#a9ccdb;stroke-miterlimit:10" />
		<line
   stroke-miterlimit="10"
   x1="0"
   y1="448"
   x2="512"
   y2="448"
   id="line32"
   style="fill:none;stroke:#ff0000;stroke-miterlimit:10" />
		<line
   stroke-miterlimit="10"
   x1="0"
   y1="480"
   x2="512"
   y2="480"
   id="line34"
   style="fill:none;stroke:#a9ccdb;stroke-miterlimit:10" />
		<line
   stroke-miterlimit="10"
   x1="32"
   y1="0"
   x2="32"
   y2="512"
   id="line36"
   style="fill:none;stroke:#a9ccdb;stroke-miterlimit:10" />
		<line
   stroke-miterlimit="10"
   x1="64"
   y1="0"
   x2="64"
   y2="512"
   id="line38"
   style="fill:none;stroke:#a9ccdb;stroke-miterlimit:10" />
		<line
   stroke-miterlimit="10"
   x1="96"
   y1="0"
   x2="96"
   y2="512"
   id="line40"
   style="fill:none;stroke:#a9ccdb;stroke-miterlimit:10" />
		<line
   stroke-miterlimit="10"
   x1="128"
   y1="0"
   x2="128"
   y2="512"
   id="line42"
   style="fill:none;stroke:#a9ccdb;stroke-miterlimit:10" />
		<line
   stroke-miterlimit="10"
   x1="160"
   y1="0"
   x2="160"
   y2="512"
   id="line44"
   style="fill:none;stroke:#a9ccdb;stroke-miterlimit:10" />
		<line
   stroke-miterlimit="10"
   x1="192"
   y1="0"
   x2="192"
   y2="512"
   id="line46"
   style="fill:none;stroke:#a9ccdb;stroke-miterlimit:10" />
		<line
   stroke-miterlimit="10"
   x1="224"
   y1="0"
   x2="224"
   y2="512"
   id="line48"
   style="fill:none;stroke:#a9ccdb;stroke-miterlimit:10" />
		<line
   stroke-miterlimit="10"
   x1="256"
   y1="0"
   x2="256"
   y2="512"
   id="line50"
   style="fill:none;stroke:#a9ccdb;stroke-miterlimit:10" />
		<line
   stroke-miterlimit="10"
   x1="288"
   y1="0"
   x2="288"
   y2="512"
   id="line52"
   style="fill:none;stroke:#a9ccdb;stroke-miterlimit:10" />
		<line
   stroke-miterlimit="10"
   x1="320"
   y1="0"
   x2="320"
   y2="512"
   id="line54"
   style="fill:none;stroke:#a9ccdb;stroke-miterlimit:10" />
		<line
   stroke-miterlimit="10"
   x1="352"
   y1="0"
   x2="352"
   y2="512"
   id="line56"
   style="fill:none;stroke:#a9ccdb;stroke-miterlimit:10" />
		<line
   stroke-miterlimit="10"
   x1="384"
   y1="0"
   x2="384"
   y2="512"
   id="line58"
   style="fill:none;stroke:#a9ccdb;stroke-miterlimit:10" />
		<line
   stroke-miterlimit="10"
   x1="416"
   y1="0"
   x2="416"
   y2="512"
   id="line60"
   style="fill:none;stroke:#a9ccdb;stroke-miterlimit:10" />
		<line
   stroke-miterlimit="10"
   x1="448"
   y1="0"
   x2="448"
   y2="512"
   id="line62"
   style="fill:none;stroke:#a9ccdb;stroke-miterlimit:10" />
		<line
   stroke-miterlimit="10"
   x1="480"
   y1="0"
   x2="480"
   y2="512"
   id="line64"
   style="fill:none;stroke:#a9ccdb;stroke-miterlimit:10" />
	</g>
<path
   d="m 308.65558,989.06177 c -9.80739,-7.43507 -29.05375,-23.98624 -42.76978,-36.78035 -13.71608,-12.79412 -33.62956,-31.37828 -44.25226,-41.29804 -34.54897,-32.26283 -106.503,-81.43688 -115.86099,-79.18051 -5.02023,1.21055 -16.392068,-3.36358 -25.270898,-10.16453 -13.641164,-10.4488 -13.994607,-14.44874 -2.28053,-25.80754 13.08684,-12.69007 12.8012,-13.90412 -5.10415,-21.69342 -25.838881,-11.24063 10.033406,-65.32009 62.788358,-114.48408 24.78013,-23.09341 62.13724,-68.02099 83.01594,-99.8392 45.84039,-69.85898 46.1532,-68.98167 -65.79953,-184.55238 C 67.548768,286.9233 62.615449,236.45331 75.197007,208.62826 92.862057,169.56075 149.35881,190.16965 272.6748,252.9524 c 91.01291,46.33654 120.24257,67.14952 118.49265,84.37267 -2.04597,20.13569 6.50416,21.19067 84.35568,10.40876 52.10445,-7.21606 67.69146,-12.35196 65.32655,-21.52483 -5.53805,-21.48046 25.96504,-96.04102 52.45024,-124.13763 24.14663,-25.61583 24.94205,-30.69956 12.40949,-79.30993 -7.365,-28.566781 -10.07756,-52.738561 -6.0279,-53.714951 17.42919,-4.2025 36.11579,18.744 45.77534,56.210671 l 10.39169,40.30645 35.48944,-14.01981 c 32.83987,-12.97291 35.91369,-12.31143 41.17077,8.85978 3.12495,12.58361 0.36237,35.61611 -6.13863,51.18334 -6.50096,15.56725 -10.05247,35.53895 -7.89225,44.3815 2.16042,8.84252 -21.10009,38.78757 -36.69469,61.7209 -38.409,56.4841 -29.66795,58.11046 55.22587,191.6434 23.32534,36.68938 88.61348,67.21497 121.37941,91.43754 13.91901,10.28978 26.69836,19.42649 30.69155,33.34068 9.32394,32.4906 30.99191,24.81135 9.3962,49.79709 -15.77018,18.24574 -12.12091,24.81108 -24.99385,25.32462 -8.86108,0.35349 -25.00104,-1.06101 -62.91364,-7.94998 -19.74372,-3.58756 -172.06108,35.34195 -214.39476,9.88547 -42.33374,-25.45666 -81.0754,-52.93723 -85.14734,-51.95541 -4.072,0.98177 -71.31135,108.78049 -99.76111,160.95222 -33.35107,61.15976 -49.74844,102.53121 -46.15778,116.45839 5.58987,21.68146 -11.77855,59.4845 -29.26727,63.70146 -5.14446,1.2404 -17.37779,-3.82799 -27.18511,-11.26306 z m 41.42125,-129.11602 c 29.90625,-95.86227 160.04412,-287.87485 170.90149,-245.76227 2.53376,9.82772 49.01804,57.99711 104.96065,76.11085 42.79453,13.85649 148.30366,-22.66506 184.8575,-22.24235 28.76427,0.33263 52.50254,-1.68954 58.87791,-3.22676 9.43929,-2.27599 -6.02206,-19.40891 -32.55951,-37.14946 -34.60614,-23.13455 -101.211,-63.18677 -126.45595,-105.91278 -95.66604,-161.91073 -74.82921,-79.62201 -100.96814,-73.31941 -13.3666,3.22294 -28.26608,3.3792 -33.1101,0.34725 -4.84397,-3.03192 -16.74562,-3.5985 -26.44804,-1.25905 -24.72965,5.96276 -20.92973,-17.37879 6.90093,-42.39042 22.71581,-20.41486 12.3539,-36.15303 -65.37265,-22.39094 -58.56185,10.36883 -66.86506,10.4772 -101.29947,1.2395 -44.36464,-11.90176 -47.36342,7.31214 -54.55613,26.24286 -4.16673,10.96649 -37.58576,28.14876 -35.31035,36.97441 2.27542,8.82567 -4.29466,29.05907 -9.89615,43.82888 -5.60144,14.76986 -11.78436,35.36262 -14.6227,47.18241 -2.83817,11.8199 -20.43962,37.3971 -38.23442,60.25025 -17.79488,22.85308 -39.97534,46.01104 -46.94112,55.72768 -6.96575,9.71662 -51.11801,54.64662 -54.24609,60.83983 -13.9777,27.67423 -22.60973,23.00606 -23.64269,53.50145 -0.58502,17.27164 17.60549,35.66177 50.50695,57.42825 23.60587,15.61681 60.09748,42.73637 83.73779,60.8358 23.64018,18.09944 73.59092,63.08493 77.51554,62.13865 3.92458,-0.94633 15.89732,-58.51921 25.40475,-88.99463 z m -44.67952,-499.10184 18.51943,-22.89328 -70.21698,-52.76976 c -61.07956,-45.9028 -123.80639,-54.32152 -131.14294,-41.45748 -6.18733,10.84915 32.54152,88.1305 76.60755,133.24351 46.18027,47.27751 59.80532,41.26943 106.23294,-16.12299 z M 688.21329,258.06175 c 7.66364,-20.2804 -0.31465,-41.85337 -8.61516,-47.09058 -8.30038,-5.23713 -12.35763,-0.86899 -13.00785,14.00492 -1.12437,25.72168 -21.34763,33.31767 -35.16855,13.20956 -8.87504,-12.91228 -10.74312,-22.09995 -23.94517,-1.56446 -16.39577,25.50309 -28.20016,91.72931 -17.57456,102.42589 11.21427,11.28925 86.12944,-48.74845 98.31125,-80.98533 z M 645.05546,535.3998 c -22.36619,-19.71431 -9.18319,-33.56402 -0.54978,-31.77448 26.35169,15.93038 13.03451,44.80519 0.54978,31.77448 z"
   style="fill:#010000;fill-opacity:1"
   id="path39"
   inkscape:connector-curvature="0"
   sodipodi:nodetypes="csscssssssssssssssscscscssscsssscsssccsssssssssssssssscsssssscsscsssscsssssccccc" /></svg>