<?xml version="1.0" encoding="UTF-8" standalone="no"?>
<svg
   xmlns:dc="http://purl.org/dc/elements/1.1/"
   xmlns:cc="http://creativecommons.org/ns#"
   xmlns:rdf="http://www.w3.org/1999/02/22-rdf-syntax-ns#"
   xmlns:svg="http://www.w3.org/2000/svg"
   xmlns="http://www.w3.org/2000/svg"
   xmlns:sodipodi="http://sodipodi.sourceforge.net/DTD/sodipodi-0.dtd"
   xmlns:inkscape="http://www.inkscape.org/namespaces/inkscape"
   version="1.1"
   id="Layer_1"
   x="0px"
   y="0px"
   width="1000"
   height="1024"
   viewBox="0 0 1000 1024"
   enable-background="new 0 0 512 512"
   xml:space="preserve"
   inkscape:version="0.48.0 r9654"
   sodipodi:docname="aya-x1225a.svg"><title
   id="title3743">Mesopotamian Font</title><metadata
   id="metadata72"><rdf:RDF><cc:Work
       rdf:about=""><dc:format>image/svg+xml</dc:format><dc:type
         rdf:resource="http://purl.org/dc/dcmitype/StillImage" /><dc:title>Sumerian</dc:title><dc:date>2017</dc:date><dc:creator><cc:Agent><dc:title>FlorinCB</dc:title></cc:Agent></dc:creator><dc:publisher><cc:Agent><dc:title>beitdina.net</dc:title></cc:Agent></dc:publisher></cc:Work></rdf:RDF></metadata><defs
   id="defs70" /><sodipodi:namedview
   pagecolor="#ffffff"
   bordercolor="#666666"
   borderopacity="1"
   objecttolerance="10"
   gridtolerance="10"
   guidetolerance="10"
   inkscape:pageopacity="0"
   inkscape:pageshadow="2"
   inkscape:window-width="953"
   inkscape:window-height="635"
   id="namedview68"
   showgrid="false"
   inkscape:zoom="0.1989252"
   inkscape:cx="-44.227683"
   inkscape:cy="765.50445"
   inkscape:window-x="57"
   inkscape:window-y="91"
   inkscape:window-maximized="0"
   inkscape:current-layer="Layer_1" />
   
	<g
   id="Grid"
   transform="matrix(1.948664,0,0,-2.0011811,-2.6425584,1027.0605)">
		<rect
   x="0"
   stroke-miterlimit="10"
   width="512"
   height="512"
   id="rect4"
   y="0"
   style="fill:none;stroke:#a9ccdb;stroke-miterlimit:10" />
		<line
   stroke-miterlimit="10"
   x1="0"
   y1="32"
   x2="512"
   y2="32"
   id="line6"
   style="fill:none;stroke:#a9ccdb;stroke-miterlimit:10" />
		<line
   stroke-miterlimit="10"
   x1="0"
   y1="64"
   x2="512"
   y2="64"
   id="line8"
   style="fill:none;stroke:#a9ccdb;stroke-miterlimit:10" />
		<line
   stroke-miterlimit="10"
   x1="0"
   y1="96"
   x2="512"
   y2="96"
   id="line10"
   style="fill:none;stroke:#a9ccdb;stroke-miterlimit:10" />
		<line
   stroke-miterlimit="10"
   x1="0"
   y1="128"
   x2="512"
   y2="128"
   id="line12"
   style="fill:none;stroke:#a9ccdb;stroke-miterlimit:10" />
		<line
   stroke-miterlimit="10"
   x1="0"
   y1="160"
   x2="512"
   y2="160"
   id="line14"
   style="fill:none;stroke:#a9ccdb;stroke-miterlimit:10" />
		<line
   stroke-miterlimit="10"
   x1="0"
   y1="192"
   x2="512"
   y2="192"
   id="line16"
   style="fill:none;stroke:#a9ccdb;stroke-miterlimit:10" />
		<line
   stroke-miterlimit="10"
   x1="0"
   y1="224"
   x2="512"
   y2="224"
   id="line18"
   style="fill:none;stroke:#a9ccdb;stroke-miterlimit:10" />
		<line
   stroke-miterlimit="10"
   x1="0"
   y1="256"
   x2="512"
   y2="256"
   id="line20"
   style="fill:none;stroke:#a9ccdb;stroke-miterlimit:10" />
		<line
   stroke-miterlimit="10"
   x1="0"
   y1="288"
   x2="512"
   y2="288"
   id="line22"
   style="fill:none;stroke:#a9ccdb;stroke-miterlimit:10" />
		<line
   stroke-miterlimit="10"
   x1="0"
   y1="320"
   x2="512"
   y2="320"
   id="line24"
   style="fill:none;stroke:#a9ccdb;stroke-miterlimit:10" />
		<line
   stroke-miterlimit="10"
   x1="0"
   y1="352"
   x2="512"
   y2="352"
   id="line26"
   style="fill:none;stroke:#a9ccdb;stroke-miterlimit:10" />
		<line
   stroke-miterlimit="10"
   x1="0"
   y1="384"
   x2="512"
   y2="384"
   id="line28"
   style="fill:none;stroke:#a9ccdb;stroke-miterlimit:10" />
		<line
   stroke-miterlimit="10"
   x1="0"
   y1="416"
   x2="512"
   y2="416"
   id="line30"
   style="fill:none;stroke:#a9ccdb;stroke-miterlimit:10" />
		<line
   stroke-miterlimit="10"
   x1="0"
   y1="448"
   x2="512"
   y2="448"
   id="line32"
   style="fill:none;stroke:#ff0000;stroke-miterlimit:10" />
		<line
   stroke-miterlimit="10"
   x1="0"
   y1="480"
   x2="512"
   y2="480"
   id="line34"
   style="fill:none;stroke:#a9ccdb;stroke-miterlimit:10" />
		<line
   stroke-miterlimit="10"
   x1="32"
   y1="0"
   x2="32"
   y2="512"
   id="line36"
   style="fill:none;stroke:#a9ccdb;stroke-miterlimit:10" />
		<line
   stroke-miterlimit="10"
   x1="64"
   y1="0"
   x2="64"
   y2="512"
   id="line38"
   style="fill:none;stroke:#a9ccdb;stroke-miterlimit:10" />
		<line
   stroke-miterlimit="10"
   x1="96"
   y1="0"
   x2="96"
   y2="512"
   id="line40"
   style="fill:none;stroke:#a9ccdb;stroke-miterlimit:10" />
		<line
   stroke-miterlimit="10"
   x1="128"
   y1="0"
   x2="128"
   y2="512"
   id="line42"
   style="fill:none;stroke:#a9ccdb;stroke-miterlimit:10" />
		<line
   stroke-miterlimit="10"
   x1="160"
   y1="0"
   x2="160"
   y2="512"
   id="line44"
   style="fill:none;stroke:#a9ccdb;stroke-miterlimit:10" />
		<line
   stroke-miterlimit="10"
   x1="192"
   y1="0"
   x2="192"
   y2="512"
   id="line46"
   style="fill:none;stroke:#a9ccdb;stroke-miterlimit:10" />
		<line
   stroke-miterlimit="10"
   x1="224"
   y1="0"
   x2="224"
   y2="512"
   id="line48"
   style="fill:none;stroke:#a9ccdb;stroke-miterlimit:10" />
		<line
   stroke-miterlimit="10"
   x1="256"
   y1="0"
   x2="256"
   y2="512"
   id="line50"
   style="fill:none;stroke:#a9ccdb;stroke-miterlimit:10" />
		<line
   stroke-miterlimit="10"
   x1="288"
   y1="0"
   x2="288"
   y2="512"
   id="line52"
   style="fill:none;stroke:#a9ccdb;stroke-miterlimit:10" />
		<line
   stroke-miterlimit="10"
   x1="320"
   y1="0"
   x2="320"
   y2="512"
   id="line54"
   style="fill:none;stroke:#a9ccdb;stroke-miterlimit:10" />
		<line
   stroke-miterlimit="10"
   x1="352"
   y1="0"
   x2="352"
   y2="512"
   id="line56"
   style="fill:none;stroke:#a9ccdb;stroke-miterlimit:10" />
		<line
   stroke-miterlimit="10"
   x1="384"
   y1="0"
   x2="384"
   y2="512"
   id="line58"
   style="fill:none;stroke:#a9ccdb;stroke-miterlimit:10" />
		<line
   stroke-miterlimit="10"
   x1="416"
   y1="0"
   x2="416"
   y2="512"
   id="line60"
   style="fill:none;stroke:#a9ccdb;stroke-miterlimit:10" />
		<line
   stroke-miterlimit="10"
   x1="448"
   y1="0"
   x2="448"
   y2="512"
   id="line62"
   style="fill:none;stroke:#a9ccdb;stroke-miterlimit:10" />
		<line
   stroke-miterlimit="10"
   x1="480"
   y1="0"
   x2="480"
   y2="512"
   id="line64"
   style="fill:none;stroke:#a9ccdb;stroke-miterlimit:10" />
	</g> 


     <path
   glyph-name="u12000"
   unicode="𒀀"
   horiz-adv-x="746"
   d="m 454.04384,633.14117 c -6.0841,-1.72613 -3.14802,18.76776 -20.18332,15.31542 -14.2958,0 -33.56266,4.08366 -41.04285,6.48615 -6.69533,22.02086 -47.53956,27.3211 -65.11566,25.71022 -20.75723,-4.02173 -45.30143,4.69733 -62.6629,1.97642 -22.41585,-3.59076 -43.79032,-6.67671 -64.7,-13.8092 -19.74268,-6.73027 -41.25259,-16.01842 -56.61716,-14.37496 -29.7148,4.13539 -37.9091,2.1097 -57.255737,-11.34651 C 72.935467,632.381 63.823224,612.38076 66.995329,591.4475 c 3.22993,-16.58231 3.663588,-25.62922 12.433524,-37.6017 7.764373,-10.82936 9.933325,-15.29274 17.2078,-16.36517 14.546897,-2.14456 33.520287,9.27087 46.552437,10.4562 21.22484,1.83768 42.73756,2.03791 60.71434,2.11252 16.5288,10.89243 48.2209,17.45695 62.54127,17.91759 16.7381,0.5384 38.80763,-2.5715 60.3926,-6.65187 l 59.22466,-15.82975 c 24.6524,15.10559 26.92302,-0.69994 88.05212,-17.26431 16.17196,-7.0612 26.98561,-8.72062 41.32508,-16.15198 20.57541,-10.66311 39.17517,-9.17729 62.71339,-13.61519 22.62959,-3.40171 42.46821,-4.08839 62.80866,-4.40189 19.76548,-0.30464 43.84514,-8.00104 62.89998,-10.55266 19.27707,-2.58132 38.22609,-1.01847 61.02866,-6.16118 17.5127,-3.78283 31.72718,-1.22046 46.20248,1.27041 15.77728,4.19754 18.26762,-10.23696 31.42376,-7.03808 10.39422,2.64398 27.11995,11.33454 28.38595,20.03205 2.74076,17.26792 -0.60334,39.29558 -1.32164,46.38503 -2.16127,19.16367 -4.04722,49.6064 -25.92408,51.31664 -6.46738,0.47133 -12.14308,-2.42927 -13.85044,-1.9447 -3.4778,-1.28757 -10.24721,-2.03214 -13.29741,-3.78813 -12.2404,-7.04693 -37.34172,-19.16838 -50.63052,-15.76582 -35.8492,24.75738 -58.30581,12.25941 -93.22291,24.76892 -16.5811,6.17156 -16.73101,9.02401 -33.27381,13.11755 -13.3399,3.30097 -48.30099,1.7561 -61.11439,4.81935 -26.80832,3.65558 -38.88552,-0.59046 -62.61042,5.26814 -46.42452,11.4927 -50.08128,19.76969 -61.61258,17.3617 z m 54.77153,-335.06183 c -23.4695,-2.16211 -30.50798,11.22034 -51.11948,4.284 l -47.50414,3.55468 -60.54248,14.88191 -31.4789,-5.57769 c -10.6801,-4.13076 -25.7096,-3.4162 -36.7961,-3.24855 -17.23945,4.57007 -36.9244,-10.52365 -55.09524,-11.03438 -17.9196,-0.50367 -34.36667,-3.93619 -45.54356,-11.20133 -18.5631,5.05147 -24.27968,19.97575 -40.22948,13.81253 -1.3681,-1.28837 -17.97453,5.0834 -23.02683,7.29766 -10.5666,4.63096 -28.079916,3.01116 -32.352616,-0.88507 -15.6573,-14.27739 -2.605077,-55.80728 -5.327977,-66.49948 -1.4477,-7.43563 -0.89727,-13.86981 -0.89727,-26.52848 0,-12.65857 3.6504,-19.27557 10.9513,-19.85089 46.119203,-37.87568 83.631693,-26.49262 139.980703,-20.89316 10.72373,5.24505 20.42004,9.5406 29.41835,12.94016 20.53041,7.75639 37.42726,10.8486 54.603,9.91221 10.61324,-0.57861 28.87348,2.33157 40.62279,-1.17353 11.04684,-3.29554 25.51733,-0.27778 39.15169,-5.90312 16.91959,10.25996 23.07031,0.97539 38.97733,-0.0647 35.90568,-2.34777 70.29442,-26.72192 107.96334,-42.60093 19.8845,-5.8533 75.2073,-2.0811 96.778,-2.3077 25.1903,1.9052 93.7008,2.871 119.6268,2.3276 24.1079,-8.6034 73.0669,-5.79 86.0424,-0.3594 14.7687,6.1812 59.08454,8.48746 72.85877,37.75544 0.1557,48.76829 -6.80139,76.8577 -22.35086,81.44156 -33.18521,16.29096 -47.82321,-7.70898 -68.03991,-22.75016 -6.41092,12.80598 -20.60831,4.29554 -28.42343,1.65848 -9.74969,-3.28984 -13.76149,-3.03224 -28.88777,-5.58512 -10.73629,11.92744 -20.72944,8.81308 -26.67862,9.12611 -13.50654,0.71068 -16.61106,-12.23863 -34.54058,-14.28071 -18.6624,10.1541 -40.28207,8.58863 -61.01639,6.96631 -20.18005,-1.57894 -39.52144,-3.21174 -54.48156,5.85383 -26.75307,16.72334 -56.91062,46.48344 -82.64128,48.93195 z"
   id="path40"
   inkscape:connector-curvature="0"
   sodipodi:nodetypes="ccccccccccsccscccscsccccccccsccscccccccccsccsscsccssscscccscccscscsccc" />
             
</svg>