<?xml version="1.0" encoding="UTF-8" standalone="no"?>
<svg
   xmlns:dc="http://purl.org/dc/elements/1.1/"
   xmlns:cc="http://creativecommons.org/ns#"
   xmlns:rdf="http://www.w3.org/1999/02/22-rdf-syntax-ns#"
   xmlns:svg="http://www.w3.org/2000/svg"
   xmlns="http://www.w3.org/2000/svg"
   xmlns:sodipodi="http://sodipodi.sourceforge.net/DTD/sodipodi-0.dtd"
   xmlns:inkscape="http://www.inkscape.org/namespaces/inkscape"
   version="1.1"
   id="Layer_1"
   x="0px"
   y="0px"
   width="1000"
   height="1024"
   viewBox="0 0 1000 1024"
   enable-background="new 0 0 512 512"
   xml:space="preserve"
   inkscape:version="0.48.0 r9654"
   sodipodi:docname="e2-x1208d.svg"><title
   id="title3743">Mesopotamian Font</title><metadata
   id="metadata72"><rdf:RDF><cc:Work
       rdf:about=""><dc:format>image/svg+xml</dc:format><dc:type
         rdf:resource="http://purl.org/dc/dcmitype/StillImage" /><dc:title>Sinai 357</dc:title><dc:date>2017</dc:date><dc:creator><cc:Agent><dc:title>Celeste Claire Horner</dc:title></cc:Agent></dc:creator><dc:publisher><cc:Agent><dc:title>beitdina.net</dc:title></cc:Agent></dc:publisher></cc:Work></rdf:RDF></metadata><defs
   id="defs70" /><sodipodi:namedview
   pagecolor="#ffffff"
   bordercolor="#666666"
   borderopacity="1"
   objecttolerance="10"
   gridtolerance="10"
   guidetolerance="10"
   inkscape:pageopacity="0"
   inkscape:pageshadow="2"
   inkscape:window-width="1152"
   inkscape:window-height="814"
   id="namedview68"
   showgrid="false"
   inkscape:zoom="0.22988818"
   inkscape:cx="-523.25207"
   inkscape:cy="131.68862"
   inkscape:window-x="-8"
   inkscape:window-y="-8"
   inkscape:window-maximized="1"
   inkscape:current-layer="Layer_1" />
   
	<g
   id="Grid"
   transform="matrix(1.9502951,0,0,1.9942504,1.456297,2.4527424)">
		<rect
   x="0"
   stroke-miterlimit="10"
   width="512"
   height="512"
   id="rect4"
   y="0"
   style="fill:none;stroke:#a9ccdb;stroke-miterlimit:10" />
		<line
   stroke-miterlimit="10"
   x1="0"
   y1="32"
   x2="512"
   y2="32"
   id="line6"
   style="fill:none;stroke:#a9ccdb;stroke-miterlimit:10" />
		<line
   stroke-miterlimit="10"
   x1="0"
   y1="64"
   x2="512"
   y2="64"
   id="line8"
   style="fill:none;stroke:#a9ccdb;stroke-miterlimit:10" />
		<line
   stroke-miterlimit="10"
   x1="0"
   y1="96"
   x2="512"
   y2="96"
   id="line10"
   style="fill:none;stroke:#a9ccdb;stroke-miterlimit:10" />
		<line
   stroke-miterlimit="10"
   x1="0"
   y1="128"
   x2="512"
   y2="128"
   id="line12"
   style="fill:none;stroke:#a9ccdb;stroke-miterlimit:10" />
		<line
   stroke-miterlimit="10"
   x1="0"
   y1="160"
   x2="512"
   y2="160"
   id="line14"
   style="fill:none;stroke:#a9ccdb;stroke-miterlimit:10" />
		<line
   stroke-miterlimit="10"
   x1="0"
   y1="192"
   x2="512"
   y2="192"
   id="line16"
   style="fill:none;stroke:#a9ccdb;stroke-miterlimit:10" />
		<line
   stroke-miterlimit="10"
   x1="0"
   y1="224"
   x2="512"
   y2="224"
   id="line18"
   style="fill:none;stroke:#a9ccdb;stroke-miterlimit:10" />
		<line
   stroke-miterlimit="10"
   x1="0"
   y1="256"
   x2="512"
   y2="256"
   id="line20"
   style="fill:none;stroke:#a9ccdb;stroke-miterlimit:10" />
		<line
   stroke-miterlimit="10"
   x1="0"
   y1="288"
   x2="512"
   y2="288"
   id="line22"
   style="fill:none;stroke:#a9ccdb;stroke-miterlimit:10" />
		<line
   stroke-miterlimit="10"
   x1="0"
   y1="320"
   x2="512"
   y2="320"
   id="line24"
   style="fill:none;stroke:#a9ccdb;stroke-miterlimit:10" />
		<line
   stroke-miterlimit="10"
   x1="0"
   y1="352"
   x2="512"
   y2="352"
   id="line26"
   style="fill:none;stroke:#a9ccdb;stroke-miterlimit:10" />
		<line
   stroke-miterlimit="10"
   x1="0"
   y1="384"
   x2="512"
   y2="384"
   id="line28"
   style="fill:none;stroke:#a9ccdb;stroke-miterlimit:10" />
		<line
   stroke-miterlimit="10"
   x1="0"
   y1="416"
   x2="512"
   y2="416"
   id="line30"
   style="fill:none;stroke:#a9ccdb;stroke-miterlimit:10" />
		<line
   stroke-miterlimit="10"
   x1="0"
   y1="448"
   x2="512"
   y2="448"
   id="line32"
   style="fill:none;stroke:#ff0000;stroke-miterlimit:10" />
		<line
   stroke-miterlimit="10"
   x1="0"
   y1="480"
   x2="512"
   y2="480"
   id="line34"
   style="fill:none;stroke:#a9ccdb;stroke-miterlimit:10" />
		<line
   stroke-miterlimit="10"
   x1="32"
   y1="0"
   x2="32"
   y2="512"
   id="line36"
   style="fill:none;stroke:#a9ccdb;stroke-miterlimit:10" />
		<line
   stroke-miterlimit="10"
   x1="64"
   y1="0"
   x2="64"
   y2="512"
   id="line38"
   style="fill:none;stroke:#a9ccdb;stroke-miterlimit:10" />
		<line
   stroke-miterlimit="10"
   x1="96"
   y1="0"
   x2="96"
   y2="512"
   id="line40"
   style="fill:none;stroke:#a9ccdb;stroke-miterlimit:10" />
		<line
   stroke-miterlimit="10"
   x1="128"
   y1="0"
   x2="128"
   y2="512"
   id="line42"
   style="fill:none;stroke:#a9ccdb;stroke-miterlimit:10" />
		<line
   stroke-miterlimit="10"
   x1="160"
   y1="0"
   x2="160"
   y2="512"
   id="line44"
   style="fill:none;stroke:#a9ccdb;stroke-miterlimit:10" />
		<line
   stroke-miterlimit="10"
   x1="192"
   y1="0"
   x2="192"
   y2="512"
   id="line46"
   style="fill:none;stroke:#a9ccdb;stroke-miterlimit:10" />
		<line
   stroke-miterlimit="10"
   x1="224"
   y1="0"
   x2="224"
   y2="512"
   id="line48"
   style="fill:none;stroke:#a9ccdb;stroke-miterlimit:10" />
		<line
   stroke-miterlimit="10"
   x1="256"
   y1="0"
   x2="256"
   y2="512"
   id="line50"
   style="fill:none;stroke:#a9ccdb;stroke-miterlimit:10" />
		<line
   stroke-miterlimit="10"
   x1="288"
   y1="0"
   x2="288"
   y2="512"
   id="line52"
   style="fill:none;stroke:#a9ccdb;stroke-miterlimit:10" />
		<line
   stroke-miterlimit="10"
   x1="320"
   y1="0"
   x2="320"
   y2="512"
   id="line54"
   style="fill:none;stroke:#a9ccdb;stroke-miterlimit:10" />
		<line
   stroke-miterlimit="10"
   x1="352"
   y1="0"
   x2="352"
   y2="512"
   id="line56"
   style="fill:none;stroke:#a9ccdb;stroke-miterlimit:10" />
		<line
   stroke-miterlimit="10"
   x1="384"
   y1="0"
   x2="384"
   y2="512"
   id="line58"
   style="fill:none;stroke:#a9ccdb;stroke-miterlimit:10" />
		<line
   stroke-miterlimit="10"
   x1="416"
   y1="0"
   x2="416"
   y2="512"
   id="line60"
   style="fill:none;stroke:#a9ccdb;stroke-miterlimit:10" />
		<line
   stroke-miterlimit="10"
   x1="448"
   y1="0"
   x2="448"
   y2="512"
   id="line62"
   style="fill:none;stroke:#a9ccdb;stroke-miterlimit:10" />
		<line
   stroke-miterlimit="10"
   x1="480"
   y1="0"
   x2="480"
   y2="512"
   id="line64"
   style="fill:none;stroke:#a9ccdb;stroke-miterlimit:10" />
	</g>
     
  <path
   style="fill:#000000"
   d="m 140.41677,882.80899 -3.0734,-2.75 -0.1923,-246.74999 -0.1924,-246.74999 279,-4e-5 279.00002,-3e-5 -0.24285,246.75002 -0.24286,246.75003 -3.02292,2.75 c -4.11063,3.7395 -8.06275,3.64231 -11.36269,-0.27944 -1.402,-1.66619 -2.77598,-4.47869 -3.05328,-6.25 -1.14298,-7.30108 -1.53593,-74.75805 -1.55514,-266.97056 l -0.0203,-202.75 -18.04818,0 -18.04818,0 0.14975,236.71465 0.14976,236.71464 -3.11735,2.78536 c -4.22683,3.77667 -8.14871,3.68774 -11.47061,-0.26012 -1.40942,-1.67501 -2.98228,-4.71251 -3.49523,-6.75 -0.71553,-2.84213 -2.11698,-261.32646 -2.11968,-390.95453 l -2.8e-4,-13.25 -16.84457,0 -16.84457,0 -0.56843,67.25 c -0.31264,36.9875 -0.31279,128.01168 -3.4e-4,202.27595 0.43363,103.06623 0.28768,135.54991 -0.61664,137.23965 -2.96593,5.54188 -11.63123,6.51828 -16.05528,1.80909 l -2.2497,-2.39469 0.0603,-158.84 c 0.0332,-87.362 -0.20431,-162.1025 -0.52772,-166.09 l -0.58801,-7.25 -15.99422,0 -15.9943,0 0.7225,165.48925 0.7225,165.48925 -3.5767,3.57665 c -4.7969,4.79691 -8.6639,4.53075 -13.0442,-0.89782 l -3.1006,-3.84266 -0.2613,-126.90734 -0.2613,-126.90733 -98.4774,0 -98.4774,0 -0.2613,126.90733 -0.2613,126.90734 -3.1006,3.84266 c -4.3803,5.42857 -8.2473,5.69473 -13.0442,0.89782 l -3.5767,-3.57665 0.7225,-165.48925 0.7225,-165.48925 -15.9943,0 -15.9942,0 -0.5881,7.25 c -0.3234,3.9875 -0.5608,78.728 -0.5277,166.09 l 0.06,158.84 -2.2497,2.39469 c -4.424,4.70919 -13.0893,3.73279 -16.0553,-1.80909 -0.9043,-1.68974 -1.0502,-34.17342 -0.6166,-137.23965 0.3124,-74.26427 0.3123,-165.28845 -3e-4,-202.27595 l -0.5685,-67.25 -16.8445,0 -16.8446,0 -3e-4,13.25 c 0,129.62807 -1.4041,388.1124 -2.1197,390.95453 -0.5129,2.03749 -2.0858,5.07499 -3.4952,6.75 -3.322,3.94799 -7.2438,4.0368 -11.471,0.25976 l -3.1177,-2.78571 0.1146,-235.46429 c 0.063,-129.50536 -0.2619,-236.03776 -0.7221,-236.73866 -0.6362,-0.96888 -4.9554,-1.2086 -18.0178,-1 l -17.1811,0.27437 -0.2681,234 c -0.2162,188.70328 -0.5185,234.58073 -1.5615,237 -3.3352,7.73639 -8.8158,9.5694 -14.202,4.75 z m 374.0419,-308.75 0,-28.5 -98.5,0 -98.5,0 0,28.5 0,28.5 98.5,0 98.5,0 0,-28.5 z m 49.75002,-50.13029 2.25,-0.60297 0,-26.88337 0,-26.88337 -150.50002,0 -150.5,0 0,26.92668 c 0,24.80356 0.138,26.96273 1.75,27.38399 2.6541,0.69361 294.41572,0.7516 297.00002,0.059 z m 46.86329,-73.36442 9.11328,-0.005 0.72214,-20.87678 c 0.52957,-15.30968 0.41019,-21.3763 -0.4477,-22.75 -1.13723,-1.82098 -6.84005,-1.87322 -204.50103,-1.87322 -197.661,0 -203.3638,0.0522 -204.501,1.87322 -0.8577,1.37345 -0.9775,7.43382 -0.4489,22.71542 l 0.7209,20.8422 9.6145,0.28458 c 5.288,0.15652 93.0895,0.17446 195.1145,0.0399 102.025,-0.13459 189.601,-0.24709 194.61331,-0.25 z"
   id="path4533"
   inkscape:connector-curvature="0" /></svg>