<?xml version="1.0" encoding="UTF-8" standalone="no"?>
<svg
   xmlns:dc="http://purl.org/dc/elements/1.1/"
   xmlns:cc="http://creativecommons.org/ns#"
   xmlns:rdf="http://www.w3.org/1999/02/22-rdf-syntax-ns#"
   xmlns:svg="http://www.w3.org/2000/svg"
   xmlns="http://www.w3.org/2000/svg"
   xmlns:sodipodi="http://sodipodi.sourceforge.net/DTD/sodipodi-0.dtd"
   xmlns:inkscape="http://www.inkscape.org/namespaces/inkscape"
   version="1.1"
   id="Layer_1"
   x="0px"
   y="0px"
   width="1000"
   height="1024"
   viewBox="0 0 1000 1024"
   enable-background="new 0 0 512 512"
   xml:space="preserve"
   inkscape:version="0.48.0 r9654"
   sodipodi:docname="e2-x1208d.svg"><title
   id="title3743">Mesopotamian Font</title><metadata
   id="metadata72"><rdf:RDF><cc:Work
       rdf:about=""><dc:format>image/svg+xml</dc:format><dc:type
         rdf:resource="http://purl.org/dc/dcmitype/StillImage" /><dc:title>Sinai 357</dc:title><dc:date>2017</dc:date><dc:creator><cc:Agent><dc:title>Celeste Claire Horner</dc:title></cc:Agent></dc:creator><dc:publisher><cc:Agent><dc:title>beitdina.net</dc:title></cc:Agent></dc:publisher></cc:Work></rdf:RDF></metadata><defs
   id="defs70" /><sodipodi:namedview
   pagecolor="#ffffff"
   bordercolor="#666666"
   borderopacity="1"
   objecttolerance="10"
   gridtolerance="10"
   guidetolerance="10"
   inkscape:pageopacity="0"
   inkscape:pageshadow="2"
   inkscape:window-width="1152"
   inkscape:window-height="814"
   id="namedview68"
   showgrid="false"
   inkscape:zoom="0.33168586"
   inkscape:cx="-402.56164"
   inkscape:cy="644.53414"
   inkscape:window-x="-8"
   inkscape:window-y="-8"
   inkscape:window-maximized="1"
   inkscape:current-layer="Layer_1" />
   
	<g
   id="Grid"
   transform="matrix(1.9502951,0,0,1.9942504,1.456297,2.45274)">
		<rect
   x="0"
   stroke-miterlimit="10"
   width="512"
   height="512"
   id="rect4"
   y="0"
   style="fill:none;stroke:#a9ccdb;stroke-miterlimit:10" />
		<line
   stroke-miterlimit="10"
   x1="0"
   y1="32"
   x2="512"
   y2="32"
   id="line6"
   style="fill:none;stroke:#a9ccdb;stroke-miterlimit:10" />
		<line
   stroke-miterlimit="10"
   x1="0"
   y1="64"
   x2="512"
   y2="64"
   id="line8"
   style="fill:none;stroke:#a9ccdb;stroke-miterlimit:10" />
		<line
   stroke-miterlimit="10"
   x1="0"
   y1="96"
   x2="512"
   y2="96"
   id="line10"
   style="fill:none;stroke:#a9ccdb;stroke-miterlimit:10" />
		<line
   stroke-miterlimit="10"
   x1="0"
   y1="128"
   x2="512"
   y2="128"
   id="line12"
   style="fill:none;stroke:#a9ccdb;stroke-miterlimit:10" />
		<line
   stroke-miterlimit="10"
   x1="0"
   y1="160"
   x2="512"
   y2="160"
   id="line14"
   style="fill:none;stroke:#a9ccdb;stroke-miterlimit:10" />
		<line
   stroke-miterlimit="10"
   x1="0"
   y1="192"
   x2="512"
   y2="192"
   id="line16"
   style="fill:none;stroke:#a9ccdb;stroke-miterlimit:10" />
		<line
   stroke-miterlimit="10"
   x1="0"
   y1="224"
   x2="512"
   y2="224"
   id="line18"
   style="fill:none;stroke:#a9ccdb;stroke-miterlimit:10" />
		<line
   stroke-miterlimit="10"
   x1="0"
   y1="256"
   x2="512"
   y2="256"
   id="line20"
   style="fill:none;stroke:#a9ccdb;stroke-miterlimit:10" />
		<line
   stroke-miterlimit="10"
   x1="0"
   y1="288"
   x2="512"
   y2="288"
   id="line22"
   style="fill:none;stroke:#a9ccdb;stroke-miterlimit:10" />
		<line
   stroke-miterlimit="10"
   x1="0"
   y1="320"
   x2="512"
   y2="320"
   id="line24"
   style="fill:none;stroke:#a9ccdb;stroke-miterlimit:10" />
		<line
   stroke-miterlimit="10"
   x1="0"
   y1="352"
   x2="512"
   y2="352"
   id="line26"
   style="fill:none;stroke:#a9ccdb;stroke-miterlimit:10" />
		<line
   stroke-miterlimit="10"
   x1="0"
   y1="384"
   x2="512"
   y2="384"
   id="line28"
   style="fill:none;stroke:#a9ccdb;stroke-miterlimit:10" />
		<line
   stroke-miterlimit="10"
   x1="0"
   y1="416"
   x2="512"
   y2="416"
   id="line30"
   style="fill:none;stroke:#a9ccdb;stroke-miterlimit:10" />
		<line
   stroke-miterlimit="10"
   x1="0"
   y1="448"
   x2="512"
   y2="448"
   id="line32"
   style="fill:none;stroke:#ff0000;stroke-miterlimit:10" />
		<line
   stroke-miterlimit="10"
   x1="0"
   y1="480"
   x2="512"
   y2="480"
   id="line34"
   style="fill:none;stroke:#a9ccdb;stroke-miterlimit:10" />
		<line
   stroke-miterlimit="10"
   x1="32"
   y1="0"
   x2="32"
   y2="512"
   id="line36"
   style="fill:none;stroke:#a9ccdb;stroke-miterlimit:10" />
		<line
   stroke-miterlimit="10"
   x1="64"
   y1="0"
   x2="64"
   y2="512"
   id="line38"
   style="fill:none;stroke:#a9ccdb;stroke-miterlimit:10" />
		<line
   stroke-miterlimit="10"
   x1="96"
   y1="0"
   x2="96"
   y2="512"
   id="line40"
   style="fill:none;stroke:#a9ccdb;stroke-miterlimit:10" />
		<line
   stroke-miterlimit="10"
   x1="128"
   y1="0"
   x2="128"
   y2="512"
   id="line42"
   style="fill:none;stroke:#a9ccdb;stroke-miterlimit:10" />
		<line
   stroke-miterlimit="10"
   x1="160"
   y1="0"
   x2="160"
   y2="512"
   id="line44"
   style="fill:none;stroke:#a9ccdb;stroke-miterlimit:10" />
		<line
   stroke-miterlimit="10"
   x1="192"
   y1="0"
   x2="192"
   y2="512"
   id="line46"
   style="fill:none;stroke:#a9ccdb;stroke-miterlimit:10" />
		<line
   stroke-miterlimit="10"
   x1="224"
   y1="0"
   x2="224"
   y2="512"
   id="line48"
   style="fill:none;stroke:#a9ccdb;stroke-miterlimit:10" />
		<line
   stroke-miterlimit="10"
   x1="256"
   y1="0"
   x2="256"
   y2="512"
   id="line50"
   style="fill:none;stroke:#a9ccdb;stroke-miterlimit:10" />
		<line
   stroke-miterlimit="10"
   x1="288"
   y1="0"
   x2="288"
   y2="512"
   id="line52"
   style="fill:none;stroke:#a9ccdb;stroke-miterlimit:10" />
		<line
   stroke-miterlimit="10"
   x1="320"
   y1="0"
   x2="320"
   y2="512"
   id="line54"
   style="fill:none;stroke:#a9ccdb;stroke-miterlimit:10" />
		<line
   stroke-miterlimit="10"
   x1="352"
   y1="0"
   x2="352"
   y2="512"
   id="line56"
   style="fill:none;stroke:#a9ccdb;stroke-miterlimit:10" />
		<line
   stroke-miterlimit="10"
   x1="384"
   y1="0"
   x2="384"
   y2="512"
   id="line58"
   style="fill:none;stroke:#a9ccdb;stroke-miterlimit:10" />
		<line
   stroke-miterlimit="10"
   x1="416"
   y1="0"
   x2="416"
   y2="512"
   id="line60"
   style="fill:none;stroke:#a9ccdb;stroke-miterlimit:10" />
		<line
   stroke-miterlimit="10"
   x1="448"
   y1="0"
   x2="448"
   y2="512"
   id="line62"
   style="fill:none;stroke:#a9ccdb;stroke-miterlimit:10" />
		<line
   stroke-miterlimit="10"
   x1="480"
   y1="0"
   x2="480"
   y2="512"
   id="line64"
   style="fill:none;stroke:#a9ccdb;stroke-miterlimit:10" />
	</g>
     <path
   style="fill:#030303"
   d="m 69.242311,624.80021 c -1.6158,-1.2185 -3.2745,-2.681 -3.68599,-3.25 -0.4115,-0.569 -0.7552,-111.84696 -0.76377,-247.28446 l -0.0156,-246.25004 284.121459,0 284.12145,0 0,246.39645 0,246.39645 -3.59969,3.1035 c -1.97981,1.707 -4.39828,3.1036 -5.37436,3.1036 -2.62234,0 -6.07433,-2.693 -8.08923,-6.3107 -1.67052,-2.9993 -1.81062,-17.1565 -2.35229,-237.68926 -0.3168,-128.975 -1.72642,-237.27736 -1.8297,-237.41486 -0.10329,-0.1375 -8.41361,-0.25 -18.46738,-0.25 l -18.27962,0 1.68947,239.41646 0.62354,236.75156 -4.2942,2.9223 c -3.52782,2.4007 -4.76551,2.7573 -6.93505,1.9984 -4.19019,-1.4659 -6.77288,-5.7946 -7.57822,-12.7014 -0.39903,-3.4224 -1.00039,-88.57246 -1.33635,-189.22246 -1.11233,-71.55133 0.62047,-143.17084 -1.78375,-214.69779 -11.73267,0 -23.46534,0 -35.19801,0 -1.56909,81.75137 -1.40628,168.46498 -1.41995,239.00362 -10e-4,44.05498 0.0427,87.21097 0.0625,127.91071 0.007,13.96056 0.0112,28.24623 0.0112,42.93482 l -2.2913,2.1031 c -3.90831,3.5873 -10.50426,2.87494 -14.37271,-0.92376 -2.16238,-13.99751 -0.61828,-29.7286 -0.49739,-44.1251 0.32173,-44.62216 -0.008,-86.55336 -0.0703,-129.49792 -0.0233,-86.41246 -0.29876,-156.75661 -0.62655,-157.95768 -0.60405,-2.21334 -0.87707,-2.25 -16.7551,-2.25 l -16.14107,0 0.47336,80.75 c 0.26035,44.4125 0.68726,118.81457 0.94867,165.33792 l 0.47531,84.58794 -3.27383,3.0929 c -1.80063,1.7011 -4.53745,3.3986 -6.08185,3.7723 -2.37114,0.5738 -3.44056,0.058 -6.87391,-3.3132 l -4.0659,-3.9926 0,-114.96061 c -0.9611,-46.4015 1.20706,-92.91608 -1.33135,-139.27465 l -99.48594,0 -99.48594,0 -0.66567,12.157 c -0.36613,6.68635 -0.66568,63.88929 -0.66568,127.11765 l 0,114.96061 -4.0659,3.9926 c -3.43335,3.3715 -4.50277,3.887 -6.87391,3.3132 -1.5444,-0.3737 -4.28122,-2.0712 -6.08185,-3.7723 l -3.27383,-3.0929 0.47531,-84.58794 c 0.26141,-46.52335 0.68832,-120.92542 0.94867,-165.33792 l 0.47336,-80.75 -16.14107,0 c -15.87803,0 -16.15106,0.0367 -16.7551,2.25 -0.33773,1.2375 -0.62031,75.87614 -0.62796,165.86364 l -0.0138,163.61362 -2.68476,2.6364 c -3.86845,3.7987 -10.4644,3.9781 -14.37271,0.3908 l -2.2913,-2.1031 0,-174.66298 c 0.14002,-77.15452 1.16999,-156.17089 0.78562,-233.32079 -11.83142,-0.48905 -23.64028,-0.11469 -35.46448,0.26648 l -0.31999,15.31593 c -0.16385,7.84242 -0.86133,96.6 -1.19728,197.25 -0.33596,100.65 -0.93732,185.80006 -1.33635,189.22246 -0.80534,6.9068 -3.38802,11.2355 -7.57822,12.7014 -2.15929,0.7554 -3.39378,0.4114 -6.76988,-1.886 l -4.12903,-2.8099 0,-236.24733 0,-236.24737 -2.2913,-0.603 c -1.26021,-0.3316 -9.22249,-0.6091 -17.69394,-0.6166 l -15.402659,-0.014 -0.63647,3.125 c -0.35006,1.7187 -0.63647,98.39618 -0.63647,214.83875 0,116.44257 -0.30344,221.28166 -0.67432,232.97575 l -0.67431,21.262 -3.26477,3.3992 c -3.80838,3.9653 -6.214,4.2426 -10.27002,1.1838 z m 379.455039,-337.78446 -99.79893,0 -99.79894,0 0,28.5 0,28.5 99.79894,0 99.79893,0 c 0,-19 0,-38 0,-57 z m -145.50296,-27.75 c 0.0671,-3.7125 1.02886,-16.76098 0.76377,-29.00157 l -0.42418,-19.58674 c -36.04214,-1.96266 -72.8575,1.01076 -107.16827,1.40431 0.57895,17.62034 -0.22077,35.24407 -0.22077,52.8706 22.72115,0.63835 46.06353,0.74448 65.42941,0.84844 l 41.49803,0.21503 0.12201,-6.75 z m 83.58625,-21 c 0.21772,-15.2625 0.14654,-29.64775 -0.15818,-30.01303 -0.30472,-0.36527 -15.56206,0.60978 -33.9052,0.21258 l -33.35118,-0.72218 c 0,19.42421 0,38.84842 0,58.27263 l 33.50935,0 33.50935,0 z m 100.96242,27.09497 13.90883,-0.65503 c 0.20577,-18.43398 -0.18765,-36.85981 -0.53296,-55.28883 -33.48646,0.13719 -68.97666,0.90315 -97.22926,0.27648 l 0,27.57777 c 0,21.12655 -0.29778,27.69576 -1.27294,28.08216 -1.90708,0.75565 69.10649,0.7617 85.12633,0.007 z M 245.93441,171.02259 c -0.14015,-11.96134 -0.49116,-23.51534 -0.79527,-24.29354 -18.84783,0.84947 -38.44462,-0.39613 -57.07995,-0.17074 -8.28038,0.0993 -17.58628,-0.11482 -25.62587,0.23335 -7.90639,0.3424 -14.55094,1.25341 -22.16565,0.62476 0.01,14.9889 0.026,31.41178 1.06886,44.59933 l 46.9556,5.5e-4 57.88461,-0.31165 z m 191.32555,-1.75684 -0.27371,-22.75004 -85.26649,-0.2557 -88.51,0.27726 c 0.5514,15.38573 -0.25549,31.97835 0.60828,44.94672 l 87.39075,0.53236 86.32484,-6e-4 z m 119.86478,14.5 c 0.36543,-4.5375 0.52114,-14.99861 0.34601,-23.2469 l -0.31843,-14.99694 c -19.11346,0.0785 -38.2071,-1.30096 -56.63707,-0.55684 -8.32108,1.57802 -43.34856,-0.4215 -45.78996,1.85385 -0.2646,1.1538 0.99935,13.03483 0.85458,24.44795 l -0.2632,20.75111 50.57182,-0.001 50.57181,-10e-4 0.66444,-8.25 z"
   id="path3756"
   inkscape:connector-curvature="0"
   sodipodi:nodetypes="cssccccccssscscccscsccccccscccsscsscscccccccsscscscsscssscssccccsssscccccccssscscccccccccccscccccccscsccccsccccssccsccsccccscccccccccscccsccccc" /></svg>