<?xml version="1.0" encoding="UTF-8" standalone="no"?>
<svg
   xmlns:dc="http://purl.org/dc/elements/1.1/"
   xmlns:cc="http://creativecommons.org/ns#"
   xmlns:rdf="http://www.w3.org/1999/02/22-rdf-syntax-ns#"
   xmlns:svg="http://www.w3.org/2000/svg"
   xmlns="http://www.w3.org/2000/svg"
   xmlns:sodipodi="http://sodipodi.sourceforge.net/DTD/sodipodi-0.dtd"
   xmlns:inkscape="http://www.inkscape.org/namespaces/inkscape"
   version="1.1"
   id="Layer_1"
   x="0px"
   y="0px"
   width="1000"
   height="1024"
   viewBox="0 0 1000 1024"
   enable-background="new 0 0 512 512"
   xml:space="preserve"
   inkscape:version="0.48.0 r9654"
   sodipodi:docname="gud-x1211e.svg"><title
   id="title3743">Mesopotamian Font</title><metadata
   id="metadata72"><rdf:RDF><cc:Work
       rdf:about=""><dc:format>image/svg+xml</dc:format><dc:type
         rdf:resource="http://purl.org/dc/dcmitype/StillImage" /><dc:title>Sinai 357</dc:title><dc:date>2017</dc:date><dc:creator><cc:Agent><dc:title>Celeste Claire Horner</dc:title></cc:Agent></dc:creator><dc:publisher><cc:Agent><dc:title>beitdina.net</dc:title></cc:Agent></dc:publisher></cc:Work></rdf:RDF></metadata><defs
   id="defs70" /><sodipodi:namedview
   pagecolor="#ffffff"
   bordercolor="#666666"
   borderopacity="1"
   objecttolerance="10"
   gridtolerance="10"
   guidetolerance="10"
   inkscape:pageopacity="0"
   inkscape:pageshadow="2"
   inkscape:window-width="923"
   inkscape:window-height="679"
   id="namedview68"
   showgrid="false"
   inkscape:zoom="0.3978504"
   inkscape:cx="359.3928"
   inkscape:cy="538.54177"
   inkscape:window-x="154"
   inkscape:window-y="88"
   inkscape:window-maximized="0"
   inkscape:current-layer="Layer_1" />
   
	<g
   id="Grid"
   transform="matrix(1.9070913,0,0,2.0358291,11.554725,2.4725107)">
		<rect
   x="0"
   stroke-miterlimit="10"
   width="512"
   height="512"
   id="rect4"
   y="0"
   style="fill:none;stroke:#a9ccdb;stroke-miterlimit:10" />
		<line
   stroke-miterlimit="10"
   x1="0"
   y1="32"
   x2="512"
   y2="32"
   id="line6"
   style="fill:none;stroke:#a9ccdb;stroke-miterlimit:10" />
		<line
   stroke-miterlimit="10"
   x1="0"
   y1="64"
   x2="512"
   y2="64"
   id="line8"
   style="fill:none;stroke:#a9ccdb;stroke-miterlimit:10" />
		<line
   stroke-miterlimit="10"
   x1="0"
   y1="96"
   x2="512"
   y2="96"
   id="line10"
   style="fill:none;stroke:#a9ccdb;stroke-miterlimit:10" />
		<line
   stroke-miterlimit="10"
   x1="0"
   y1="128"
   x2="512"
   y2="128"
   id="line12"
   style="fill:none;stroke:#a9ccdb;stroke-miterlimit:10" />
		<line
   stroke-miterlimit="10"
   x1="0"
   y1="160"
   x2="512"
   y2="160"
   id="line14"
   style="fill:none;stroke:#a9ccdb;stroke-miterlimit:10" />
		<line
   stroke-miterlimit="10"
   x1="0"
   y1="192"
   x2="512"
   y2="192"
   id="line16"
   style="fill:none;stroke:#a9ccdb;stroke-miterlimit:10" />
		<line
   stroke-miterlimit="10"
   x1="0"
   y1="224"
   x2="512"
   y2="224"
   id="line18"
   style="fill:none;stroke:#a9ccdb;stroke-miterlimit:10" />
		<line
   stroke-miterlimit="10"
   x1="0"
   y1="256"
   x2="512"
   y2="256"
   id="line20"
   style="fill:none;stroke:#a9ccdb;stroke-miterlimit:10" />
		<line
   stroke-miterlimit="10"
   x1="0"
   y1="288"
   x2="512"
   y2="288"
   id="line22"
   style="fill:none;stroke:#a9ccdb;stroke-miterlimit:10" />
		<line
   stroke-miterlimit="10"
   x1="0"
   y1="320"
   x2="512"
   y2="320"
   id="line24"
   style="fill:none;stroke:#a9ccdb;stroke-miterlimit:10" />
		<line
   stroke-miterlimit="10"
   x1="0"
   y1="352"
   x2="512"
   y2="352"
   id="line26"
   style="fill:none;stroke:#a9ccdb;stroke-miterlimit:10" />
		<line
   stroke-miterlimit="10"
   x1="0"
   y1="384"
   x2="512"
   y2="384"
   id="line28"
   style="fill:none;stroke:#a9ccdb;stroke-miterlimit:10" />
		<line
   stroke-miterlimit="10"
   x1="0"
   y1="416"
   x2="512"
   y2="416"
   id="line30"
   style="fill:none;stroke:#a9ccdb;stroke-miterlimit:10" />
		<line
   stroke-miterlimit="10"
   x1="0"
   y1="448"
   x2="512"
   y2="448"
   id="line32"
   style="fill:none;stroke:#ff0000;stroke-miterlimit:10" />
		<line
   stroke-miterlimit="10"
   x1="0"
   y1="480"
   x2="512"
   y2="480"
   id="line34"
   style="fill:none;stroke:#a9ccdb;stroke-miterlimit:10" />
		<line
   stroke-miterlimit="10"
   x1="32"
   y1="0"
   x2="32"
   y2="512"
   id="line36"
   style="fill:none;stroke:#a9ccdb;stroke-miterlimit:10" />
		<line
   stroke-miterlimit="10"
   x1="64"
   y1="0"
   x2="64"
   y2="512"
   id="line38"
   style="fill:none;stroke:#a9ccdb;stroke-miterlimit:10" />
		<line
   stroke-miterlimit="10"
   x1="96"
   y1="0"
   x2="96"
   y2="512"
   id="line40"
   style="fill:none;stroke:#a9ccdb;stroke-miterlimit:10" />
		<line
   stroke-miterlimit="10"
   x1="128"
   y1="0"
   x2="128"
   y2="512"
   id="line42"
   style="fill:none;stroke:#a9ccdb;stroke-miterlimit:10" />
		<line
   stroke-miterlimit="10"
   x1="160"
   y1="0"
   x2="160"
   y2="512"
   id="line44"
   style="fill:none;stroke:#a9ccdb;stroke-miterlimit:10" />
		<line
   stroke-miterlimit="10"
   x1="192"
   y1="0"
   x2="192"
   y2="512"
   id="line46"
   style="fill:none;stroke:#a9ccdb;stroke-miterlimit:10" />
		<line
   stroke-miterlimit="10"
   x1="224"
   y1="0"
   x2="224"
   y2="512"
   id="line48"
   style="fill:none;stroke:#a9ccdb;stroke-miterlimit:10" />
		<line
   stroke-miterlimit="10"
   x1="256"
   y1="0"
   x2="256"
   y2="512"
   id="line50"
   style="fill:none;stroke:#a9ccdb;stroke-miterlimit:10" />
		<line
   stroke-miterlimit="10"
   x1="288"
   y1="0"
   x2="288"
   y2="512"
   id="line52"
   style="fill:none;stroke:#a9ccdb;stroke-miterlimit:10" />
		<line
   stroke-miterlimit="10"
   x1="320"
   y1="0"
   x2="320"
   y2="512"
   id="line54"
   style="fill:none;stroke:#a9ccdb;stroke-miterlimit:10" />
		<line
   stroke-miterlimit="10"
   x1="352"
   y1="0"
   x2="352"
   y2="512"
   id="line56"
   style="fill:none;stroke:#a9ccdb;stroke-miterlimit:10" />
		<line
   stroke-miterlimit="10"
   x1="384"
   y1="0"
   x2="384"
   y2="512"
   id="line58"
   style="fill:none;stroke:#a9ccdb;stroke-miterlimit:10" />
		<line
   stroke-miterlimit="10"
   x1="416"
   y1="0"
   x2="416"
   y2="512"
   id="line60"
   style="fill:none;stroke:#a9ccdb;stroke-miterlimit:10" />
		<line
   stroke-miterlimit="10"
   x1="448"
   y1="0"
   x2="448"
   y2="512"
   id="line62"
   style="fill:none;stroke:#a9ccdb;stroke-miterlimit:10" />
		<line
   stroke-miterlimit="10"
   x1="480"
   y1="0"
   x2="480"
   y2="512"
   id="line64"
   style="fill:none;stroke:#a9ccdb;stroke-miterlimit:10" />
	</g>
<path
   style="fill:#5e5e5e"
   d="m 381.81824,977.84732 c -12.6376,-1.1163 -17.3304,-2.4597 -22.0358,-6.3081 -8.0012,-6.5438 -17.1646,-20.99555 -21.2872,-33.5723 -1.7563,-5.35789 -1.7852,-13.46313 -0.2182,-61.24692 0.098,-2.97735 -0.7228,-4.64118 -4.4379,-9 -6.0306,-7.07565 -7.2101,-9.59753 -9.7573,-20.86226 -2.7376,-12.10723 -5.5783,-18.17809 -13.2577,-28.33351 -7.7329,-10.22609 -11.3553,-18.08726 -17.3498,-37.65162 -2.612,-8.525 -6.6947,-20.55404 -9.0726,-26.73121 -2.3779,-6.17716 -5.6908,-15.96336 -7.362,-21.74711 -5.6694,-19.62048 -12.1354,-35.96523 -22.558,-57.02168 -5.717,-11.55 -11.13,-23.475 -12.0287,-26.5 -2.2649,-7.62348 -3.0399,-26.14068 -1.4949,-35.71805 0.6867,-4.25716 2.5493,-11.26786 4.139,-15.57934 1.5896,-4.31147 2.8903,-7.99967 2.8903,-8.19599 0,-0.19631 -3.2714,-0.37401 -7.2697,-0.39489 -10.3178,-0.0539 -17.7965,-2.90567 -27.7303,-10.5743 -8.1899,-6.3224 -18.2128,-8.06576 -60.5,-10.52335 -38.8619,-2.25851 -56.964098,-4.97505 -77.499998,-11.63016 -19.2687,-6.24445 -23.664,-8.67704 -28.3458,-15.68786 -2.4288,-3.63721 -6.5087,-7.72837 -11.0739,-11.10443 -8.7686,-6.48469 -11.5041,-11.72095 -12.3167,-23.576 -1.1692,-17.0585 5.5335,-26.47039 26.628,-37.39112 9.934,-5.1429 12.7369,-6.11038 22.4788,-7.75929 18.0949,-3.06275 36.555698,-8.17623 62.129598,-17.20942 26.3096,-9.29305 49.6013,-12.52363 66.662,-9.24611 9.8262,1.8877 16.0177,4.45295 27.615,11.44143 5.3477,3.22245 11.8929,6.81324 14.545,7.97954 5.6879,2.50135 15.2206,11.43213 28.467,26.66934 15.0026,17.25736 19.313,21.45541 25.211,24.55409 3.025,1.58926 6.739,3.68236 8.2533,4.65133 l 2.7532,1.76176 4.6315,-4.63146 4.6314,-4.63146 -6.0119,-6.98513 c -7.0626,-8.20588 -15.6319,-23.06906 -20.5938,-35.71913 -4.228,-10.77932 -11.1919,-34.55661 -13.2614,-45.27947 -7.9062,-40.96591 -6.5798,-128.27575 2.4883,-163.79201 4.8064,-18.82469 13.2963,-39.44807 27.5521,-66.92852 20.1376,-38.8186 41.8169,-71.45819 59.371,-89.386859 7.116,-7.2679 11.0645,-9.4142 15.7142,-8.5419 l 3.4721,0.6513 0,5.6087 c 0,3.0848 -1.7797,15.072229 -3.9549,26.638739 -4.3579,23.17296 -9.7809,59.70842 -13.2147,89.03002 -1.8926,16.16139 -2.2329,24.37842 -2.2777,55 -0.056,38.28619 0.6619,48.11786 4.9652,68 2.9422,13.59346 32.0837,126.43491 32.8499,127.20108 0.3055,0.30554 4.9602,-0.0146 10.3438,-0.7115 8.2542,-1.06844 49.2169,-1.57607 58.2406,-0.72174 2.4223,0.22934 2.6198,-0.41209 16.2438,-52.76784 21.1468,-81.26519 23.3378,-92.47182 24.4394,-125 1.3992,-41.31683 -4.2195,-97.90765 -16.1997,-163.1602 -2.4396,-13.28816 -4.4357,-25.534759 -4.4357,-27.214859 0,-3.3516 2.1887,-5.1249 6.3251,-5.1249 12.8359,0 49.8451,51.630969 78.0714,108.916549 10.3687,21.04319 18.5278,40.91198 21.4967,52.34796 5.7051,21.9756 8.199,50.73303 8.2085,94.65255 0.011,49.90313 -2.898,72.3846 -13.5337,104.60083 -6.0675,18.37891 -11.4081,30.41119 -17.4417,39.29603 -2.2694,3.34197 -4.1263,6.49633 -4.1263,7.0097 0,0.51336 2.4573,3.03269 5.4606,5.5985 l 5.4605,4.6651 5.4439,-4.43409 c 7.9474,-6.47327 26.968,-13.24444 57.63541,-20.51775 16.1628,-3.8333 23.6482,-6.70739 38.8576,-14.91974 14.0836,-7.60442 19.4485,-12.07909 30.142,-25.14034 14.0647,-17.17876 44.4609,-36.69444 65.5558,-42.08961 9.4993,-2.4295 21.31489,-2.62106 25.58149,-0.41473 1.9151,0.99034 3.8311,3.30042 5.1838,6.25 2.6895,5.86463 2.8009,19.32943 0.2691,32.54589 -1.6164,8.43843 -1.6113,9.18742 0.1051,15.5 1.5074,5.54414 1.7951,10.49115 1.7519,30.13311 -0.048,21.94945 -0.2309,24.26605 -2.7682,35.1101 -6.3866,27.29507 -12.85349,39.13682 -30.82109,56.4376 -31.1325,29.9771 -66.2627,50.47421 -92.3579,53.88725 -6.6856,0.87443 -9.4362,2.02356 -19.7852,8.26595 -4.8318,2.91451 -9.8731,5.2991 -11.2029,5.2991 -5.4871,0 -7.537,2.08321 -13.23791,13.45312 -8.6226,17.19679 -14.9909,28.22336 -22.2627,38.54688 -10.6607,15.13465 -14.0198,21.20644 -34.8536,63 -35.9345,72.0865 -46.1894,94.01038 -46.1727,98.71249 0.029,8.04106 -3.5457,15.11434 -11.3373,22.43571 l -7.0752,6.6482 2.3788,9.22665 c 4.2878,16.63178 4.2783,38.53497 -0.023,51.97695 -3.88,12.12608 -12.3223,24.66701 -21.3296,31.68441 -7.7456,6.0346 -12.0961,6.4952 -64.599,6.8395 -25.575,0.1678 -50.8512,-0.079 -56.1692,-0.5492 z m 82.1692,-8.9802 c 13.475,-0.5147 26.28,-1.4457 28.4556,-2.0689 8.1684,-2.34 19.7485,-17.74371 24.0009,-31.92561 0.907,-3.025 1.9061,-10.225 2.2203,-16 0.6402,-11.76687 -0.7052,-20.88378 -5.2178,-35.35698 -2.5178,-8.07564 -2.9848,-8.83586 -6.2704,-10.20867 -1.9524,-0.8158 -6.3182,-3.23161 -9.7017,-5.36847 -10.1345,-6.40052 -11.248,-6.54058 -36.1021,-4.54118 -19.533,1.57134 -24.7326,1.62647 -48.3848,0.5131 -19.4649,-0.91627 -28.6238,-0.96075 -34.5,-0.16756 -13.2928,1.79433 -15.0015,2.58768 -23.7778,11.04039 l -8.0508,7.75395 -0.9184,12.91771 c -1.342,18.8744 -0.4774,36.60199 2.1148,43.36185 5.0924,13.28017 15.3311,26.02347 22.4987,28.00247 8.9686,2.4763 55.6733,3.4978 93.6335,2.0479 z m -83.6114,-40.89928 c -1.7113,-1.04352 -4.0047,-3.17934 -5.0965,-4.74627 -2.4789,-3.55784 -10.2921,-28.06121 -10.2921,-32.27776 0,-8.28671 12.989,-4.22068 25.1163,7.86234 5.5621,5.54177 6.7878,7.39224 7.6932,11.61393 3.0014,13.99487 -6.8968,23.96515 -17.4209,17.54776 z m 8.5762,-9.02949 c 2.6369,-4.92714 -0.7294,-11.74363 -8.4089,-17.0273 l -4.4314,-3.04884 1.8842,6.79913 c 2.5372,9.15579 3.5265,11.60364 5.479,13.55609 2.1948,2.1948 4.208,2.09222 5.4771,-0.27908 z m 86.1412,7.36998 c -3.0991,-2.60774 -5.0903,-7.61257 -5.1004,-12.8197 -0.017,-8.95742 7.6349,-19.28147 18.2075,-24.56465 7.5466,-3.77105 10.9733,-3.90113 13.6348,-0.51758 2.1143,2.68789 2.0824,3.00862 -1.2401,12.46621 -0.8695,2.475 -2.2501,7.00371 -3.0681,10.0638 -2.5816,9.6576 -10.2854,17.92347 -16.713,17.93246 -1.4703,0.002 -4.0446,-1.15018 -5.7207,-2.56054 z m 9.9511,-9.68572 c 1.1742,-1.2375 2.5983,-3.375 3.1646,-4.75 1.4309,-3.47424 3.6549,-14 2.9581,-14 -1.6284,0 -8.4463,5.69518 -10.1842,8.50706 -1.9144,3.09769 -2.7371,10.41813 -1.3289,11.82627 1.2544,1.25447 3.2553,0.66674 5.3904,-1.58333 z m -68.5571,-94.31297 c 4.6081,-1.42051 5.416,-1.40188 10.3081,0.23765 5.1701,1.73275 5.4023,1.72761 8.9364,-0.19786 2.2266,-1.21308 4.5223,-3.67957 5.942,-6.3841 2.143,-4.08252 2.3135,-5.60794 2.3135,-20.70078 0,-17.77836 1.0825,-25.25165 4.0462,-27.93379 1.9278,-1.74458 5.8737,-1.72466 14.4912,0.0731 2.1749,0.45374 3.6676,0.11335 5.2571,-1.19881 4.8676,-4.01847 8.4478,-20.84338 10.072,-47.33247 0.8454,-13.78787 1.2808,-16.27322 3.9422,-22.5 3.66,-8.56313 5.7153,-15.30932 4.9097,-16.11499 -0.3312,-0.33115 -2.7948,1.24675 -5.4746,3.50645 -2.6799,2.2597 -5.181,4.10854 -5.5582,4.10854 -1.5807,0 -0.3592,-5.22601 5.3219,-22.76832 3.3041,-10.20255 5.8899,-18.66758 5.7463,-18.81119 -0.1436,-0.1436 -2.5596,2.54718 -5.3689,5.97951 -5.0522,6.17269 -10.8609,10.03006 -14.1745,9.41276 -2.5491,-0.47488 -5.2071,-6.66384 -5.2088,-12.1285 0,-4.77297 -1.2806,-8.50292 -3.4013,-9.91895 -0.6052,-0.40408 -3.3702,-0.74158 -6.1445,-0.75 -4.004,-0.0122 -6.1695,-0.72335 -10.5,-3.44844 -3.0007,-1.88823 -7.3633,-4.62804 -9.6946,-6.08847 l -4.2388,-2.65534 -3.2612,1.98386 c -1.7937,1.09112 -6.8612,2.95603 -11.2612,4.14423 -8.8976,2.40275 -13.8021,5.24877 -15.5621,9.03053 -3.9308,8.44591 -5.0777,13.77058 -4.9805,23.12215 0.1038,9.99209 -0.3796,11.29882 -4.4574,12.04878 -3.0849,0.56735 -2.9244,3.96703 0.5854,12.39789 l 3.2051,7.69889 -2.292,10.62531 c -1.2606,5.84391 -3.3537,15.5753 -4.6513,21.6253 -4.1433,19.31797 -4.8511,40.39609 -1.47,43.77721 1.2074,1.20734 6.2213,-1.07476 18.9115,-8.60753 17.8045,-10.56858 18.3902,-10.18137 15.9098,10.5196 -0.9431,7.8709 -1.7111,15.95781 -1.7066,17.97092 0.01,2.74297 -0.9527,4.87304 -3.8258,8.5 -2.1086,2.66189 -4.6165,5.4847 -5.5731,6.2729 -4.3098,3.55132 -7.3137,14.20592 -4.343,15.40462 2.493,1.00596 8.3582,0.60727 13.25,-0.90069 z m 176.0375,-112.3205 c 3.3493,-7.22917 2.1183,-6.37248 -1.6288,1.13347 -1.716,3.4375 -2.5849,5.73994 -1.9309,5.11653 0.654,-0.62342 2.2559,-3.43592 3.5597,-6.25 z m -36.9361,-1.69145 c 5.9803,-3.0662 11.1867,-6.08218 11.5699,-6.70217 0.3831,-0.61999 0.9935,-3.28565 1.3563,-5.92367 0.5083,-3.69532 1.3049,-5.25587 3.4704,-6.79783 1.5459,-1.10077 3.0788,-2.00141 3.4064,-2.00141 0.3276,0 0.5956,2.09474 0.5956,4.65499 0,4.36723 0.1082,4.55753 1.75,3.07846 2.1109,-1.90168 20.9331,-10.73345 22.875,-10.73345 1.9822,0 1.6655,2.67793 -1.1175,9.44788 -1.3448,3.27133 -2.3466,6.03434 -2.2263,6.14002 0.1203,0.10568 3.9409,-4.25836 8.4902,-9.69788 4.5493,-5.43951 7.8383,-9.89002 7.309,-9.89002 -0.5293,0 -1.2405,0.45 -1.5804,1 -0.5618,0.90894 -4.5,1.47712 -4.5,0.64922 0,-1.62047 3.4674,-9.747 10.2117,-23.93311 5.9815,-12.58166 8.2257,-18.46543 8.9632,-23.5 0.5411,-3.69386 1.6785,-9.19111 2.5275,-12.21611 2.0962,-7.46861 1.8941,-12.09854 -0.6166,-14.13164 -3.1831,-2.57753 -15.8019,-5.29015 -24.5858,-5.28515 -14.0492,0.008 -23.1932,3.29925 -36.2437,13.04534 -7.4094,5.53327 -16.9678,16.13636 -19.6589,21.80737 -7.5647,15.94151 -7.9238,17.01749 -7.6984,23.06408 0.3809,10.21363 1.0987,11.06195 6.2542,7.39091 1.6291,-1.16 3.1167,-1.9475 3.3059,-1.75 0.1892,0.1975 -2.7723,5.53409 -6.5812,11.85909 -6.6047,10.96782 -6.8218,11.52477 -4.6929,12.03532 2.1319,0.51125 2.2195,0.93936 1.9477,9.52344 -0.3378,10.67206 0.4034,14.44124 2.8398,14.44124 0.9657,0 6.6487,-2.50871 12.6289,-5.57492 z m 13.3986,-41.08092 c -2.475,-0.89613 -5.625,-2.4027 -7,-3.34794 -1.375,-0.94523 -4.3,-2.28543 -6.5,-2.97822 -5.2656,-1.65815 -5.9158,-2.37929 -4.3729,-4.84986 1.0815,-1.73181 1.0136,-2.64984 -0.4179,-5.65183 -2.4066,-5.04665 -2.1947,-6.22386 2.0408,-11.33974 2.0625,-2.49117 5.325,-6.86892 7.25,-9.72832 7.0222,-10.4308 16.675,-16.30639 28.2533,-17.19762 7.6375,-0.5879 12.2914,0.78745 22.0835,6.52622 l 5.8368,3.42073 -0.4727,5.15121 c -1.1234,12.23981 -2.8041,20.14975 -5.1098,24.04802 -3.3889,5.7297 -9.1467,10.99689 -15.473,14.15463 -6.9105,3.44929 -19.211,4.29359 -26.1181,1.79272 z m 19.5532,-5.80195 c 5.4985,-2.29739 15.0365,-10.13733 16.4321,-13.50663 0.869,-2.0981 1.1283,-6.45774 0.8208,-13.80124 -0.5554,-13.26216 -2.295,-17.11744 -6.5139,-14.43608 -0.9317,0.59216 -0.8731,1.73914 0.2564,5.01771 1.2785,3.71081 1.2824,5.12251 0.031,11.12594 -2.9698,14.24366 -9.901,22.05809 -19.5647,22.05809 -5.0389,0 -8.4115,-2.10283 -10.102,-6.29875 -1.8434,-4.57506 -6.0717,-9.94204 -7.0568,-8.95698 -0.4601,0.4601 -1.1254,2.94397 -1.4784,5.51973 -0.8371,6.10755 1.111,9.12379 7.9491,12.30763 6.0131,2.79972 13.8966,3.19769 19.2268,0.97058 z m -3.4956,-12.89073 c -0.818,-2.15156 -1.6496,-2.65148 -4.4104,-2.65148 -4.4893,0 -6.0992,-1.90961 -4.062,-4.81815 1.8466,-2.63642 4.0805,-2.77959 6.7387,-0.43185 1.9388,1.7123 1.9673,1.67666 1.3228,-1.65469 -0.6735,-3.48206 -2.2588,-6.09531 -3.6976,-6.09531 -0.8327,0 -10.3309,12.04998 -9.7663,12.38994 0.1745,0.10503 2.1093,1.52276 4.2995,3.15051 3.7402,2.77956 9.6718,4.72016 10.3005,3.36993 0.1556,-0.33409 -0.1708,-1.80059 -0.7252,-3.2589 z m 10.371,-11.22291 c 1.9555,-1.95548 1.9723,-3.53345 0.086,-8.04876 -2.1908,-5.24317 -3.9609,-3.82706 -4.312,3.44956 -0.3182,6.59553 0.9021,7.92346 4.2263,4.5992 z m -262.4286,71.67842 c 0,-1.85961 3.3505,-2.10095 5.2907,-0.3811 1.2717,1.12717 2.1441,1.36884 2.3925,0.66273 0.2151,-0.61126 1.2464,-2.78901 2.2917,-4.83945 1.522,-2.98529 1.6815,-4.20919 0.8005,-6.14285 -1.5175,-3.3305 -0.7691,-3.66821 4.2246,-1.90632 2.3716,0.83675 4.5125,1.32082 4.7576,1.07573 0.2451,-0.2451 -1.4001,-3.02316 -3.656,-6.17347 -4.6174,-6.44817 -4.9748,-8.30206 -2.1016,-10.90226 1.4693,-1.32969 2,-3.07997 2,-6.59597 0,-5.7661 1.3294,-6.88262 4.5701,-3.83819 4.9448,4.64544 4.2068,-0.53371 -2.2893,-16.06584 -9.3582,-22.37538 -23.9866,-41.24422 -35.4289,-45.69891 -16.6356,-6.47657 -42.6875,-6.93105 -47.0866,-0.82144 -1.301,1.80684 -0.7925,5.8374 1.7686,14.02035 1.3771,4.4 2.9555,12.5 3.5075,18 1.5776,15.7185 2.7964,20.49169 6.0682,23.76347 1.5897,1.58971 2.8904,3.24575 2.8904,3.6801 0,0.43435 -0.9938,3.18098 -2.2084,6.10362 -1.7542,4.2213 -1.93,5.40667 -0.8548,5.76507 0.7444,0.24815 5.4509,3.91596 10.4588,8.15071 11.7779,9.95957 16.5311,12.5321 15.1572,8.20349 -0.5484,-1.72782 -0.24,-1.76308 5.3475,-0.61162 7.1228,1.46783 8.0997,2.00245 8.0997,4.43275 0,2.59233 2.6755,5.01241 5.5415,5.01241 1.5056,0 3.2244,1.11694 4.6166,3 2.1821,2.95139 3.8419,3.86168 3.8419,2.10699 z m -25,-38.09225 c -15.242,-1.9369 -27.1328,-13.10529 -29.0328,-27.2689 -0.4608,-3.43521 -1.4022,-8.79699 -2.092,-11.91506 -0.957,-4.32611 -0.9779,-6.0021 -0.088,-7.07434 0.6414,-0.77282 5.1142,-3.39667 9.9395,-5.83078 7.9458,-4.0082 9.4336,-4.42102 15.7733,-4.3765 5.3957,0.0379 8.3288,0.66049 12.7977,2.71651 9.5094,4.375 12.5038,7.44431 26.3017,26.95979 l 2.6339,3.72546 -2.0946,4.23365 c -1.9128,3.86599 -1.9625,4.43541 -0.5723,6.55703 1.4726,2.24757 1.3985,2.37186 -2.272,3.80859 -2.0869,0.81685 -6.2694,2.79021 -9.2944,4.38524 -3.025,1.59502 -7.3,3.20136 -9.5,3.56963 -2.2,0.36827 -4.675,0.79086 -5.5,0.93909 -0.825,0.14824 -3.975,-0.045 -7,-0.42941 z m 12.6927,-6.99801 c 9.6437,-3.38949 11.9274,-6.97269 10.0509,-15.77076 l -0.9955,-4.66778 -2.4514,2.96091 c -1.3482,1.62849 -3.2896,4.84793 -4.3142,7.1543 -4.646,10.45812 -17.8383,9.14988 -25.4551,-2.52431 -2.6546,-4.0687 -5.5308,-14.1296 -5.5212,-19.31343 0,-1.84562 0.6508,-4.5915 1.4387,-6.10197 1.3647,-2.61603 1.3135,-2.77622 -1.0793,-3.37679 -1.3816,-0.34676 -2.99,-0.15251 -3.5742,0.43166 -1.5806,1.58062 -3.2003,17.97911 -2.3415,23.70618 0.6308,4.20636 1.4737,5.65381 5.3988,9.27095 5.7166,5.26809 15.3221,10.21431 19.836,10.21431 1.8509,0 5.9045,-0.89247 9.008,-1.98327 z m -5.1927,-12.02604 c 1.1,-0.95742 3.0012,-2.2568 4.225,-2.8875 2.2098,-1.13893 2.1939,-1.18744 -2.3216,-7.12497 -2.5005,-3.28802 -5.1734,-5.97822 -5.9397,-5.97822 -1.559,0 -2.8571,2.12123 -3.858,6.30405 l -0.6709,2.80406 3.0522,-2.25664 3.0523,-2.25663 2.1193,2.1193 c 2.9473,2.94729 1.8005,5.28586 -2.592,5.28586 -3.5382,0 -5.5666,1.97108 -5.5666,5.40926 0,2.01426 5.6368,1.07354 8.5,-1.41857 z m -13.5153,-15.79971 c -0.01,-2.58004 -0.4676,-5.36598 -1.0203,-6.19098 -0.8577,-1.28016 -1.2952,-1.154 -2.9847,0.86078 -2.651,3.1613 -2.5654,7.61556 0.1833,9.54081 3.017,2.11323 3.8394,1.20719 3.8217,-4.21061 z m 373.48121,-43.29536 c 16.5251,-5.20367 27.2027,-10.52295 34.6483,-17.2608 3.2275,-2.92074 10.2596,-7.69289 15.627,-10.60478 14.7127,-7.9819 19.5929,-11.5454 27.9692,-20.4227 10.3526,-10.97178 23.5591,-27.80493 26.6888,-34.01791 6.3328,-12.57145 11.9448,-49.64051 9.6588,-63.79865 -0.9255,-5.73185 -6.2118,-23.27796 -7.3588,-24.4249 -0.9255,-0.92556 -49.3772,31.49076 -61.191,40.93951 -3.3045,2.64296 -7.3667,6.51238 -9.0271,8.59869 -7.6608,9.62592 -20.9704,18.61203 -33.4811,22.60511 -7.5716,2.41664 -8.2421,3.09823 -7.4808,7.60419 l 0.637,3.77066 -4.7881,0.30798 c -4.6952,0.302 -4.8039,0.38445 -5.6021,4.24863 -0.4477,2.16736 -1.0497,4.17642 -1.3379,4.46458 -0.2881,0.28816 -4.2035,0.99616 -8.7007,1.57334 l -8.17681,1.04942 -0.793,4.486 c -0.9467,5.3562 -0.5282,7.37218 3.38361,16.2979 2.7732,6.32749 2.9372,7.36533 2.3066,14.59454 -0.7498,8.59551 0.4981,12.77828 6.4389,21.58078 2.139,3.16949 3.2642,6.50029 4.1169,12.18715 1.3717,9.14818 1.6774,10.32564 2.6809,10.32564 0.411,0 6.6126,-1.84697 13.7814,-4.10438 z M 234.21724,558.21749 c 6.0075,-2.32849 7.7702,-4.1271 7.7702,-7.92844 0,-4.01108 1.8273,-5.97386 6.3519,-6.82267 2.7369,-0.51346 4.5081,-2.01785 8.5698,-7.27929 2.816,-3.64763 5.3901,-7.70852 5.7203,-9.0242 1.0834,-4.31668 -5.161,-18.05427 -11.0412,-24.29028 -2.8523,-3.025 -6.2199,-7.19368 -7.4835,-9.26373 -1.2636,-2.07005 -5.2944,-5.86837 -8.9573,-8.44071 -3.663,-2.57234 -13.41,-9.70177 -21.66,-15.84318 -18.7266,-13.94036 -20.1664,-14.68347 -29.5,-15.22616 -9.8144,-0.57065 -16.0828,1.52008 -35,11.67367 -22.2281,11.93073 -26.1738,13.27971 -38.5521,13.18035 -5.6671,-0.0455 -17.835598,0.79686 -27.041198,1.87188 -15.1623,1.77064 -17.2009,2.24266 -21.6613,5.01538 -7.8569,4.88413 -18.7739,14.29782 -19.3796,16.71098 -1.8568,7.39823 10.348,21.32152 18.69,21.32152 1.1745,0 3.425,0.91825 5.0012,2.04056 3.7262,2.65331 12.2183,5.55793 23.443,8.01841 4.95,1.08504 12.039898,3.35206 15.755198,5.03781 11.5386,5.23531 21.9481,6.71963 58.8286,8.3886 20.8536,0.94369 36.2358,2.10512 40.9162,3.08937 7.9714,1.67631 18.2218,5.78267 20.1079,8.0553 1.4978,1.80465 3.9259,1.72874 9.1219,-0.28517 z m 152.287,-95.29949 c 5.4793,-1.75517 10.0974,-3.32621 10.2624,-3.49121 0.1649,-0.16499 -2.368,-11.04468 -5.6287,-24.17708 -3.2608,-13.13241 -8.4449,-34.2271 -11.5202,-46.8771 -3.0754,-12.65 -7.6304,-30.19824 -10.1223,-38.99608 -9.2236,-32.56432 -12.0722,-56.57908 -11.1504,-94.00392 0.8871,-36.0194 4.1049,-62.53296 14.2784,-117.64698 3.1114,-16.85583 5.3742,-31.38408 5.0285,-32.28498 -0.5675,-1.4788 -0.9093,-1.4928 -3.5165,-0.1446 -9.872,5.10503 -30.7296,37.80083 -35.1567,55.11067 -2.1612,8.45005 -2.9737,9.85456 -6.7813,11.72273 -4.4359,2.17639 -5.4167,7.17733 -5.9578,30.37891 -0.2711,11.62466 -0.8622,21.73319 -1.3135,22.46339 -0.669,1.08246 -1.4837,1.01141 -4.4114,-0.38472 -3.3783,-1.61101 -3.6295,-1.61167 -4.2436,-0.0112 -0.3591,0.93564 -0.1309,8.01125 0.5071,15.72358 0.6558,7.92708 0.7827,14.39975 0.292,14.89046 -0.4908,0.49071 -1.7555,0.39308 -2.9097,-0.22461 -3.0502,-1.63243 -3.1759,-1.48592 -3.1387,3.65736 0.021,2.83754 1.227,7.76967 2.9964,12.25 1.629,4.125 2.9635,8.29906 2.9655,9.27568 0,1.60968 -0.2534,1.6449 -2.7463,0.37669 -1.5125,-0.76945 -3.7625,-1.71133 -5,-2.09307 -2.0487,-0.63197 -2.25,-0.36802 -2.25,2.94979 0,2.00413 2.025,8.82281 4.5,15.15261 5.6621,14.48092 5.6762,14.79271 0.5735,12.75102 -5.4956,-2.19888 -8.2488,-1.58047 -9.2928,2.08728 -1.2881,4.52523 0.022,14.27808 2.8207,21.00478 1.7459,4.1958 2.9434,10.04714 3.9898,19.49522 2.0909,18.8803 3.1966,22.13562 10.7941,31.7788 7.3979,9.38979 8.217,11.5127 9.0245,23.39047 0.7193,10.57831 4.4853,21.89989 12.3331,37.07558 6.8012,13.15188 11.0299,18.30718 16.3157,19.89085 4.2922,1.28597 4.7164,2.46497 2.4582,6.8319 l -1.4833,2.86828 8.7605,-3.79964 c 4.8183,-2.0898 13.2436,-5.23568 18.7228,-6.99085 z m 131.9832,-0.0454 c 0.3399,-0.55 1.581,-1 2.7581,-1 3.5518,0 10.8982,-8.95721 16.9292,-20.64118 8.0769,-15.64782 10.7286,-23.81138 11.9365,-36.74795 1.1311,-12.11445 2.1224,-14.73496 8.3641,-22.11087 7.5057,-8.86955 9.3017,-13.67896 11.0595,-29.61532 1.0936,-9.91474 2.4603,-16.79664 4.5108,-22.71455 3.4723,-10.02126 4.0757,-20.8934 1.3129,-23.65621 -0.896,-0.89592 -2.1335,-1.44166 -2.75,-1.21275 -6.3322,2.35075 -8.6517,3.00151 -9.1002,2.55306 -0.2912,-0.29115 1.7225,-6.43247 4.4749,-13.64738 6.8567,-17.97418 6.6451,-20.38758 -1.4493,-16.52763 -1.9368,0.92358 -3.7419,1.45866 -4.0115,1.18908 -0.2696,-0.26958 1.0747,-4.86858 2.9874,-10.22001 3.2363,-9.05482 4.3214,-15.47116 2.863,-16.92958 -0.3381,-0.33804 -1.7021,0.0979 -3.0312,0.9688 -1.3291,0.87087 -2.673,1.32707 -2.9863,1.01376 -0.3133,-0.31331 -0.069,-7.43377 0.5435,-15.82325 0.6122,-8.38947 0.7308,-15.63581 0.2637,-16.10297 -0.4672,-0.46715 -2.077,-0.38265 -3.5774,0.18779 -5.4323,2.06539 -5.2767,2.60154 -5.8669,-20.21284 -0.637,-24.6238 -1.6857,-29.34579 -7.2453,-32.62605 -2.4888,-1.46841 -3.6703,-3.10782 -4.5435,-6.30421 -0.649,-2.37586 -1.8641,-6.56974 -2.7002,-9.31974 -4.7816,-15.72716 -24.7573,-45.538 -33.6245,-50.17965 -5.3282,-2.7891 -5.4774,-4.925899 2.7792,39.78737 17.5262,94.9119 17.6823,146.1598 0.6332,207.89228 -3.2658,11.825 -9.8038,37.7 -14.5289,57.5 -4.7251,19.8 -9.2458,38.21918 -10.046,40.9315 -2.4753,8.39088 -3.1522,7.84013 13.7952,11.22425 17.5032,3.4951 19.4028,3.71501 20.25,2.34425 z"
   id="path3807"
   inkscape:connector-curvature="0"
   inkscape:transform-center-y="-46.210252" /></svg>