<?xml version="1.0" encoding="UTF-8" standalone="no"?>
<svg
   xmlns:dc="http://purl.org/dc/elements/1.1/"
   xmlns:cc="http://creativecommons.org/ns#"
   xmlns:rdf="http://www.w3.org/1999/02/22-rdf-syntax-ns#"
   xmlns:svg="http://www.w3.org/2000/svg"
   xmlns="http://www.w3.org/2000/svg"
   xmlns:sodipodi="http://sodipodi.sourceforge.net/DTD/sodipodi-0.dtd"
   xmlns:inkscape="http://www.inkscape.org/namespaces/inkscape"
   version="1.1"
   id="Layer_1"
   x="0px"
   y="0px"
   width="1000"
   height="1024"
   viewBox="0 0 1000 1024"
   enable-background="new 0 0 512 512"
   xml:space="preserve"
   inkscape:version="0.48.0 r9654"
   sodipodi:docname="hi-x12122.svg"><title
   id="title3743">Mesopotamian Font</title><metadata
   id="metadata72"><rdf:RDF><cc:Work
       rdf:about=""><dc:format>image/svg+xml</dc:format><dc:type
         rdf:resource="http://purl.org/dc/dcmitype/StillImage" /><dc:title>Sinai 357</dc:title><dc:date>2017</dc:date><dc:creator><cc:Agent><dc:title>Celeste Claire Horner</dc:title></cc:Agent></dc:creator><dc:publisher><cc:Agent><dc:title>beitdina.net</dc:title></cc:Agent></dc:publisher></cc:Work></rdf:RDF></metadata><defs
   id="defs70" /><sodipodi:namedview
   pagecolor="#ffffff"
   bordercolor="#666666"
   borderopacity="1"
   objecttolerance="10"
   gridtolerance="10"
   guidetolerance="10"
   inkscape:pageopacity="0"
   inkscape:pageshadow="2"
   inkscape:window-width="923"
   inkscape:window-height="679"
   id="namedview68"
   showgrid="false"
   inkscape:zoom="0.28132272"
   inkscape:cx="-80.734362"
   inkscape:cy="844.65485"
   inkscape:window-x="154"
   inkscape:window-y="88"
   inkscape:window-maximized="0"
   inkscape:current-layer="Layer_1" />
   
	<g
   id="Grid"
   transform="matrix(1.948664,0,0,2.0011811,-2.6425584,2.4557964)">
		<rect
   x="0"
   stroke-miterlimit="10"
   width="512"
   height="512"
   id="rect4"
   y="0"
   style="fill:none;stroke:#a9ccdb;stroke-miterlimit:10" />
		<line
   stroke-miterlimit="10"
   x1="0"
   y1="32"
   x2="512"
   y2="32"
   id="line6"
   style="fill:none;stroke:#a9ccdb;stroke-miterlimit:10" />
		<line
   stroke-miterlimit="10"
   x1="0"
   y1="64"
   x2="512"
   y2="64"
   id="line8"
   style="fill:none;stroke:#a9ccdb;stroke-miterlimit:10" />
		<line
   stroke-miterlimit="10"
   x1="0"
   y1="96"
   x2="512"
   y2="96"
   id="line10"
   style="fill:none;stroke:#a9ccdb;stroke-miterlimit:10" />
		<line
   stroke-miterlimit="10"
   x1="0"
   y1="128"
   x2="512"
   y2="128"
   id="line12"
   style="fill:none;stroke:#a9ccdb;stroke-miterlimit:10" />
		<line
   stroke-miterlimit="10"
   x1="0"
   y1="160"
   x2="512"
   y2="160"
   id="line14"
   style="fill:none;stroke:#a9ccdb;stroke-miterlimit:10" />
		<line
   stroke-miterlimit="10"
   x1="0"
   y1="192"
   x2="512"
   y2="192"
   id="line16"
   style="fill:none;stroke:#a9ccdb;stroke-miterlimit:10" />
		<line
   stroke-miterlimit="10"
   x1="0"
   y1="224"
   x2="512"
   y2="224"
   id="line18"
   style="fill:none;stroke:#a9ccdb;stroke-miterlimit:10" />
		<line
   stroke-miterlimit="10"
   x1="0"
   y1="256"
   x2="512"
   y2="256"
   id="line20"
   style="fill:none;stroke:#a9ccdb;stroke-miterlimit:10" />
		<line
   stroke-miterlimit="10"
   x1="0"
   y1="288"
   x2="512"
   y2="288"
   id="line22"
   style="fill:none;stroke:#a9ccdb;stroke-miterlimit:10" />
		<line
   stroke-miterlimit="10"
   x1="0"
   y1="320"
   x2="512"
   y2="320"
   id="line24"
   style="fill:none;stroke:#a9ccdb;stroke-miterlimit:10" />
		<line
   stroke-miterlimit="10"
   x1="0"
   y1="352"
   x2="512"
   y2="352"
   id="line26"
   style="fill:none;stroke:#a9ccdb;stroke-miterlimit:10" />
		<line
   stroke-miterlimit="10"
   x1="0"
   y1="384"
   x2="512"
   y2="384"
   id="line28"
   style="fill:none;stroke:#a9ccdb;stroke-miterlimit:10" />
		<line
   stroke-miterlimit="10"
   x1="0"
   y1="416"
   x2="512"
   y2="416"
   id="line30"
   style="fill:none;stroke:#a9ccdb;stroke-miterlimit:10" />
		<line
   stroke-miterlimit="10"
   x1="0"
   y1="448"
   x2="512"
   y2="448"
   id="line32"
   style="fill:none;stroke:#ff0000;stroke-miterlimit:10" />
		<line
   stroke-miterlimit="10"
   x1="0"
   y1="480"
   x2="512"
   y2="480"
   id="line34"
   style="fill:none;stroke:#a9ccdb;stroke-miterlimit:10" />
		<line
   stroke-miterlimit="10"
   x1="32"
   y1="0"
   x2="32"
   y2="512"
   id="line36"
   style="fill:none;stroke:#a9ccdb;stroke-miterlimit:10" />
		<line
   stroke-miterlimit="10"
   x1="64"
   y1="0"
   x2="64"
   y2="512"
   id="line38"
   style="fill:none;stroke:#a9ccdb;stroke-miterlimit:10" />
		<line
   stroke-miterlimit="10"
   x1="96"
   y1="0"
   x2="96"
   y2="512"
   id="line40"
   style="fill:none;stroke:#a9ccdb;stroke-miterlimit:10" />
		<line
   stroke-miterlimit="10"
   x1="128"
   y1="0"
   x2="128"
   y2="512"
   id="line42"
   style="fill:none;stroke:#a9ccdb;stroke-miterlimit:10" />
		<line
   stroke-miterlimit="10"
   x1="160"
   y1="0"
   x2="160"
   y2="512"
   id="line44"
   style="fill:none;stroke:#a9ccdb;stroke-miterlimit:10" />
		<line
   stroke-miterlimit="10"
   x1="192"
   y1="0"
   x2="192"
   y2="512"
   id="line46"
   style="fill:none;stroke:#a9ccdb;stroke-miterlimit:10" />
		<line
   stroke-miterlimit="10"
   x1="224"
   y1="0"
   x2="224"
   y2="512"
   id="line48"
   style="fill:none;stroke:#a9ccdb;stroke-miterlimit:10" />
		<line
   stroke-miterlimit="10"
   x1="256"
   y1="0"
   x2="256"
   y2="512"
   id="line50"
   style="fill:none;stroke:#a9ccdb;stroke-miterlimit:10" />
		<line
   stroke-miterlimit="10"
   x1="288"
   y1="0"
   x2="288"
   y2="512"
   id="line52"
   style="fill:none;stroke:#a9ccdb;stroke-miterlimit:10" />
		<line
   stroke-miterlimit="10"
   x1="320"
   y1="0"
   x2="320"
   y2="512"
   id="line54"
   style="fill:none;stroke:#a9ccdb;stroke-miterlimit:10" />
		<line
   stroke-miterlimit="10"
   x1="352"
   y1="0"
   x2="352"
   y2="512"
   id="line56"
   style="fill:none;stroke:#a9ccdb;stroke-miterlimit:10" />
		<line
   stroke-miterlimit="10"
   x1="384"
   y1="0"
   x2="384"
   y2="512"
   id="line58"
   style="fill:none;stroke:#a9ccdb;stroke-miterlimit:10" />
		<line
   stroke-miterlimit="10"
   x1="416"
   y1="0"
   x2="416"
   y2="512"
   id="line60"
   style="fill:none;stroke:#a9ccdb;stroke-miterlimit:10" />
		<line
   stroke-miterlimit="10"
   x1="448"
   y1="0"
   x2="448"
   y2="512"
   id="line62"
   style="fill:none;stroke:#a9ccdb;stroke-miterlimit:10" />
		<line
   stroke-miterlimit="10"
   x1="480"
   y1="0"
   x2="480"
   y2="512"
   id="line64"
   style="fill:none;stroke:#a9ccdb;stroke-miterlimit:10" />
	</g>
<path
   style="fill:#5c5c5c"
   d="m 446.00875,974.43768 c -6.09222,-5.97919 -15.86948,-19.74778 -21.74563,-26.06251 -12.26102,-13.17615 -16.41184,-20.44587 -27.11899,-32.90318 -6.77049,-7.82432 -13.19877,-15.94058 -19.48498,-24.18146 -11.51891,-14.28775 -19.76339,-30.36947 -30.70529,-46.59554 -15.04444,-22.30985 -32.41865,-44.89257 -45.25541,-63.46033 -6.41749,-9.17761 -13.61939,-18.78359 -20.85237,-28.36782 -9.72215,-12.88258 -19.50046,-25.72584 -27.50548,-37.43664 -14.99626,-21.9385 -29.40899,-41.72213 -43.32696,-61.28637 -14.61868,-20.94904 -30.1297,-42.61508 -47.585,-65.07413 -21.20303,-27.2811 -48.44752,-55.13469 -69.059857,-76.67852 -4.71301,-4.89184 -9.540039,-9.80762 -14.563108,-14.81284 -1.17926,-1.06582 -5.81143,-4.63283 -10.29366,-7.9267 -5.27127,-3.87364 -9.220968,-8.17202 -11.18326,-12.17005 l -3.03382,-6.1812 4.45888,-5.47252 4.45878,-5.47252 26.78475,-4.66396 c 26.969315,-6.34575 50.210295,-12.61677 72.395075,-22.14653 7.15832,-3.07495 14.20668,-6.48918 21.23484,-10.35468 12.67667,-7.2868 18.23201,-17.09781 28.7701,-25.38696 13.05084,-11.33236 25.4153,-24.06706 37.26567,-36.46846 7.06975,-7.39848 13.95652,-14.67834 20.69691,-21.47104 11.07435,-11.15853 22.05312,-22.2454 27.14867,-32.93352 1.10887,-5.67774 2.15098,-11.45178 3.15977,-17.25825 2.44823,-14.09171 4.7002,-28.37443 7.23386,-41.9352 3.07972,-15.5834 3.5603,-36.90608 3.58458,-52.19588 0.0143,-8.5772 0.3936,-9.6995 5.12929,-15.15647 9.69343,-11.1695 17.59482,-6.2575 23.95089,14.88937 3.62274,12.0527 4.20395,14.26933 22.8593,32.68733 8.08355,-7.99678 25.82895,-17.27106 36.03841,-23.64328 8.79867,-5.49169 18.16909,-11.69668 24.42696,-17.5753 -0.0245,-8.05722 -51.95783,-19.76519 -40.05746,-31.90159 8.98073,-6.44093 33.5594,-10.21102 42.87953,-16.70511 21.31915,-14.85477 35.42583,-23.27035 46.5768,-44.729908 14.35109,-28.94207 21.21945,-42.58813 30.30827,-33.89964 l 4.64594,4.4413 1.67903,24.99247 c 2.63832,39.271508 5.67287,66.783098 21.53827,102.322298 4.4343,9.933 26.50037,25.15646 29.84272,28.39056 63.70885,63.707 134.13633,122.57351 198.07508,185.85839 60.33889,59.72184 137.72972,161.7021 189.24541,228.37317 10.6925,8.26591 17.8223,27.32193 4.8014,34.9472 -30.2147,20.28577 -61.71852,36.05831 -93.53583,50.20608 -37.1915,15.18775 -74.14105,31.24983 -110.74494,46.58409 -42.47078,17.79204 -84.47621,34.60424 -125.85428,47.93397 -20.00864,6.37919 -40.19344,11.95239 -61.04066,16.50456 -21.76933,4.78506 -42.64063,10.39485 -57.45353,21.61696 -3.7644,9.54316 -6.94138,18.27708 -9.92605,26.70996 -6.11108,17.26619 -11.41599,33.27034 -19.30614,52.3745 -3.08715,7.4591 -6.20253,14.73391 -9.40917,21.7525 -2.26303,4.92163 -4.85759,9.90137 -7.61802,13.89855 -3.99633,5.78678 -8.3403,9.51426 -12.52929,8.02485 z m 21.8865,-119.13249 c -1.51217,0 -22.23597,6.067 -33.88126,8.3932 -11.64539,2.3265 -28.24628,5.1549 -28.56307,5.1549 4.47267,5.74846 8.78212,11.5132 12.87223,17.25254 4.14925,5.82234 8.07278,11.61854 11.71199,17.34511 5.26386,8.28442 10.50684,16.4833 13.38631,17.43533 5.98867,-12.80002 11.45048,-29.44499 16.9754,-42.19312 5.49059,-12.5756 9.80602,-23.15535 7.4984,-23.38796 z m -69.3024,-20.70348 c 21.64531,-4.7348 44.32587,-9.81 64.53205,-14.994 9.87142,-1.41323 19.86595,-3.10865 29.89241,-5.02704 44.05078,-8.42838 88.71795,-21.1607 126.27014,-33.17525 44.19408,-15.23133 87.91023,-30.33859 130.12197,-46.7001 34.04782,-13.19712 67.11687,-27.21025 98.66847,-42.76268 26.27064,-13.07003 55.82514,-23.35955 74.63359,-41.1765 C 870.5278,587.29353 787.48174,480.16587 730.08262,420.9964 c -11.42315,-11.77555 -23.09873,-23.38234 -35.0857,-34.78708 -0.39309,-0.41656 -12.29347,-10.88649 -26.44516,-23.26653 -14.1518,-12.38004 -23.27648,-24.81133 -26.42137,-27.62511 -32.13512,-28.75236 -102.33159,-96.59244 -103.68668,-96.59244 -0.91775,0 -5.32369,-3.3309 -9.79094,-7.4021 -3.47669,-1.87108 -19.0634,-14.94713 -25.72552,-18.52077 -9.35459,-1.62326 -22.77031,-3.53803 -36.19424,-8.24793 -7.6992,-2.70132 -11.81276,-5.91254 -13.25202,-5.20122 -14.27667,7.19612 -25.81051,18.72329 -37.54504,27.07367 -10.71882,7.50415 -27.89104,17.60173 -34.56522,25.35191 0.94955,8.52968 19.40886,18.8855 23.59149,22.50047 7.46868,1.5905 11.0496,2.08093 14.70698,5.68784 5.04715,4.97749 4.18923,10.81289 3.83455,14.57485 -0.77115,8.1794 -12.28992,10.22307 -28.83177,13.37104 -21.89097,4.27454 -53.88802,6.11858 -66.70672,16.01834 -21.09021,18.5147 -40.37587,42.8998 -59.71798,60.98348 -12.4685,11.5625 -25.52059,23.16794 -36.28749,33.423 -5.86285,8.73578 -24.69152,22.42043 -33.07918,33.09827 -3.84493,4.14312 -4.26247,10.01802 -5.44206,14.57685 1.18614,6.62446 -0.89516,11.66953 -0.95031,16.95669 -0.0421,4.04059 -0.66895,7.06301 -0.74203,10.69475 -0.12912,6.41621 -1.11964,12.14456 -2.36761,20.48618 -1.03002,6.86771 -4.00084,20.50104 -5.68916,26.97067 -2.37184,9.05359 -4.91338,17.83537 -3.14488,21.82478 16.94554,22.22455 47.13546,67.84161 61.56542,87.59413 12.93696,23.75933 31.73269,44.79375 45.98651,65.12367 6.61143,10.37614 13.83386,20.37216 20.89839,30.33159 6.53466,11.48669 14.3749,21.64697 22.1523,31.54989 15.11549,14.23566 25.82726,44.32968 40.74144,54.62788 7.52489,3.5691 22.06807,2.84954 26.70419,2.42854 z M 167.38165,487.46029 c 0.73342,-3.70952 1.80877,-6.47199 0.7488,-9.93723 -0.29578,-0.29173 -7.90511,0.60242 -13.65137,2.53007 -5.74615,1.92766 -18.34842,3.3682 -24.66951,4.55086 -6.32099,1.18269 -11.72801,2.3823 -12.01543,2.66581 2.33906,3.69678 2.08673,2.11714 5.23334,6.35369 4.80196,6.33265 20.83286,23.85747 26.47446,29.09807 4.82569,4.48268 2.17948,2.65375 8.43163,5.83344 2.04214,-6.20313 3.61232,-12.45422 4.97212,-18.68498 1.64552,-7.53999 2.98298,-15.05022 4.47596,-22.40973 z M 366.02864,285.29497 c 0.66949,0.4081 2.55842,-0.1845 4.19757,-1.3169 2.8845,-1.9927 2.62053,-2.3561 -8.21696,-11.3105 -6.15841,-5.0885 -13.77024,-12.7372 -16.91513,-16.9972 -3.14479,-4.2601 -7.3455,-10.28581 -7.79886,-10.31841 -0.45327,-0.033 -1.6658,11.81241 -4.23044,23.25031 -2.56454,11.4379 -5.0017,22.0024 -5.41589,23.4768 -0.60544,2.1554 -0.23051,2.4792 1.91351,1.6527 7.40032,-1.36601 31.42171,-10.25003 36.4662,-8.4368 z M 491.03679,159.53034 c -2.00123,-8.0189 -4.36739,-18.8624 -5.25811,-24.0967 -0.89071,-5.2343 -2.036,-9.509 -2.54485,-9.4994 -1.07808,0.02 -7.10737,8.7365 -10.10732,14.6116 -2.26346,4.4326 -8.18331,10.808 -15.56942,16.7675 -2.60636,2.1029 -4.40901,4.3498 -4.00593,4.9931 1.03963,1.6592 39.33826,13.0947 40.65857,12.1402 0.25611,-0.1851 -1.17171,-6.8974 -3.17294,-14.9163 z"
   id="path3797"
   inkscape:connector-curvature="0"
   sodipodi:nodetypes="csccscsscsccssccccsccsccsccsscsccscscsscscccscccsccsccscsccccscscsccscsssccsccccssccccccsscccccccccsccscscscsccscssssccssssssss" /></svg>