<?xml version="1.0" encoding="UTF-8" standalone="no"?>
<svg
   xmlns:dc="http://purl.org/dc/elements/1.1/"
   xmlns:cc="http://creativecommons.org/ns#"
   xmlns:rdf="http://www.w3.org/1999/02/22-rdf-syntax-ns#"
   xmlns:svg="http://www.w3.org/2000/svg"
   xmlns="http://www.w3.org/2000/svg"
   xmlns:sodipodi="http://sodipodi.sourceforge.net/DTD/sodipodi-0.dtd"
   xmlns:inkscape="http://www.inkscape.org/namespaces/inkscape"
   version="1.1"
   id="Layer_1"
   x="0px"
   y="0px"
   width="1000"
   height="1024"
   viewBox="0 0 1000 1024"
   enable-background="new 0 0 512 512"
   xml:space="preserve"
   inkscape:version="0.48.0 r9654"
   sodipodi:docname="immeru-x121FB.svg"><title
   id="title3743">Mesopotamian Font</title><metadata
   id="metadata72"><rdf:RDF><cc:Work
       rdf:about=""><dc:format>image/svg+xml</dc:format><dc:type
         rdf:resource="http://purl.org/dc/dcmitype/StillImage" /><dc:title>Sumerian</dc:title><dc:date>2017</dc:date><dc:creator><cc:Agent><dc:title>FlorinCB</dc:title></cc:Agent></dc:creator><dc:publisher><cc:Agent><dc:title>beitdina.net</dc:title></cc:Agent></dc:publisher></cc:Work></rdf:RDF></metadata><defs
   id="defs70" /><sodipodi:namedview
   pagecolor="#ffffff"
   bordercolor="#666666"
   borderopacity="1"
   objecttolerance="10"
   gridtolerance="10"
   guidetolerance="10"
   inkscape:pageopacity="0"
   inkscape:pageshadow="2"
   inkscape:window-width="923"
   inkscape:window-height="679"
   id="namedview68"
   showgrid="false"
   inkscape:zoom="0.28132272"
   inkscape:cx="453.87817"
   inkscape:cy="529.97439"
   inkscape:window-x="227"
   inkscape:window-y="118"
   inkscape:window-maximized="0"
   inkscape:current-layer="Layer_1" />
   
	<g
   id="Grid"
   transform="matrix(1.948664,0,0,-2.0011811,-2.6425584,1027.0605)">
		<rect
   x="0"
   stroke-miterlimit="10"
   width="512"
   height="512"
   id="rect4"
   y="0"
   style="fill:none;stroke:#a9ccdb;stroke-miterlimit:10" />
		<line
   stroke-miterlimit="10"
   x1="0"
   y1="32"
   x2="512"
   y2="32"
   id="line6"
   style="fill:none;stroke:#a9ccdb;stroke-miterlimit:10" />
		<line
   stroke-miterlimit="10"
   x1="0"
   y1="64"
   x2="512"
   y2="64"
   id="line8"
   style="fill:none;stroke:#a9ccdb;stroke-miterlimit:10" />
		<line
   stroke-miterlimit="10"
   x1="0"
   y1="96"
   x2="512"
   y2="96"
   id="line10"
   style="fill:none;stroke:#a9ccdb;stroke-miterlimit:10" />
		<line
   stroke-miterlimit="10"
   x1="0"
   y1="128"
   x2="512"
   y2="128"
   id="line12"
   style="fill:none;stroke:#a9ccdb;stroke-miterlimit:10" />
		<line
   stroke-miterlimit="10"
   x1="0"
   y1="160"
   x2="512"
   y2="160"
   id="line14"
   style="fill:none;stroke:#a9ccdb;stroke-miterlimit:10" />
		<line
   stroke-miterlimit="10"
   x1="0"
   y1="192"
   x2="512"
   y2="192"
   id="line16"
   style="fill:none;stroke:#a9ccdb;stroke-miterlimit:10" />
		<line
   stroke-miterlimit="10"
   x1="0"
   y1="224"
   x2="512"
   y2="224"
   id="line18"
   style="fill:none;stroke:#a9ccdb;stroke-miterlimit:10" />
		<line
   stroke-miterlimit="10"
   x1="0"
   y1="256"
   x2="512"
   y2="256"
   id="line20"
   style="fill:none;stroke:#a9ccdb;stroke-miterlimit:10" />
		<line
   stroke-miterlimit="10"
   x1="0"
   y1="288"
   x2="512"
   y2="288"
   id="line22"
   style="fill:none;stroke:#a9ccdb;stroke-miterlimit:10" />
		<line
   stroke-miterlimit="10"
   x1="0"
   y1="320"
   x2="512"
   y2="320"
   id="line24"
   style="fill:none;stroke:#a9ccdb;stroke-miterlimit:10" />
		<line
   stroke-miterlimit="10"
   x1="0"
   y1="352"
   x2="512"
   y2="352"
   id="line26"
   style="fill:none;stroke:#a9ccdb;stroke-miterlimit:10" />
		<line
   stroke-miterlimit="10"
   x1="0"
   y1="384"
   x2="512"
   y2="384"
   id="line28"
   style="fill:none;stroke:#a9ccdb;stroke-miterlimit:10" />
		<line
   stroke-miterlimit="10"
   x1="0"
   y1="416"
   x2="512"
   y2="416"
   id="line30"
   style="fill:none;stroke:#a9ccdb;stroke-miterlimit:10" />
		<line
   stroke-miterlimit="10"
   x1="0"
   y1="448"
   x2="512"
   y2="448"
   id="line32"
   style="fill:none;stroke:#ff0000;stroke-miterlimit:10" />
		<line
   stroke-miterlimit="10"
   x1="0"
   y1="480"
   x2="512"
   y2="480"
   id="line34"
   style="fill:none;stroke:#a9ccdb;stroke-miterlimit:10" />
		<line
   stroke-miterlimit="10"
   x1="32"
   y1="0"
   x2="32"
   y2="512"
   id="line36"
   style="fill:none;stroke:#a9ccdb;stroke-miterlimit:10" />
		<line
   stroke-miterlimit="10"
   x1="64"
   y1="0"
   x2="64"
   y2="512"
   id="line38"
   style="fill:none;stroke:#a9ccdb;stroke-miterlimit:10" />
		<line
   stroke-miterlimit="10"
   x1="96"
   y1="0"
   x2="96"
   y2="512"
   id="line40"
   style="fill:none;stroke:#a9ccdb;stroke-miterlimit:10" />
		<line
   stroke-miterlimit="10"
   x1="128"
   y1="0"
   x2="128"
   y2="512"
   id="line42"
   style="fill:none;stroke:#a9ccdb;stroke-miterlimit:10" />
		<line
   stroke-miterlimit="10"
   x1="160"
   y1="0"
   x2="160"
   y2="512"
   id="line44"
   style="fill:none;stroke:#a9ccdb;stroke-miterlimit:10" />
		<line
   stroke-miterlimit="10"
   x1="192"
   y1="0"
   x2="192"
   y2="512"
   id="line46"
   style="fill:none;stroke:#a9ccdb;stroke-miterlimit:10" />
		<line
   stroke-miterlimit="10"
   x1="224"
   y1="0"
   x2="224"
   y2="512"
   id="line48"
   style="fill:none;stroke:#a9ccdb;stroke-miterlimit:10" />
		<line
   stroke-miterlimit="10"
   x1="256"
   y1="0"
   x2="256"
   y2="512"
   id="line50"
   style="fill:none;stroke:#a9ccdb;stroke-miterlimit:10" />
		<line
   stroke-miterlimit="10"
   x1="288"
   y1="0"
   x2="288"
   y2="512"
   id="line52"
   style="fill:none;stroke:#a9ccdb;stroke-miterlimit:10" />
		<line
   stroke-miterlimit="10"
   x1="320"
   y1="0"
   x2="320"
   y2="512"
   id="line54"
   style="fill:none;stroke:#a9ccdb;stroke-miterlimit:10" />
		<line
   stroke-miterlimit="10"
   x1="352"
   y1="0"
   x2="352"
   y2="512"
   id="line56"
   style="fill:none;stroke:#a9ccdb;stroke-miterlimit:10" />
		<line
   stroke-miterlimit="10"
   x1="384"
   y1="0"
   x2="384"
   y2="512"
   id="line58"
   style="fill:none;stroke:#a9ccdb;stroke-miterlimit:10" />
		<line
   stroke-miterlimit="10"
   x1="416"
   y1="0"
   x2="416"
   y2="512"
   id="line60"
   style="fill:none;stroke:#a9ccdb;stroke-miterlimit:10" />
		<line
   stroke-miterlimit="10"
   x1="448"
   y1="0"
   x2="448"
   y2="512"
   id="line62"
   style="fill:none;stroke:#a9ccdb;stroke-miterlimit:10" />
		<line
   stroke-miterlimit="10"
   x1="480"
   y1="0"
   x2="480"
   y2="512"
   id="line64"
   style="fill:none;stroke:#a9ccdb;stroke-miterlimit:10" />
	</g>
    <path
   glyph-name="u121FB"
   unicode="𒇻"
   horiz-adv-x="1233"
   d="m 810.45712,170.54563 -503.42539,0 c -39.25994,-0.23586 -93.94988,-2.80416 -126.61874,15.56705 -15.82408,8.54252 -22.07121,23.09189 -29.48084,36.74652 -8.17927,19.36356 -13.38342,40.08 -16.55193,61.47773 0.60326,34.05396 -0.4414,70.04062 -0.85525,104.17266 -0.52061,42.93683 -0.5606,83.97402 -0.89917,126.20301 -0.53181,66.33105 -2.12123,129.96075 4.1269,191.60753 5.14991,41.10758 23.8341,73.171 47.09605,96.86727 31.89118,32.4866 74.5971,57.89278 123.01944,71.87212 42.38286,13.88438 77.66836,12.99291 122.90734,13.68402 104.37871,2.81102 208.64312,1.05203 312.98241,-1.48319 20.96673,-1.0127 45.86565,2.41233 65.00139,-0.47517 16.21061,-3.16184 29.0909,-12.01488 38.76747,-23.98539 13.80275,-17.07485 21.08704,-40.49266 22.22024,-62.78386 -0.53676,-203.24807 -1.0482,-409.07438 -1.55035,-613.31272 -3.12264,-12.08987 -17.53026,-15.58659 -27.5117,-16.70991 -9.86786,-1.0508 -20.01625,-0.10171 -29.22787,0.55233 z m 25.36225,582.46256 c -1.00815,12.88483 0.26313,23.73513 -1.26314,39.1695 -1.08363,10.95811 -0.0754,23.13674 -5.98806,35.48474 -4.58614,9.57772 -14.08194,17.74513 -20.46091,21.6658 -12.65038,6.83952 -37.68563,8.16092 -65.36578,8.16092 -104.7092,0.97877 -213.54212,1.87801 -310.69372,-0.8182 -43.57419,-1.24259 -85.67759,-5.53214 -124.78399,-15.89617 -43.54781,-11.873 -80.58858,-38.43703 -107.54818,-70.35876 -13.94527,-17.55465 -26.39367,-43.30396 -30.3133,-65.34641 -4.16115,-65.13514 -1.36102,-127.68461 -2.28755,-190.36544 -0.82429,-55.7639 -0.61937,-110.63709 0.16839,-164.76287 0.40504,-23.41646 -1.16953,-41.42368 1.50793,-63.98498 3.399,-27.21727 14.44112,-63.29131 32.58403,-69.45193 34.52075,-12.82945 70.38239,-9.19828 103.88452,-9.49667 166.88739,-1.47557 339.541,-2.84887 508.75052,-2.74847 10.7598,-0.23543 17.71236,4.88667 20.05489,8.59683 4.78389,176.15022 1.75435,361.26171 1.75435,540.15211 z M 701.00807,496.87791 c 0,-7.21144 -2.18511,-10.81716 -6.55534,-10.81716 l -172.07754,0 0,-168.08205 c 0,-5.54726 -4.37022,-8.32089 -13.11067,-8.32089 -7.64789,0 -11.47183,2.77363 -11.47183,8.32089 l 0,168.08205 c -24.69814,0.62864 -48.12757,0.59355 -71.6828,0.70075 -25.65747,-1.05197 -61.23571,0.62012 -63.98295,0.53781 -15.11667,-0.39014 -54.06687,-1.6407 -62.22203,1.67992 -5.19755,2.72196 -7.76715,17.91933 0.24933,21.76707 19.43714,1.68683 40.45448,-0.75518 62.41835,0.0463 22.00343,0.96967 43.71331,-0.32547 63.53674,-0.63425 24.4127,-0.36466 48.36981,-0.78436 71.68336,-0.79913 -1.13335,29.02931 1.02307,60.67495 0.11314,88.45206 -0.8968,21.93641 -0.21404,44.87966 -0.30291,61.3746 -0.14113,26.19305 -1.48944,58.64912 2.38032,68.76764 8.54065,7.46259 13.86175,5.69022 17.14971,-0.87936 7.62648,-15.23825 4.31428,-56.28625 4.86892,-67.76328 1.13246,-20.16716 0.93756,-41.88982 0.71953,-62.34857 -0.5697,-28.7713 -0.34621,-57.9059 -0.34621,-87.60309 l 172.07754,0 c 4.37023,0 6.55534,-4.16045 6.55534,-12.48134 z"
   id="path39"
   inkscape:connector-curvature="0"
   sodipodi:nodetypes="cccccsscsccccscccccssccccccsccccccccccssccccccccccscscccscc" /> 
   </svg>