<?xml version="1.0" encoding="UTF-8" standalone="no"?>
<svg
   xmlns:dc="http://purl.org/dc/elements/1.1/"
   xmlns:cc="http://creativecommons.org/ns#"
   xmlns:rdf="http://www.w3.org/1999/02/22-rdf-syntax-ns#"
   xmlns:svg="http://www.w3.org/2000/svg"
   xmlns="http://www.w3.org/2000/svg"
   xmlns:sodipodi="http://sodipodi.sourceforge.net/DTD/sodipodi-0.dtd"
   xmlns:inkscape="http://www.inkscape.org/namespaces/inkscape"
   version="1.1"
   id="Layer_1"
   x="0px"
   y="0px"
   width="620"
   height="1024"
   viewBox="0 0 620 1024"
   enable-background="new 0 0 512 512"
   xml:space="preserve"
   inkscape:version="0.48.0 r9654"
   sodipodi:docname="ki-x12173.svg"><title
   id="title3743">Mesopotamian Font</title><metadata
   id="metadata72"><rdf:RDF><cc:Work
       rdf:about=""><dc:format>image/svg+xml</dc:format><dc:type
         rdf:resource="http://purl.org/dc/dcmitype/StillImage" /><dc:title>Sumerian</dc:title><dc:date>2017</dc:date><dc:creator><cc:Agent><dc:title>FlorinCB</dc:title></cc:Agent></dc:creator><dc:publisher><cc:Agent><dc:title>beitdina.net</dc:title></cc:Agent></dc:publisher></cc:Work></rdf:RDF></metadata><defs
   id="defs70" /><sodipodi:namedview
   pagecolor="#ffffff"
   bordercolor="#666666"
   borderopacity="1"
   objecttolerance="10"
   gridtolerance="10"
   guidetolerance="10"
   inkscape:pageopacity="0"
   inkscape:pageshadow="2"
   inkscape:window-width="1152"
   inkscape:window-height="814"
   id="namedview68"
   showgrid="false"
   inkscape:zoom="0.56264545"
   inkscape:cx="239.51382"
   inkscape:cy="694.30467"
   inkscape:window-x="-8"
   inkscape:window-y="-8"
   inkscape:window-maximized="1"
   inkscape:current-layer="Layer_1" />
   
	<g
   id="Grid"
   transform="matrix(1.948664,0,0,2.0011811,-2.6425584,2.4557768)">
		<rect
   x="0"
   stroke-miterlimit="10"
   width="512"
   height="512"
   id="rect4"
   y="0"
   style="fill:none;stroke:#a9ccdb;stroke-miterlimit:10" />
		<line
   stroke-miterlimit="10"
   x1="0"
   y1="32"
   x2="512"
   y2="32"
   id="line6"
   style="fill:none;stroke:#a9ccdb;stroke-miterlimit:10" />
		<line
   stroke-miterlimit="10"
   x1="0"
   y1="64"
   x2="512"
   y2="64"
   id="line8"
   style="fill:none;stroke:#a9ccdb;stroke-miterlimit:10" />
		<line
   stroke-miterlimit="10"
   x1="0"
   y1="96"
   x2="512"
   y2="96"
   id="line10"
   style="fill:none;stroke:#a9ccdb;stroke-miterlimit:10" />
		<line
   stroke-miterlimit="10"
   x1="0"
   y1="128"
   x2="512"
   y2="128"
   id="line12"
   style="fill:none;stroke:#a9ccdb;stroke-miterlimit:10" />
		<line
   stroke-miterlimit="10"
   x1="0"
   y1="160"
   x2="512"
   y2="160"
   id="line14"
   style="fill:none;stroke:#a9ccdb;stroke-miterlimit:10" />
		<line
   stroke-miterlimit="10"
   x1="0"
   y1="192"
   x2="512"
   y2="192"
   id="line16"
   style="fill:none;stroke:#a9ccdb;stroke-miterlimit:10" />
		<line
   stroke-miterlimit="10"
   x1="0"
   y1="224"
   x2="512"
   y2="224"
   id="line18"
   style="fill:none;stroke:#a9ccdb;stroke-miterlimit:10" />
		<line
   stroke-miterlimit="10"
   x1="0"
   y1="256"
   x2="512"
   y2="256"
   id="line20"
   style="fill:none;stroke:#a9ccdb;stroke-miterlimit:10" />
		<line
   stroke-miterlimit="10"
   x1="0"
   y1="288"
   x2="512"
   y2="288"
   id="line22"
   style="fill:none;stroke:#a9ccdb;stroke-miterlimit:10" />
		<line
   stroke-miterlimit="10"
   x1="0"
   y1="320"
   x2="512"
   y2="320"
   id="line24"
   style="fill:none;stroke:#a9ccdb;stroke-miterlimit:10" />
		<line
   stroke-miterlimit="10"
   x1="0"
   y1="352"
   x2="512"
   y2="352"
   id="line26"
   style="fill:none;stroke:#a9ccdb;stroke-miterlimit:10" />
		<line
   stroke-miterlimit="10"
   x1="0"
   y1="384"
   x2="512"
   y2="384"
   id="line28"
   style="fill:none;stroke:#a9ccdb;stroke-miterlimit:10" />
		<line
   stroke-miterlimit="10"
   x1="0"
   y1="416"
   x2="512"
   y2="416"
   id="line30"
   style="fill:none;stroke:#a9ccdb;stroke-miterlimit:10" />
		<line
   stroke-miterlimit="10"
   x1="0"
   y1="448"
   x2="512"
   y2="448"
   id="line32"
   style="fill:none;stroke:#ff0000;stroke-miterlimit:10" />
		<line
   stroke-miterlimit="10"
   x1="0"
   y1="480"
   x2="512"
   y2="480"
   id="line34"
   style="fill:none;stroke:#a9ccdb;stroke-miterlimit:10" />
		<line
   stroke-miterlimit="10"
   x1="32"
   y1="0"
   x2="32"
   y2="512"
   id="line36"
   style="fill:none;stroke:#a9ccdb;stroke-miterlimit:10" />
		<line
   stroke-miterlimit="10"
   x1="64"
   y1="0"
   x2="64"
   y2="512"
   id="line38"
   style="fill:none;stroke:#a9ccdb;stroke-miterlimit:10" />
		<line
   stroke-miterlimit="10"
   x1="96"
   y1="0"
   x2="96"
   y2="512"
   id="line40"
   style="fill:none;stroke:#a9ccdb;stroke-miterlimit:10" />
		<line
   stroke-miterlimit="10"
   x1="128"
   y1="0"
   x2="128"
   y2="512"
   id="line42"
   style="fill:none;stroke:#a9ccdb;stroke-miterlimit:10" />
		<line
   stroke-miterlimit="10"
   x1="160"
   y1="0"
   x2="160"
   y2="512"
   id="line44"
   style="fill:none;stroke:#a9ccdb;stroke-miterlimit:10" />
		<line
   stroke-miterlimit="10"
   x1="192"
   y1="0"
   x2="192"
   y2="512"
   id="line46"
   style="fill:none;stroke:#a9ccdb;stroke-miterlimit:10" />
		<line
   stroke-miterlimit="10"
   x1="224"
   y1="0"
   x2="224"
   y2="512"
   id="line48"
   style="fill:none;stroke:#a9ccdb;stroke-miterlimit:10" />
		<line
   stroke-miterlimit="10"
   x1="256"
   y1="0"
   x2="256"
   y2="512"
   id="line50"
   style="fill:none;stroke:#a9ccdb;stroke-miterlimit:10" />
		<line
   stroke-miterlimit="10"
   x1="288"
   y1="0"
   x2="288"
   y2="512"
   id="line52"
   style="fill:none;stroke:#a9ccdb;stroke-miterlimit:10" />
		<line
   stroke-miterlimit="10"
   x1="320"
   y1="0"
   x2="320"
   y2="512"
   id="line54"
   style="fill:none;stroke:#a9ccdb;stroke-miterlimit:10" />
		<line
   stroke-miterlimit="10"
   x1="352"
   y1="0"
   x2="352"
   y2="512"
   id="line56"
   style="fill:none;stroke:#a9ccdb;stroke-miterlimit:10" />
		<line
   stroke-miterlimit="10"
   x1="384"
   y1="0"
   x2="384"
   y2="512"
   id="line58"
   style="fill:none;stroke:#a9ccdb;stroke-miterlimit:10" />
		<line
   stroke-miterlimit="10"
   x1="416"
   y1="0"
   x2="416"
   y2="512"
   id="line60"
   style="fill:none;stroke:#a9ccdb;stroke-miterlimit:10" />
		<line
   stroke-miterlimit="10"
   x1="448"
   y1="0"
   x2="448"
   y2="512"
   id="line62"
   style="fill:none;stroke:#a9ccdb;stroke-miterlimit:10" />
		<line
   stroke-miterlimit="10"
   x1="480"
   y1="0"
   x2="480"
   y2="512"
   id="line64"
   style="fill:none;stroke:#a9ccdb;stroke-miterlimit:10" />
	</g>
     
	
    


	 
<path
   style="fill:#5d5d5d"
   d="m 63.790617,484.43533 c 4.723533,35.99091 14.08662,66.44463 27.528296,101.59914 15.476167,48.12369 36.978157,85.9399 62.620897,122.52861 9.11392,13.00433 20.24758,29.79643 29.56222,42.74615 20.74601,28.70364 39.34288,53.40141 62.43388,79.60364 17.99585,20.42057 41.75822,52.40002 65.47678,53.24635 27.29565,-10.10436 48.24423,-31.92604 67.81623,-49.98915 20.1797,-20.04127 37.94261,-39.316 55.9997,-61.48743 24.86771,-30.53386 43.87785,-65.82641 62.97833,-96.88336 17.89763,-28.63339 36.02,-55.49081 40.9382,-75.78381 10.02423,-43.22183 14.62365,-102.24758 8.0295,-141.65093 -3.83093,-22.27256 -9.38523,-44.07716 -16.45733,-65.71834 -7.89505,-21.58712 -9.23288,-40.35285 -18.31946,-61.04906 C 501.32779,311.09163 493.29823,289.54169 482.3273,268.45499 471.07723,245.13996 452.50413,223.11855 438.58525,202.79309 424.77168,182.62142 407.5618,162.88252 393.53092,141.51315 370.52464,121.92416 337.92108,76.125837 312.45644,72.954719 263.00901,104.9189 222.97252,150.25426 189.53403,200.15871 c -3.71182,5.53963 -7.34234,11.13555 -10.89542,16.77573 -35.96313,57.08824 -63.99128,118.71092 -88.074205,172.38355 -14.327962,31.67968 -22.196646,63.51747 -26.773788,95.11734 z M 439.53024,280.40247 c -1.7639,-0.2914 -8.5305,-1.18599 -10.24784,-1.4289 -20.12437,0.808 -46.19258,-1.35926 -58.55431,-0.99786 -19.16928,0.60081 -40.99937,-0.0454 -60.96891,-0.34732 -23.44394,-0.35442 -44.79894,-0.47193 -63.32971,-1.06782 -21.64703,-0.69609 -38.93517,2.77349 -42.05364,-3.88995 0.0743,-5.56337 14.63686,-24.92908 19.23923,-26.96448 6.68601,-0.9782 12.97502,0.0209 20.06674,-0.28695 22.6511,-0.98349 46.63771,0.72285 67.27136,0.46033 15.70037,-0.23119 28.12785,-1.10404 42.17936,-3.68597 14.98845,-2.8417 28.01178,-7.63157 28.39908,-15.8068 -5.17795,-6.38172 -18.18061,-10.4944 -30.79988,-12.39746 -15.88449,-2.39548 -33.29031,-2.28543 -41.2063,-2.29452 -17.52971,-0.0246 -33.06395,-1.76322 -52.06455,-1.65074 -5.05156,0.0299 -12.07892,-0.36152 -17.31554,-0.36152 31.51555,-39.92307 54.53673,-66.99626 75.07323,-75.90583 29.63684,15.50377 49.34348,39.52173 68.30133,64.7687 20.12883,26.80645 39.07132,55.15843 56.01035,81.85709 z m -68.50918,77.05866 c -21.68137,-0.26112 -41.34632,-0.77064 -62.22043,-1.03429 -22.9476,-0.27609 -41.10944,-0.98742 -61.78694,0.31773 -13.91041,0.64561 -25.28665,4.48075 -30.763,7.53189 -8.28233,5.01425 -2.79745,15.62969 1.00408,18.29844 5.73456,3.81996 20.74465,6.38431 27.89108,7.04365 66.96523,4.30749 122.12206,1.35748 188.93443,1.89386 l 52.68929,0.39707 c 5.41689,20.83887 9.27349,44.60886 15.53027,67.01408 5.76357,30.46979 7.19176,76.89662 -0.86247,103.3826 -23.82974,-0.79247 -42.42513,-0.98009 -66.60082,-0.93981 -20.68358,0.0345 -41.3122,0.23575 -61.57516,0.3678 -21.35939,0.75232 -42.56362,0.2534 -63.45561,-0.25196 -21.56383,-0.52162 -42.79502,-1.0501 -63.52082,-0.21665 -14.30472,0.46891 -27.35964,1.16791 -35.4346,11.48802 -3.88482,5.29861 -4.46128,6.17315 0.72455,13.40456 11.39447,10.71682 20.35613,12.59279 33.49019,12.69329 21.16713,0.15191 41.60306,-0.4663 61.58859,-0.58953 22.98153,-0.14269 42.30495,-0.38959 64.70867,-0.14918 l 123.19961,1.38274 c -8.76989,13.15697 -16.20901,28.31472 -23.79878,42.27849 -10.94714,15.27489 -24.6795,42.52669 -38.51062,63.94749 -16.41579,25.42378 -35.26719,46.81059 -49.03529,64.11335 -21.66312,19.50364 -45.28088,57.93044 -73.39517,60.19262 -17.4977,-19.88986 -38.14628,-38.17605 -55.7055,-59.18887 -16.68136,-19.9623 -29.87032,-39.97934 -45.00876,-59.19233 -14.71172,-18.67067 -28.1408,-43.95601 -38.87573,-63.56657 -12.24554,-22.54092 -19.77935,-43.18547 -30.06695,-65.22308 -16.29123,-34.86279 -28.72174,-68.00066 -26.50613,-98.56663 11.13457,-36.31364 18.2482,-67.51307 32.36781,-97.42798 9.42467,-25.05045 26.78313,-47.00243 37.74969,-65.62031 21.48238,0.96952 43.03182,0.22627 63.2702,0.27139 21.26832,0.0474 41.85166,0.0118 62.43002,-0.0533 20.92275,-0.0662 41.84034,-0.16287 63.46748,-0.23382 21.11366,-0.0231 50.49941,0.0233 60.93647,0.51962 8.59319,0.429 9.24317,1.11969 17.95724,4.34953 5.92618,2.24308 10.54549,5.36637 12.92301,9.77901 2.48892,4.5907 10.48567,19.79903 9.51153,21.1064 -33.29617,-2.22484 -72.88446,0.82335 -103.25143,0.48068 z m -127.31273,74.82201 c -18.62821,2.44026 -32.63266,8.40994 -31.22946,14.83359 8.18822,9.5469 20.84991,10.64963 33.34868,12.49995 44.86562,4.37966 87.98576,3.22875 130.67504,3.41939 22.33623,0.12101 49.33471,-1.91626 67.90192,-5.65866 17.40847,-8.92484 16.8499,-17.64849 0.0778,-20.84982 -22.79572,-5.01504 -46.10433,-5.33959 -67.03246,-6.35928 -32.53876,-2.01926 -49.26594,-1.79096 -68.50026,-0.8536 -20.86463,0.59521 -49.87525,-0.68336 -65.24126,2.96843 z m 2.33613,100.49337 c 47.53949,3.03592 81.74442,1.37555 126.35143,0.15682 20.31063,-1.35039 67.81274,0.28237 82.43881,-9.18549 2.21089,-3.71441 1.84992,-6.65207 -0.32867,-8.97122 -10.21293,-10.87184 -71.34076,-11.70513 -83.73803,-11.69036 -25.65107,-0.0323 -47.64361,-1.51297 -63.34811,-1.70052 -22.48683,-0.25857 -41.34388,-0.29578 -62.34837,1.93217 -20.52623,3.29961 -32.94078,12.05016 -31.92784,18.22553 6.60111,8.00422 24.68034,10.01325 32.90078,11.23307 z M 229.3718,690.08185 c 8.56761,5.01272 19.93255,8.32137 32.64462,10.41021 32.34139,5.31429 73.40224,2.73293 99.30083,0.22956 23.70075,-2.34166 41.40112,-6.24392 45.31826,-10.63977 5.2626,-5.90574 -9.68777,-18.22069 -41.99807,-20.03178 -16.90168,0.20243 -65.44698,-2.6758 -99.10302,-0.052 -10.51587,1.66098 -33.2018,9.79402 -36.16262,20.08378 z"
   id="path3762"
   inkscape:connector-curvature="0"
   sodipodi:nodetypes="ccscsccsccccccsccsscccccssccscccscsccscccccccccccscsccccccccsccsccccccssccccccccccccccccccccccccccccccc" />
	 
	 
</svg>