<?xml version="1.0" encoding="UTF-8" standalone="no"?>
<svg
   xmlns:dc="http://purl.org/dc/elements/1.1/"
   xmlns:cc="http://creativecommons.org/ns#"
   xmlns:rdf="http://www.w3.org/1999/02/22-rdf-syntax-ns#"
   xmlns:svg="http://www.w3.org/2000/svg"
   xmlns="http://www.w3.org/2000/svg"
   xmlns:sodipodi="http://sodipodi.sourceforge.net/DTD/sodipodi-0.dtd"
   xmlns:inkscape="http://www.inkscape.org/namespaces/inkscape"
   version="1.1"
   id="Layer_1"
   x="0px"
   y="0px"
   width="1000"
   height="1024"
   viewBox="0 0 1000 1024"
   enable-background="new 0 0 512 512"
   xml:space="preserve"
   inkscape:version="0.48.0 r9654"
   sodipodi:docname="kud-x12128.svg"><title
   id="title3743">Mesopotamian Font</title><metadata
   id="metadata72"><rdf:RDF><cc:Work
       rdf:about=""><dc:format>image/svg+xml</dc:format><dc:type
         rdf:resource="http://purl.org/dc/dcmitype/StillImage" /><dc:title>Sinai 357</dc:title><dc:date>2017</dc:date><dc:creator><cc:Agent><dc:title>Celeste Claire Horner</dc:title></cc:Agent></dc:creator><dc:publisher><cc:Agent><dc:title>beitdina.net</dc:title></cc:Agent></dc:publisher></cc:Work></rdf:RDF></metadata><defs
   id="defs70" /><sodipodi:namedview
   pagecolor="#ffffff"
   bordercolor="#666666"
   borderopacity="1"
   objecttolerance="10"
   gridtolerance="10"
   guidetolerance="10"
   inkscape:pageopacity="0"
   inkscape:pageshadow="2"
   inkscape:window-width="1034"
   inkscape:window-height="740"
   id="namedview68"
   showgrid="false"
   inkscape:zoom="0.36479164"
   inkscape:cx="148.9359"
   inkscape:cy="447.956"
   inkscape:window-x="37"
   inkscape:window-y="31"
   inkscape:window-maximized="0"
   inkscape:current-layer="Layer_1" />
   
	<g
   id="Grid"
   transform="matrix(1.9502951,0,0,1.9942504,1.456297,2.45274)">
		<rect
   x="0"
   stroke-miterlimit="10"
   width="512"
   height="512"
   id="rect4"
   y="0"
   style="fill:none;stroke:#a9ccdb;stroke-miterlimit:10" />
		<line
   stroke-miterlimit="10"
   x1="0"
   y1="32"
   x2="512"
   y2="32"
   id="line6"
   style="fill:none;stroke:#a9ccdb;stroke-miterlimit:10" />
		<line
   stroke-miterlimit="10"
   x1="0"
   y1="64"
   x2="512"
   y2="64"
   id="line8"
   style="fill:none;stroke:#a9ccdb;stroke-miterlimit:10" />
		<line
   stroke-miterlimit="10"
   x1="0"
   y1="96"
   x2="512"
   y2="96"
   id="line10"
   style="fill:none;stroke:#a9ccdb;stroke-miterlimit:10" />
		<line
   stroke-miterlimit="10"
   x1="0"
   y1="128"
   x2="512"
   y2="128"
   id="line12"
   style="fill:none;stroke:#a9ccdb;stroke-miterlimit:10" />
		<line
   stroke-miterlimit="10"
   x1="0"
   y1="160"
   x2="512"
   y2="160"
   id="line14"
   style="fill:none;stroke:#a9ccdb;stroke-miterlimit:10" />
		<line
   stroke-miterlimit="10"
   x1="0"
   y1="192"
   x2="512"
   y2="192"
   id="line16"
   style="fill:none;stroke:#a9ccdb;stroke-miterlimit:10" />
		<line
   stroke-miterlimit="10"
   x1="0"
   y1="224"
   x2="512"
   y2="224"
   id="line18"
   style="fill:none;stroke:#a9ccdb;stroke-miterlimit:10" />
		<line
   stroke-miterlimit="10"
   x1="0"
   y1="256"
   x2="512"
   y2="256"
   id="line20"
   style="fill:none;stroke:#a9ccdb;stroke-miterlimit:10" />
		<line
   stroke-miterlimit="10"
   x1="0"
   y1="288"
   x2="512"
   y2="288"
   id="line22"
   style="fill:none;stroke:#a9ccdb;stroke-miterlimit:10" />
		<line
   stroke-miterlimit="10"
   x1="0"
   y1="320"
   x2="512"
   y2="320"
   id="line24"
   style="fill:none;stroke:#a9ccdb;stroke-miterlimit:10" />
		<line
   stroke-miterlimit="10"
   x1="0"
   y1="352"
   x2="512"
   y2="352"
   id="line26"
   style="fill:none;stroke:#a9ccdb;stroke-miterlimit:10" />
		<line
   stroke-miterlimit="10"
   x1="0"
   y1="384"
   x2="512"
   y2="384"
   id="line28"
   style="fill:none;stroke:#a9ccdb;stroke-miterlimit:10" />
		<line
   stroke-miterlimit="10"
   x1="0"
   y1="416"
   x2="512"
   y2="416"
   id="line30"
   style="fill:none;stroke:#a9ccdb;stroke-miterlimit:10" />
		<line
   stroke-miterlimit="10"
   x1="0"
   y1="448"
   x2="512"
   y2="448"
   id="line32"
   style="fill:none;stroke:#ff0000;stroke-miterlimit:10" />
		<line
   stroke-miterlimit="10"
   x1="0"
   y1="480"
   x2="512"
   y2="480"
   id="line34"
   style="fill:none;stroke:#a9ccdb;stroke-miterlimit:10" />
		<line
   stroke-miterlimit="10"
   x1="32"
   y1="0"
   x2="32"
   y2="512"
   id="line36"
   style="fill:none;stroke:#a9ccdb;stroke-miterlimit:10" />
		<line
   stroke-miterlimit="10"
   x1="64"
   y1="0"
   x2="64"
   y2="512"
   id="line38"
   style="fill:none;stroke:#a9ccdb;stroke-miterlimit:10" />
		<line
   stroke-miterlimit="10"
   x1="96"
   y1="0"
   x2="96"
   y2="512"
   id="line40"
   style="fill:none;stroke:#a9ccdb;stroke-miterlimit:10" />
		<line
   stroke-miterlimit="10"
   x1="128"
   y1="0"
   x2="128"
   y2="512"
   id="line42"
   style="fill:none;stroke:#a9ccdb;stroke-miterlimit:10" />
		<line
   stroke-miterlimit="10"
   x1="160"
   y1="0"
   x2="160"
   y2="512"
   id="line44"
   style="fill:none;stroke:#a9ccdb;stroke-miterlimit:10" />
		<line
   stroke-miterlimit="10"
   x1="192"
   y1="0"
   x2="192"
   y2="512"
   id="line46"
   style="fill:none;stroke:#a9ccdb;stroke-miterlimit:10" />
		<line
   stroke-miterlimit="10"
   x1="224"
   y1="0"
   x2="224"
   y2="512"
   id="line48"
   style="fill:none;stroke:#a9ccdb;stroke-miterlimit:10" />
		<line
   stroke-miterlimit="10"
   x1="256"
   y1="0"
   x2="256"
   y2="512"
   id="line50"
   style="fill:none;stroke:#a9ccdb;stroke-miterlimit:10" />
		<line
   stroke-miterlimit="10"
   x1="288"
   y1="0"
   x2="288"
   y2="512"
   id="line52"
   style="fill:none;stroke:#a9ccdb;stroke-miterlimit:10" />
		<line
   stroke-miterlimit="10"
   x1="320"
   y1="0"
   x2="320"
   y2="512"
   id="line54"
   style="fill:none;stroke:#a9ccdb;stroke-miterlimit:10" />
		<line
   stroke-miterlimit="10"
   x1="352"
   y1="0"
   x2="352"
   y2="512"
   id="line56"
   style="fill:none;stroke:#a9ccdb;stroke-miterlimit:10" />
		<line
   stroke-miterlimit="10"
   x1="384"
   y1="0"
   x2="384"
   y2="512"
   id="line58"
   style="fill:none;stroke:#a9ccdb;stroke-miterlimit:10" />
		<line
   stroke-miterlimit="10"
   x1="416"
   y1="0"
   x2="416"
   y2="512"
   id="line60"
   style="fill:none;stroke:#a9ccdb;stroke-miterlimit:10" />
		<line
   stroke-miterlimit="10"
   x1="448"
   y1="0"
   x2="448"
   y2="512"
   id="line62"
   style="fill:none;stroke:#a9ccdb;stroke-miterlimit:10" />
		<line
   stroke-miterlimit="10"
   x1="480"
   y1="0"
   x2="480"
   y2="512"
   id="line64"
   style="fill:none;stroke:#a9ccdb;stroke-miterlimit:10" />
	</g>
 <path
   sodipodi:nodetypes="ccccccccccsccccccssccccscccscsccsscccccsccccccscccccscccccccsccccccccccccccccccccccsc"
   inkscape:connector-curvature="0"
   id="path3766"
   d="m 659.08892,515.37566 c -31.65365,-24.02492 -50.15902,-72.4131 -75.13828,-96.72344 -18.34143,-31.02291 -34.0718,-29.49139 -66.04322,-38.57898 -15.2652,-4.89933 -25.05721,-8.93313 -24.26442,-13.05658 11.88817,-17.22829 38.20832,-23.87803 61.23857,-33.84524 20.0713,-11.01657 52.06443,-27.1739 56.4832,-42.71472 0,-19.5889 -50.75652,-38.27929 -70.6282,-20.01659 -23.97269,15.07622 -59.07344,41.46113 -91.10006,58.25201 -3.79029,1.92649 -10.38403,0.95478 -14.51111,1.99688 -13.83705,4.31644 -23.48324,25.42077 -27.85892,27.24646 -47.95668,17.86064 -80.39258,33.15939 -119.42999,46.59402 -24.379,8.38998 -67.87024,11.4031 -92.43423,28.16804 -21.58887,9.93572 -36.85333,35.30308 -54.72878,42.12207 -7.28357,2.6788 -24.99878,1.56991 -37.78165,2.46847 -11.146281,2.0539 -21.05157,1.53085 -30.934558,6.91923 -19.252854,13.66392 -21.362576,30.3923 -4.001026,45.11443 11.456517,24.75878 34.291844,-1.86188 36.622774,22.02867 -0.74428,5.45617 -5.966894,1.00437 -8.468136,6.27125 -1.514649,3.18938 -8.482728,6.64452 -10.736855,10.13096 -3.891368,6.01876 -3.441056,12.13079 -6.582826,17.12995 -10.231249,11.73444 -13.36423,18.1833 -15.011846,35.58602 -0.26441,4.79059 1.289807,9.00783 6.177644,11.46449 10.46323,5.03798 31.538029,-0.0795 42.563479,-0.85011 12.82462,-0.68641 27.62622,-3.7909 39.56172,3.05003 37.89732,21.7212 118.5836,58.27179 165.26749,69.03978 16.92375,2.51038 23.94516,1.9227 31.36731,8.08301 4.49727,3.75738 7.53572,8.40177 10.12748,12.98027 6.578,11.66409 12.68321,27.3112 18.19679,35.93783 12.08164,18.90315 32.07202,39.95953 51.54835,49.44473 12.23507,5.37755 42.36843,14.70926 56.76359,13.99847 18.8737,-0.93194 28.79132,-12.72387 28.1022,-25.21684 -2.40664,-12.63062 -16.89285,-18.52331 -32.29443,-22.86883 -23.65824,-4.98198 -42.80399,-10.46275 -58.80344,-26.7869 -7.36928,-7.51883 -11.00366,-15.73982 -15.46396,-25.71217 -1.27386,-2.84809 -3.74063,-8.28938 -4.99847,-10.88809 11.82121,6.8573 44.44204,-1.75439 49.40427,-0.99416 0.73985,3.66217 2.60028,7.19137 4.95719,10.54234 13.72526,31.45489 58.92076,51.27582 94.03211,54.59531 16.91213,1.28308 41.4384,-0.49034 61.39142,-3.98214 19.06006,-3.30383 36.00903,-6.70386 30.36064,-31.45096 -4.25005,-18.62057 -28.04372,-14.14102 -39.24733,-13.51505 -38.49187,-1.03218 -73.81274,13.99312 -99.38465,-13.75919 -2.89847,-3.84408 -7.92851,-5.4039 -6.67008,-9.60576 10.05434,-5.92119 21.99519,-8.92364 32.41287,-11.83648 36.15632,-11.86502 57.4838,-45.64954 88.77286,-65.33758 13.62395,-8.88801 25.15089,-12.63097 34.42473,-13.64909 7.78284,4.72383 10.47958,3.98052 18.32119,12.54907 19.91157,21.75751 45.249,49.80729 61.71295,64.60383 22.5258,18.60608 52.29498,14.58434 44.20888,-18.95884 -6.44125,-30.61102 -36.17109,-44.95827 -50.00478,-65.75993 -7.99029,-14.36115 -9.24879,-14.51805 5.0699,-20.90801 13.25408,-5.89284 28.89949,-11.01936 41.3342,-14.59931 24.24821,-12.95725 77.55858,-17.05669 97.86818,-32.82827 2.35585,-1.82945 2.58898,-5.41124 4.08135,-7.53827 3.3571,-5.21307 1.55122,-18.94337 1.53971,-21.42332 -7.19689,-28.92344 -33.75928,-13.01632 -52.39317,-8.2619 -27.28808,7.15069 -56.34051,16.16581 -79.34139,25.87044 -23.05811,9.73419 -46.88442,19.78862 -61.48134,17.85027 -13.07006,-5.31443 -15.95923,-19.55717 -24.1759,-28.37158 z m -65.16459,68.29353 c -5.17651,1.82503 -27.08601,16.89327 -44.43874,29.44981 -15.87433,11.48675 -27.25675,20.73851 -32.53544,18.57379 -15.31136,-6.279 -24.41757,-12.58204 -38.58287,-8.43734 -17.71982,3.37376 -20.85398,25.67171 -28.71052,34.57933 -9.6146,5.49495 -17.63755,9.21989 -25.94254,11.37526 -21.30739,8.9779 -42.82765,1.22006 -60.66398,-3.43911 -15.40123,-6.00458 -23.41897,-6.01347 -37.63569,-6.61214 -48.1731,-2.09546 -90.1754,-32.09415 -126.74399,-52.33261 -6.22501,-2.98997 -26.97184,-14.33397 -31.4416,-18.57242 -12.00541,-11.52039 -16.1839,-11.06802 -14.27322,-25.8436 8.41553,-28.98407 25.63905,-54.62966 49.13223,-75.72349 31.75108,-31.86834 81.65236,-30.27955 121.07214,-45.03345 36.88479,-14.44977 54.49797,-27.88921 95.77557,-28.80572 27.09942,6.53166 41.33474,8.42607 72.30342,14.07905 19.5009,3.49106 34.41653,5.28685 41.63748,10.1014 24.35232,17.41183 34.40972,48.22429 49.35736,69.10475 7.74599,10.36401 11.9989,21.68897 20.5456,30.26391 9.77502,9.82886 20.84791,20.41797 19.20581,32.0433 -0.73616,4.2508 -2.38024,6.17534 -28.06102,15.22936 z M 296.46826,525.80628 c -1.9798,-8.20844 -13.82348,-20.46703 -31.23434,-20.83217 -20.38253,-0.16477 -22.21863,19.69807 -19.91247,26.65677 2.37959,9.78562 7.64709,10.89058 18.21249,13.93403 15.06644,4.34003 36.01621,-3.96842 32.93432,-19.75863 z" />   
   
  </svg>