<?xml version="1.0" encoding="UTF-8" standalone="no"?>
<svg
   xmlns:dc="http://purl.org/dc/elements/1.1/"
   xmlns:cc="http://creativecommons.org/ns#"
   xmlns:rdf="http://www.w3.org/1999/02/22-rdf-syntax-ns#"
   xmlns:svg="http://www.w3.org/2000/svg"
   xmlns="http://www.w3.org/2000/svg"
   xmlns:sodipodi="http://sodipodi.sourceforge.net/DTD/sodipodi-0.dtd"
   xmlns:inkscape="http://www.inkscape.org/namespaces/inkscape"
   version="1.1"
   id="Layer_1"
   x="0px"
   y="0px"
   width="1000"
   height="1024"
   viewBox="0 0 1000 1024"
   enable-background="new 0 0 512 512"
   xml:space="preserve"
   inkscape:version="0.48.0 r9654"
   sodipodi:docname="Lu2-x121fd.svg"><title
   id="title3743">Mesopotamian Font</title><metadata
   id="metadata72"><rdf:RDF><cc:Work
       rdf:about=""><dc:format>image/svg+xml</dc:format><dc:type
         rdf:resource="http://purl.org/dc/dcmitype/StillImage" /><dc:title>Sinai 357</dc:title><dc:date>2017</dc:date><dc:creator><cc:Agent><dc:title>Celeste Claire Horner</dc:title></cc:Agent></dc:creator><dc:publisher><cc:Agent><dc:title>beitdina.net</dc:title></cc:Agent></dc:publisher></cc:Work></rdf:RDF></metadata><defs
   id="defs70" /><sodipodi:namedview
   pagecolor="#ffffff"
   bordercolor="#666666"
   borderopacity="1"
   objecttolerance="10"
   gridtolerance="10"
   guidetolerance="10"
   inkscape:pageopacity="0"
   inkscape:pageshadow="2"
   inkscape:window-width="923"
   inkscape:window-height="679"
   id="namedview68"
   showgrid="false"
   inkscape:zoom="0.1989252"
   inkscape:cx="-561.69338"
   inkscape:cy="831.12335"
   inkscape:window-x="154"
   inkscape:window-y="88"
   inkscape:window-maximized="0"
   inkscape:current-layer="Layer_1" />
   
	<g
   id="Grid"
   transform="matrix(1.948664,0,0,2.0011811,-2.6425584,2.4557964)">
		<rect
   x="0"
   stroke-miterlimit="10"
   width="512"
   height="512"
   id="rect4"
   y="0"
   style="fill:none;stroke:#a9ccdb;stroke-miterlimit:10" />
		<line
   stroke-miterlimit="10"
   x1="0"
   y1="32"
   x2="512"
   y2="32"
   id="line6"
   style="fill:none;stroke:#a9ccdb;stroke-miterlimit:10" />
		<line
   stroke-miterlimit="10"
   x1="0"
   y1="64"
   x2="512"
   y2="64"
   id="line8"
   style="fill:none;stroke:#a9ccdb;stroke-miterlimit:10" />
		<line
   stroke-miterlimit="10"
   x1="0"
   y1="96"
   x2="512"
   y2="96"
   id="line10"
   style="fill:none;stroke:#a9ccdb;stroke-miterlimit:10" />
		<line
   stroke-miterlimit="10"
   x1="0"
   y1="128"
   x2="512"
   y2="128"
   id="line12"
   style="fill:none;stroke:#a9ccdb;stroke-miterlimit:10" />
		<line
   stroke-miterlimit="10"
   x1="0"
   y1="160"
   x2="512"
   y2="160"
   id="line14"
   style="fill:none;stroke:#a9ccdb;stroke-miterlimit:10" />
		<line
   stroke-miterlimit="10"
   x1="0"
   y1="192"
   x2="512"
   y2="192"
   id="line16"
   style="fill:none;stroke:#a9ccdb;stroke-miterlimit:10" />
		<line
   stroke-miterlimit="10"
   x1="0"
   y1="224"
   x2="512"
   y2="224"
   id="line18"
   style="fill:none;stroke:#a9ccdb;stroke-miterlimit:10" />
		<line
   stroke-miterlimit="10"
   x1="0"
   y1="256"
   x2="512"
   y2="256"
   id="line20"
   style="fill:none;stroke:#a9ccdb;stroke-miterlimit:10" />
		<line
   stroke-miterlimit="10"
   x1="0"
   y1="288"
   x2="512"
   y2="288"
   id="line22"
   style="fill:none;stroke:#a9ccdb;stroke-miterlimit:10" />
		<line
   stroke-miterlimit="10"
   x1="0"
   y1="320"
   x2="512"
   y2="320"
   id="line24"
   style="fill:none;stroke:#a9ccdb;stroke-miterlimit:10" />
		<line
   stroke-miterlimit="10"
   x1="0"
   y1="352"
   x2="512"
   y2="352"
   id="line26"
   style="fill:none;stroke:#a9ccdb;stroke-miterlimit:10" />
		<line
   stroke-miterlimit="10"
   x1="0"
   y1="384"
   x2="512"
   y2="384"
   id="line28"
   style="fill:none;stroke:#a9ccdb;stroke-miterlimit:10" />
		<line
   stroke-miterlimit="10"
   x1="0"
   y1="416"
   x2="512"
   y2="416"
   id="line30"
   style="fill:none;stroke:#a9ccdb;stroke-miterlimit:10" />
		<line
   stroke-miterlimit="10"
   x1="0"
   y1="448"
   x2="512"
   y2="448"
   id="line32"
   style="fill:none;stroke:#ff0000;stroke-miterlimit:10" />
		<line
   stroke-miterlimit="10"
   x1="0"
   y1="480"
   x2="512"
   y2="480"
   id="line34"
   style="fill:none;stroke:#a9ccdb;stroke-miterlimit:10" />
		<line
   stroke-miterlimit="10"
   x1="32"
   y1="0"
   x2="32"
   y2="512"
   id="line36"
   style="fill:none;stroke:#a9ccdb;stroke-miterlimit:10" />
		<line
   stroke-miterlimit="10"
   x1="64"
   y1="0"
   x2="64"
   y2="512"
   id="line38"
   style="fill:none;stroke:#a9ccdb;stroke-miterlimit:10" />
		<line
   stroke-miterlimit="10"
   x1="96"
   y1="0"
   x2="96"
   y2="512"
   id="line40"
   style="fill:none;stroke:#a9ccdb;stroke-miterlimit:10" />
		<line
   stroke-miterlimit="10"
   x1="128"
   y1="0"
   x2="128"
   y2="512"
   id="line42"
   style="fill:none;stroke:#a9ccdb;stroke-miterlimit:10" />
		<line
   stroke-miterlimit="10"
   x1="160"
   y1="0"
   x2="160"
   y2="512"
   id="line44"
   style="fill:none;stroke:#a9ccdb;stroke-miterlimit:10" />
		<line
   stroke-miterlimit="10"
   x1="192"
   y1="0"
   x2="192"
   y2="512"
   id="line46"
   style="fill:none;stroke:#a9ccdb;stroke-miterlimit:10" />
		<line
   stroke-miterlimit="10"
   x1="224"
   y1="0"
   x2="224"
   y2="512"
   id="line48"
   style="fill:none;stroke:#a9ccdb;stroke-miterlimit:10" />
		<line
   stroke-miterlimit="10"
   x1="256"
   y1="0"
   x2="256"
   y2="512"
   id="line50"
   style="fill:none;stroke:#a9ccdb;stroke-miterlimit:10" />
		<line
   stroke-miterlimit="10"
   x1="288"
   y1="0"
   x2="288"
   y2="512"
   id="line52"
   style="fill:none;stroke:#a9ccdb;stroke-miterlimit:10" />
		<line
   stroke-miterlimit="10"
   x1="320"
   y1="0"
   x2="320"
   y2="512"
   id="line54"
   style="fill:none;stroke:#a9ccdb;stroke-miterlimit:10" />
		<line
   stroke-miterlimit="10"
   x1="352"
   y1="0"
   x2="352"
   y2="512"
   id="line56"
   style="fill:none;stroke:#a9ccdb;stroke-miterlimit:10" />
		<line
   stroke-miterlimit="10"
   x1="384"
   y1="0"
   x2="384"
   y2="512"
   id="line58"
   style="fill:none;stroke:#a9ccdb;stroke-miterlimit:10" />
		<line
   stroke-miterlimit="10"
   x1="416"
   y1="0"
   x2="416"
   y2="512"
   id="line60"
   style="fill:none;stroke:#a9ccdb;stroke-miterlimit:10" />
		<line
   stroke-miterlimit="10"
   x1="448"
   y1="0"
   x2="448"
   y2="512"
   id="line62"
   style="fill:none;stroke:#a9ccdb;stroke-miterlimit:10" />
		<line
   stroke-miterlimit="10"
   x1="480"
   y1="0"
   x2="480"
   y2="512"
   id="line64"
   style="fill:none;stroke:#a9ccdb;stroke-miterlimit:10" />
	</g>
<path
   style="fill:#171717"
   d="m 306.70476,950.25222 c -3.53667,-19.81638 -9.63637,-59.61291 -13.55492,-88.43674 -3.91856,-28.82382 -12.54166,-83.92147 -19.16246,-122.43922 l -12.0377,-70.03227 -73.4892,148.6427 c -30.8547,62.40809 -60.9623,126.51133 -78.3152,153.35442 -4.6734,10.50979 -12.901397,18.83808 -19.642197,16.72041 -6.6971,-2.10396 -11.9146,-14.59933 -14.2283,-20.94874 -13.6748,-40.80512 -12.5499,-150.43642 -9.9798,-340.21713 l -6.8479,-239.25629 80.206697,0.34678 c 40.5579,0.17536 73.7073,0.55887 73.7073,-1.54054 0,-2.0994 -20.356,-38.98723 -49.58,-87.40363 -29.2241,-48.4164 -57.2479,-109.41134 -53.586,-115.9938 49.6314,-1.52593 100.1815,1.35879 148.54,1.36176 l 142.7708,0.88866 -37.25113,65.11681 c -19.26274,33.67222 -44.55474,79.54312 -61.08433,99.34756 -16.52954,19.80444 -25.45154,40.2657 -19.82644,45.46948 171.85218,158.98248 239.51489,197.07816 212.91492,226.62965 -9.57025,13.87721 -15.15573,28.6019 -19.62517,43.24179 -12.79496,43.15004 -25.44521,89.00631 -41.52765,129.90402 l -29.46612,74.0212 26.51783,11.10117 c 14.58481,6.10565 43.39865,15.17918 64.03076,20.1634 38.1217,9.2093 75.46967,67.50486 62.53511,81.87462 -12.20129,13.55514 -108.84647,2.94698 -178.7149,3.54312 -19.00283,0.16214 -34.42378,3.68055 -44.37719,2.63861 -14.83603,-1.55304 -21.4734,-5.34049 -25.43909,-14.03589 -2.29166,-5.02484 -1.91384,-15.24326 -3.48772,-24.06191 z m 155.69858,9.3447 c 112.57129,18.58665 18.44578,-34.976 -33.21063,-45.37448 -25.877,-4.85699 -49.89728,-13.95073 -53.3784,-20.20831 -3.48113,-6.25757 7.10491,-46.83739 23.52453,-90.17737 3.23062,-15.02714 28.33436,-93.63117 37.00145,-139.61333 3.48287,-18.47792 6.94602,-30.63415 1.21191,-32.90276 -9.21707,-3.25232 -36.18766,-2.99238 -46.74442,-3.70636 -25.42237,-1.44823 -54.08375,-0.38105 -74.01701,-1.90798 -13.79197,-1.05649 -15.07922,-1.06728 -21.05154,5.26532 -10.19135,12.21103 5.19143,50.52108 22.07369,162.05387 13.60168,89.85959 7.77934,136.02248 15.60486,154.84327 6.79132,16.33351 14.49143,14.75142 28.45305,10.59019 13.96876,-4.16336 75.82631,1.23633 100.53251,1.13794 z M 180.02388,759.64085 c 33.263,-70.60796 56.8156,-129.47804 56.8156,-132.73114 -21.3786,-3.06992 -53.5311,-2.5928 -73.4612,-2.64751 -24.2729,-0.0666 -36.4902,-0.31477 -65.651097,-1.05863 l 1.2568,73.01155 c 1.249997,72.61915 -4.0812,251.25606 1.828297,243.4211 1.5057,-1.99631 45.9487,-109.38741 79.2116,-179.99537 z M 386.42646,533.67687 c -25.23067,-22.9172 -38.93816,-29.23646 -50.44154,-30.76239 -35.95643,1.16713 -79.27924,-2.84177 -113.76124,2.31576 -8.3186,1.34434 -12.4685,4.1735 -15.8685,10.41129 -2.3143,5.23657 -3.1102,12.64077 -4.8304,22.58797 -3.362,19.44125 -4.3009,37.38988 -2.0864,39.88588 4.3138,4.86226 118.00768,3.56512 176.32164,5.10941 l 67.1747,1.77895 z m -226.55358,36.38664 c 1.7408,-5.03982 13.0826,-21.68399 13.8737,-25.2156 2.8438,-12.69511 -3.5191,-15.14051 -12.33,-7.3091 -3.9929,3.54909 -14.144,18.00606 -18.5134,25.77892 -3.5419,6.30089 -6.2156,11.96349 -7.5654,16.29785 -2.7356,11.48712 3.4459,9.67033 10.3382,6.15282 5.5656,-2.88796 11.6057,-8.20312 14.1969,-15.70489 z m -17.2708,-150.71094 -47.172697,0 4.0574,72.33878 0.5029,68.78413 46.637997,-58.95783 c 25.6508,-32.4268 51.0955,-75.82089 51.1131,-81.22536 -22.6335,-1.63211 -38.9261,-1.01676 -55.1387,-0.93972 z m 136.5432,27.561 c -21.3725,-23.74394 -28.57,-25.62906 -43.8968,-11.4975 -5.3714,5.4771 -18.2357,30.60241 -16.7617,35.51702 2.8094,7.75876 16.8548,4.38108 42.3257,4.38108 l 43.89676,0 z M 300.082,289.48011 c -13.89012,-1.1882 -26.70172,-1.17367 -39.42432,-0.94433 -10.3955,0.18738 -20.7316,0.51817 -31.5481,0.45341 -15.5099,-0.20262 -28.1298,-1.72823 -37.6745,1.12395 -2.8446,1.4254 -1.4111,15.66618 -0.7237,17.23448 12.8066,3.05167 25.4994,3.33663 37.9345,3.12486 10.2852,-0.17516 20.3942,-0.69015 30.2455,-0.26049 17.0919,0.75139 34.59359,1.6413 42.32013,-3.10788 -0.1514,-3.41508 0.0194,-16.66115 -1.12951,-17.624 z m -49.64242,-77.3605 c -29.7397,-0.67207 -66.6088,-5.41624 -90.9469,1.59266 0.7319,3.51608 0.7,29.05375 0.9867,29.69351 27.5064,5.07342 59.476,4.88011 89.9372,3.26578 16.7958,-1.10735 34.2403,1.17304 50.7099,1.43099 11.47077,0.17967 24.24596,1.15559 34.22237,-2.45469 2.29159,-5.37058 1.65422,-27.37979 1.65307,-33.73366 -12.17717,-0.35271 -26.76882,-2.42463 -39.38382,-1.68116 -16.72652,0.98578 -33.10272,2.23422 -47.17852,1.88657 z"
   id="path3754"
   inkscape:connector-curvature="0"
   sodipodi:nodetypes="ssscscscscssscccsssccccsssssssccscsccscssscscscsssscccssscsssssccsccccsccsccscscscccscccccccsccsc" /></svg>