<?xml version="1.0" encoding="UTF-8" standalone="no"?>
<svg
   xmlns:dc="http://purl.org/dc/elements/1.1/"
   xmlns:cc="http://creativecommons.org/ns#"
   xmlns:rdf="http://www.w3.org/1999/02/22-rdf-syntax-ns#"
   xmlns:svg="http://www.w3.org/2000/svg"
   xmlns="http://www.w3.org/2000/svg"
   xmlns:sodipodi="http://sodipodi.sourceforge.net/DTD/sodipodi-0.dtd"
   xmlns:inkscape="http://www.inkscape.org/namespaces/inkscape"
   version="1.1"
   id="Layer_1"
   x="0px"
   y="0px"
   width="1000"
   height="1024"
   viewBox="0 0 1000 1024"
   enable-background="new 0 0 512 512"
   xml:space="preserve"
   inkscape:version="0.48.0 r9654"
   sodipodi:docname="ninda-x120FB.svg"><title
   id="title3743">Mesopotamian Font</title><metadata
   id="metadata72"><rdf:RDF><cc:Work
       rdf:about=""><dc:format>image/svg+xml</dc:format><dc:type
         rdf:resource="http://purl.org/dc/dcmitype/StillImage" /><dc:title>Sumerian</dc:title><dc:date>2017</dc:date><dc:creator><cc:Agent><dc:title>FlorinCB</dc:title></cc:Agent></dc:creator><dc:publisher><cc:Agent><dc:title>beitdina.net</dc:title></cc:Agent></dc:publisher></cc:Work></rdf:RDF></metadata><defs
   id="defs70" /><sodipodi:namedview
   pagecolor="#ffffff"
   bordercolor="#666666"
   borderopacity="1"
   objecttolerance="10"
   gridtolerance="10"
   guidetolerance="10"
   inkscape:pageopacity="0"
   inkscape:pageshadow="2"
   inkscape:window-width="1152"
   inkscape:window-height="814"
   id="namedview68"
   showgrid="false"
   inkscape:zoom="0.14066136"
   inkscape:cx="2159.0299"
   inkscape:cy="147.06196"
   inkscape:window-x="-8"
   inkscape:window-y="-8"
   inkscape:window-maximized="1"
   inkscape:current-layer="Layer_1" />
   
	<g
   id="Grid"
   transform="matrix(1.948664,0,0,2.0011811,-2.6425584,2.4557768)">
		<rect
   x="0"
   stroke-miterlimit="10"
   width="512"
   height="512"
   id="rect4"
   y="0"
   style="fill:none;stroke:#a9ccdb;stroke-miterlimit:10" />
		<line
   stroke-miterlimit="10"
   x1="0"
   y1="32"
   x2="512"
   y2="32"
   id="line6"
   style="fill:none;stroke:#a9ccdb;stroke-miterlimit:10" />
		<line
   stroke-miterlimit="10"
   x1="0"
   y1="64"
   x2="512"
   y2="64"
   id="line8"
   style="fill:none;stroke:#a9ccdb;stroke-miterlimit:10" />
		<line
   stroke-miterlimit="10"
   x1="0"
   y1="96"
   x2="512"
   y2="96"
   id="line10"
   style="fill:none;stroke:#a9ccdb;stroke-miterlimit:10" />
		<line
   stroke-miterlimit="10"
   x1="0"
   y1="128"
   x2="512"
   y2="128"
   id="line12"
   style="fill:none;stroke:#a9ccdb;stroke-miterlimit:10" />
		<line
   stroke-miterlimit="10"
   x1="0"
   y1="160"
   x2="512"
   y2="160"
   id="line14"
   style="fill:none;stroke:#a9ccdb;stroke-miterlimit:10" />
		<line
   stroke-miterlimit="10"
   x1="0"
   y1="192"
   x2="512"
   y2="192"
   id="line16"
   style="fill:none;stroke:#a9ccdb;stroke-miterlimit:10" />
		<line
   stroke-miterlimit="10"
   x1="0"
   y1="224"
   x2="512"
   y2="224"
   id="line18"
   style="fill:none;stroke:#a9ccdb;stroke-miterlimit:10" />
		<line
   stroke-miterlimit="10"
   x1="0"
   y1="256"
   x2="512"
   y2="256"
   id="line20"
   style="fill:none;stroke:#a9ccdb;stroke-miterlimit:10" />
		<line
   stroke-miterlimit="10"
   x1="0"
   y1="288"
   x2="512"
   y2="288"
   id="line22"
   style="fill:none;stroke:#a9ccdb;stroke-miterlimit:10" />
		<line
   stroke-miterlimit="10"
   x1="0"
   y1="320"
   x2="512"
   y2="320"
   id="line24"
   style="fill:none;stroke:#a9ccdb;stroke-miterlimit:10" />
		<line
   stroke-miterlimit="10"
   x1="0"
   y1="352"
   x2="512"
   y2="352"
   id="line26"
   style="fill:none;stroke:#a9ccdb;stroke-miterlimit:10" />
		<line
   stroke-miterlimit="10"
   x1="0"
   y1="384"
   x2="512"
   y2="384"
   id="line28"
   style="fill:none;stroke:#a9ccdb;stroke-miterlimit:10" />
		<line
   stroke-miterlimit="10"
   x1="0"
   y1="416"
   x2="512"
   y2="416"
   id="line30"
   style="fill:none;stroke:#a9ccdb;stroke-miterlimit:10" />
		<line
   stroke-miterlimit="10"
   x1="0"
   y1="448"
   x2="512"
   y2="448"
   id="line32"
   style="fill:none;stroke:#ff0000;stroke-miterlimit:10" />
		<line
   stroke-miterlimit="10"
   x1="0"
   y1="480"
   x2="512"
   y2="480"
   id="line34"
   style="fill:none;stroke:#a9ccdb;stroke-miterlimit:10" />
		<line
   stroke-miterlimit="10"
   x1="32"
   y1="0"
   x2="32"
   y2="512"
   id="line36"
   style="fill:none;stroke:#a9ccdb;stroke-miterlimit:10" />
		<line
   stroke-miterlimit="10"
   x1="64"
   y1="0"
   x2="64"
   y2="512"
   id="line38"
   style="fill:none;stroke:#a9ccdb;stroke-miterlimit:10" />
		<line
   stroke-miterlimit="10"
   x1="96"
   y1="0"
   x2="96"
   y2="512"
   id="line40"
   style="fill:none;stroke:#a9ccdb;stroke-miterlimit:10" />
		<line
   stroke-miterlimit="10"
   x1="128"
   y1="0"
   x2="128"
   y2="512"
   id="line42"
   style="fill:none;stroke:#a9ccdb;stroke-miterlimit:10" />
		<line
   stroke-miterlimit="10"
   x1="160"
   y1="0"
   x2="160"
   y2="512"
   id="line44"
   style="fill:none;stroke:#a9ccdb;stroke-miterlimit:10" />
		<line
   stroke-miterlimit="10"
   x1="192"
   y1="0"
   x2="192"
   y2="512"
   id="line46"
   style="fill:none;stroke:#a9ccdb;stroke-miterlimit:10" />
		<line
   stroke-miterlimit="10"
   x1="224"
   y1="0"
   x2="224"
   y2="512"
   id="line48"
   style="fill:none;stroke:#a9ccdb;stroke-miterlimit:10" />
		<line
   stroke-miterlimit="10"
   x1="256"
   y1="0"
   x2="256"
   y2="512"
   id="line50"
   style="fill:none;stroke:#a9ccdb;stroke-miterlimit:10" />
		<line
   stroke-miterlimit="10"
   x1="288"
   y1="0"
   x2="288"
   y2="512"
   id="line52"
   style="fill:none;stroke:#a9ccdb;stroke-miterlimit:10" />
		<line
   stroke-miterlimit="10"
   x1="320"
   y1="0"
   x2="320"
   y2="512"
   id="line54"
   style="fill:none;stroke:#a9ccdb;stroke-miterlimit:10" />
		<line
   stroke-miterlimit="10"
   x1="352"
   y1="0"
   x2="352"
   y2="512"
   id="line56"
   style="fill:none;stroke:#a9ccdb;stroke-miterlimit:10" />
		<line
   stroke-miterlimit="10"
   x1="384"
   y1="0"
   x2="384"
   y2="512"
   id="line58"
   style="fill:none;stroke:#a9ccdb;stroke-miterlimit:10" />
		<line
   stroke-miterlimit="10"
   x1="416"
   y1="0"
   x2="416"
   y2="512"
   id="line60"
   style="fill:none;stroke:#a9ccdb;stroke-miterlimit:10" />
		<line
   stroke-miterlimit="10"
   x1="448"
   y1="0"
   x2="448"
   y2="512"
   id="line62"
   style="fill:none;stroke:#a9ccdb;stroke-miterlimit:10" />
		<line
   stroke-miterlimit="10"
   x1="480"
   y1="0"
   x2="480"
   y2="512"
   id="line64"
   style="fill:none;stroke:#a9ccdb;stroke-miterlimit:10" />
	</g> 
<path
   style="fill:#000000;fill-opacity:1"
   d="m 254.81543,335.09896 c -3.4198,11.78532 -11.6596,44.53803 -23.7415,76.94766 -12.082,32.40963 -21.0881,68.00633 -23.2721,73.89899 -2.1839,5.89267 -7.7502,10.67903 -12.3694,22.087 -4.6192,11.40792 1.1218,44.25709 -1.0984,52.00031 -2.2201,7.74317 -13.9082,29.74596 -19.8292,45.95078 -5.9211,16.2048 -10.5171,36.69518 -11.7493,45.53418 -1.2322,8.83898 3.2646,20.89214 0.7769,26.7848 -9.3897,22.24109 -4.1509,91.99655 -4.1509,119.78389 0,20.67624 2.1773,19.05716 9.5471,30.32434 16.7793,25.65286 24.1265,27.40697 74.8771,44.35565 47.9411,16.01037 157.2465,10.61853 204.0178,10.61853 52.317,0 157.9003,11.20473 205.9957,-4.30057 6.7425,-7.68191 51.8311,-1.20842 51.9802,-7.01082 0,-2.8861 33.95258,-6.86681 41.92108,-8.7721 33.89939,-8.68791 64.6802,-23.76179 75.49169,-56.12744 -4.84274,-16.55891 -5.24901,-19.50499 -5.36566,-36.84189 -0.8522,-6.9433 6.47729,-19.84681 6.54708,-28.4335 0.10088,-12.41245 -6.58466,-28.84699 -7.6897,-39.30481 -0.58789,-5.5637 -5.61917,-19.6633 -6.20914,-25.26292 -4.19267,-39.79382 -8.02266,-84.16349 -12.91831,-123.23427 -0.56855,-4.5374 -0.2748,-8.16314 -0.90108,-12.56779 -0.5685,-3.99822 -2.9279,-8.82932 -3.52402,-12.79145 C 780.48441,444.54542 758.82839,353.42898 729.29298,269.90258 705.14873,203.25431 684.08613,160.02361 657.40853,112.9181 c -15.9307,-28.129303 -29.6699,-47.545603 -53.9297,-62.086633 -26.6651,-13.06477 -84.2966,-31.63259 -126.2896,-32.21429 -14.9281,-0.2067 -27.8799,1.8595 -36.7618,7.2538 -44.286,27.49439 -122.7484,109.421923 -185.612,309.227983 z m 222.8784,365.0518 c -7.174,-0.28291 -48.0359,-5.3063 -53.1835,-2.33448 -4.6849,2.85422 -7.6319,-0.0109 -7.8062,-3.51524 -0.2536,-1.1402 -1.0294,-1.67585 -1.9395,-1.90839 -2.1883,-0.62384 -3.4222,-0.52826 -4.2543,-0.0917 -1.0103,0.53004 -1.4283,1.56276 -2.2432,2.42078 -1.9336,1.5177 -52.1684,7.09651 -55.6991,3.25286 -28.4114,-10.42727 -41.3868,6.48002 -63.186,-2.53669 -14.2634,-6.38577 -23.289,-0.35485 -30.1532,-1.62128 -14.5836,-2.69063 -28.2008,-3.84782 -29.5617,-3.60357 -1.0533,0.18905 -1.6521,-4.40177 -5.6066,-0.82893 -1.4922,1.34808 -13.6684,-4.21103 -15.3868,-4.28631 -3.5127,-0.15388 -7.0027,-2.33635 -8.8646,-6.03951 -3.2749,-6.51366 -4.4287,-11.38042 -4.9837,-19.39927 -0.4379,-6.33005 9.5674,-50.60798 19.1623,-77.78537 24.4273,-63.13978 27.5716,-121.57994 50.9489,-178.92855 11.25,-28.5765 16.6844,-52.10573 16.6844,-56.01991 11.254,-37.63404 35.0946,-107.39462 51.0696,-140.93799 36.9967,-76.05621 61.0337,-115.645783 118.5389,-157.067833 30.7425,-18.24705 104.5587,5.71811 151.6451,29.80921 20.8827,10.83286 25.9502,32.560023 43.9994,62.932383 26.1237,44.5654 37.5496,67.37158 57.8882,127.59398 8.0163,42.07712 27.25062,84.43409 38.24247,127.32372 22.2326,86.75046 36.18737,173.75442 33.5147,251.54804 -0.32374,5.60275 3.47827,32.37844 -3.75652,46.38558 -6.21212,12.02717 -42.55331,6.66217 -43.64631,11.05361 -10.44974,-0.79225 -51.57644,-5.08894 -61.99054,-4.748 -36.5617,1.19698 -7.9021,-4.86909 -64.0304,-6.89913 -33.1547,-1.19915 -79.1847,7.86311 -125.4018,6.23198 z m -279.7982,22.70579 c 2.7207,0.12968 4.5764,-0.19758 4.9987,-2.4368 0.06,-0.0457 0.3488,0.45737 0.7729,0.82036 0.8095,0.52584 1.6171,0.6354 2.5442,0.48069 4.3023,-1.18276 3.8681,0.36607 9.4287,0.35959 6.0263,-0.007 -1.6913,-5.46307 13.0239,-1.24373 23.0699,10.82777 53.31,10.28276 77.1204,9.90688 42.9914,-0.6787 77.9667,-6.56381 113.9305,-4.30058 39.5614,7.04296 82.7347,3.69979 122.1273,2.55482 28.3775,-0.82481 57.3163,-5.60388 82.3653,-2.88804 41.8073,4.53279 77.2674,17.03911 114.08458,9.09603 8.86469,4.93246 7.96705,0.61643 11.24169,1.3412 6.40735,1.4181 11.1933,2.86272 13.10372,-4.33307 1.20318,-4.53192 18.45651,9.32455 18.98404,-8.83301 22.0018,-17.48731 6.10096,65.12621 5.30709,71.51754 -2.30836,18.68894 -13.03189,4.8573 -17.7878,16.10549 -48.36049,35.28198 -69.77752,29.22678 -131.15872,38.81192 -29.7322,4.64294 -70.7845,4.39473 -98.7992,4.33506 -33.802,-0.20642 -96.8361,0.23693 -146.1939,-2.64455 -19.052,-6.01171 -67.1392,-0.60308 -104.8526,-6.14328 -25.42,-3.73428 -53.9625,-11.66743 -72.6763,-18.79633 -20.1581,-7.67913 -20.9204,-6.57304 -26.3143,-23.55079 -7.2049,-27.30226 -12.6444,-58.0483 -7.2998,-74.24068 0.9375,-3.24639 2.6552,-6.16045 5.3331,-7.54452 2.7602,-0.99728 4.3264,-3.03114 6.3235,-2.24522 0.044,0.23454 -0.1502,0.66074 -0.1539,0.72163 -0.2027,3.35031 1.6636,3.08906 4.5469,3.14939 z"
   id="path3811"
   inkscape:connector-curvature="0"
   sodipodi:nodetypes="cscssssssssscccccsssssscscsccccccscccssssscccccccccscscsscccccscscsscscccscccssccccsc" />
	 
</svg>