<?xml version="1.0" encoding="UTF-8" standalone="no"?>
<svg
   xmlns:dc="http://purl.org/dc/elements/1.1/"
   xmlns:cc="http://creativecommons.org/ns#"
   xmlns:rdf="http://www.w3.org/1999/02/22-rdf-syntax-ns#"
   xmlns:svg="http://www.w3.org/2000/svg"
   xmlns="http://www.w3.org/2000/svg"
   xmlns:sodipodi="http://sodipodi.sourceforge.net/DTD/sodipodi-0.dtd"
   xmlns:inkscape="http://www.inkscape.org/namespaces/inkscape"
   version="1.1"
   id="Layer_1"
   x="0px"
   y="0px"
   width="1000"
   height="1024"
   viewBox="0 0 1000 1024"
   enable-background="new 0 0 512 512"
   xml:space="preserve"
   inkscape:version="0.48.0 r9654"
   sodipodi:docname="U-x1230b.svg"><title
   id="title3743">Mesopotamian Font</title><metadata
   id="metadata72"><rdf:RDF><cc:Work
       rdf:about=""><dc:format>image/svg+xml</dc:format><dc:type
         rdf:resource="http://purl.org/dc/dcmitype/StillImage" /><dc:title>Sinai 357</dc:title><dc:date>2017</dc:date><dc:creator><cc:Agent><dc:title>Celeste Claire Horner</dc:title></cc:Agent></dc:creator><dc:publisher><cc:Agent><dc:title>beitdina.net</dc:title></cc:Agent></dc:publisher></cc:Work></rdf:RDF></metadata><defs
   id="defs70" /><sodipodi:namedview
   pagecolor="#ffffff"
   bordercolor="#666666"
   borderopacity="1"
   objecttolerance="10"
   gridtolerance="10"
   guidetolerance="10"
   inkscape:pageopacity="0"
   inkscape:pageshadow="2"
   inkscape:window-width="923"
   inkscape:window-height="679"
   id="namedview68"
   showgrid="false"
   inkscape:zoom="0.14066136"
   inkscape:cx="1206.8947"
   inkscape:cy="506.23719"
   inkscape:window-x="154"
   inkscape:window-y="88"
   inkscape:window-maximized="0"
   inkscape:current-layer="Layer_1" />
   
	<g
   id="Grid"
   transform="matrix(1.948664,0,0,2.0011811,-2.6425584,2.4557964)">
		<rect
   x="0"
   stroke-miterlimit="10"
   width="512"
   height="512"
   id="rect4"
   y="0"
   style="fill:none;stroke:#a9ccdb;stroke-miterlimit:10" />
		<line
   stroke-miterlimit="10"
   x1="0"
   y1="32"
   x2="512"
   y2="32"
   id="line6"
   style="fill:none;stroke:#a9ccdb;stroke-miterlimit:10" />
		<line
   stroke-miterlimit="10"
   x1="0"
   y1="64"
   x2="512"
   y2="64"
   id="line8"
   style="fill:none;stroke:#a9ccdb;stroke-miterlimit:10" />
		<line
   stroke-miterlimit="10"
   x1="0"
   y1="96"
   x2="512"
   y2="96"
   id="line10"
   style="fill:none;stroke:#a9ccdb;stroke-miterlimit:10" />
		<line
   stroke-miterlimit="10"
   x1="0"
   y1="128"
   x2="512"
   y2="128"
   id="line12"
   style="fill:none;stroke:#a9ccdb;stroke-miterlimit:10" />
		<line
   stroke-miterlimit="10"
   x1="0"
   y1="160"
   x2="512"
   y2="160"
   id="line14"
   style="fill:none;stroke:#a9ccdb;stroke-miterlimit:10" />
		<line
   stroke-miterlimit="10"
   x1="0"
   y1="192"
   x2="512"
   y2="192"
   id="line16"
   style="fill:none;stroke:#a9ccdb;stroke-miterlimit:10" />
		<line
   stroke-miterlimit="10"
   x1="0"
   y1="224"
   x2="512"
   y2="224"
   id="line18"
   style="fill:none;stroke:#a9ccdb;stroke-miterlimit:10" />
		<line
   stroke-miterlimit="10"
   x1="0"
   y1="256"
   x2="512"
   y2="256"
   id="line20"
   style="fill:none;stroke:#a9ccdb;stroke-miterlimit:10" />
		<line
   stroke-miterlimit="10"
   x1="0"
   y1="288"
   x2="512"
   y2="288"
   id="line22"
   style="fill:none;stroke:#a9ccdb;stroke-miterlimit:10" />
		<line
   stroke-miterlimit="10"
   x1="0"
   y1="320"
   x2="512"
   y2="320"
   id="line24"
   style="fill:none;stroke:#a9ccdb;stroke-miterlimit:10" />
		<line
   stroke-miterlimit="10"
   x1="0"
   y1="352"
   x2="512"
   y2="352"
   id="line26"
   style="fill:none;stroke:#a9ccdb;stroke-miterlimit:10" />
		<line
   stroke-miterlimit="10"
   x1="0"
   y1="384"
   x2="512"
   y2="384"
   id="line28"
   style="fill:none;stroke:#a9ccdb;stroke-miterlimit:10" />
		<line
   stroke-miterlimit="10"
   x1="0"
   y1="416"
   x2="512"
   y2="416"
   id="line30"
   style="fill:none;stroke:#a9ccdb;stroke-miterlimit:10" />
		<line
   stroke-miterlimit="10"
   x1="0"
   y1="448"
   x2="512"
   y2="448"
   id="line32"
   style="fill:none;stroke:#ff0000;stroke-miterlimit:10" />
		<line
   stroke-miterlimit="10"
   x1="0"
   y1="480"
   x2="512"
   y2="480"
   id="line34"
   style="fill:none;stroke:#a9ccdb;stroke-miterlimit:10" />
		<line
   stroke-miterlimit="10"
   x1="32"
   y1="0"
   x2="32"
   y2="512"
   id="line36"
   style="fill:none;stroke:#a9ccdb;stroke-miterlimit:10" />
		<line
   stroke-miterlimit="10"
   x1="64"
   y1="0"
   x2="64"
   y2="512"
   id="line38"
   style="fill:none;stroke:#a9ccdb;stroke-miterlimit:10" />
		<line
   stroke-miterlimit="10"
   x1="96"
   y1="0"
   x2="96"
   y2="512"
   id="line40"
   style="fill:none;stroke:#a9ccdb;stroke-miterlimit:10" />
		<line
   stroke-miterlimit="10"
   x1="128"
   y1="0"
   x2="128"
   y2="512"
   id="line42"
   style="fill:none;stroke:#a9ccdb;stroke-miterlimit:10" />
		<line
   stroke-miterlimit="10"
   x1="160"
   y1="0"
   x2="160"
   y2="512"
   id="line44"
   style="fill:none;stroke:#a9ccdb;stroke-miterlimit:10" />
		<line
   stroke-miterlimit="10"
   x1="192"
   y1="0"
   x2="192"
   y2="512"
   id="line46"
   style="fill:none;stroke:#a9ccdb;stroke-miterlimit:10" />
		<line
   stroke-miterlimit="10"
   x1="224"
   y1="0"
   x2="224"
   y2="512"
   id="line48"
   style="fill:none;stroke:#a9ccdb;stroke-miterlimit:10" />
		<line
   stroke-miterlimit="10"
   x1="256"
   y1="0"
   x2="256"
   y2="512"
   id="line50"
   style="fill:none;stroke:#a9ccdb;stroke-miterlimit:10" />
		<line
   stroke-miterlimit="10"
   x1="288"
   y1="0"
   x2="288"
   y2="512"
   id="line52"
   style="fill:none;stroke:#a9ccdb;stroke-miterlimit:10" />
		<line
   stroke-miterlimit="10"
   x1="320"
   y1="0"
   x2="320"
   y2="512"
   id="line54"
   style="fill:none;stroke:#a9ccdb;stroke-miterlimit:10" />
		<line
   stroke-miterlimit="10"
   x1="352"
   y1="0"
   x2="352"
   y2="512"
   id="line56"
   style="fill:none;stroke:#a9ccdb;stroke-miterlimit:10" />
		<line
   stroke-miterlimit="10"
   x1="384"
   y1="0"
   x2="384"
   y2="512"
   id="line58"
   style="fill:none;stroke:#a9ccdb;stroke-miterlimit:10" />
		<line
   stroke-miterlimit="10"
   x1="416"
   y1="0"
   x2="416"
   y2="512"
   id="line60"
   style="fill:none;stroke:#a9ccdb;stroke-miterlimit:10" />
		<line
   stroke-miterlimit="10"
   x1="448"
   y1="0"
   x2="448"
   y2="512"
   id="line62"
   style="fill:none;stroke:#a9ccdb;stroke-miterlimit:10" />
		<line
   stroke-miterlimit="10"
   x1="480"
   y1="0"
   x2="480"
   y2="512"
   id="line64"
   style="fill:none;stroke:#a9ccdb;stroke-miterlimit:10" />
	</g>
<path
   style="fill:#171717"
   d="M 547.214,867.37486 C 537.85482,856.71561 531.79557,848.0634 522.00829,837.64732 494.35184,808.36067 464.85045,778.09133 434.82788,748.97641 392.18224,707.62003 348.48503,668.5929 307.53023,638.02002 c -19.34092,-14.3555 -39.98155,-28.76429 -63.29461,-44.52838 -42.94021,-28.94827 -73.4799,-47.80039 -127.36491,-75.09367 -4.17988,-2.11715 -9.85891,-5.25214 -16.13276,-11.25459 -1.792532,-3.00122 -2.688799,-8.25336 -2.688799,-15.75642 0,-7.50307 6.273849,-14.25581 18.821559,-20.25825 35.02126,-11.71504 43.93782,-27.84482 71.09673,-46.92359 52.82662,-30.01617 94.81997,-69.4995 133.97671,-110.93039 31.92782,-36.6509 65.23494,-70.37606 97.50592,-103.51254 22.72037,-23.32972 44.92714,-46.36763 65.77736,-69.92933 10.37861,-11.79238 20.60798,-23.82511 31.06558,-36.67352 3.66422,-4.501917 16.48645,-15.855187 20.22294,-20.582137 12.82608,-13.15574 11.33694,-10.58954 19.9545,-17.21425 19.62881,-16.47349 42.47722,-2.8027 41.79401,17.41164 -2.08618,8.35264 -0.54668,5.32501 -4.55311,13.58091 -3.9143,8.066157 -8.29826,15.470387 -12.27864,21.009527 -34.78783,58.84624 -63.93591,121.49174 -78.897,176.60947 -14.2673,53.90142 -20.48795,108.32852 -20.48795,173.40815 0,71.11458 11.97902,143.58269 35.93708,214.02873 19.35599,46.36152 30.2013,83.17209 51.90009,122.57422 10.4746,15.03882 11.27232,26.19689 20.6708,39.5567 4.77478,7.6962 12.66852,14.72609 13.93066,23.17427 -1.64651,24.2341 -28.29508,35.13679 -44.00551,18.28347 -5.07486,-6.43821 -9.47313,-11.23953 -13.26688,-17.62518 z m 2.32138,-40.38896 c -2.3142,-7.38491 -8.32648,-16.82016 -12.18271,-26.09781 -15.35503,-37.3518 -34.65089,-75.21269 -48.84614,-113.77332 -7.66681,-20.82651 -12.55241,-43.0526 -17.45967,-62.80089 -13.03698,-54.62062 -17.51328,-112.84576 -16.92573,-159.35997 1.12865,-66.65847 8.05044,-130.0141 21.83285,-178.90692 14.41596,-35.47619 24.95755,-68.2106 38.36794,-99.48564 3.62468,-8.45325 7.45894,-16.7999 11.63591,-25.06524 9.70855,-19.16144 21.11338,-37.98883 27.03679,-56.08226 -12.31329,3.67492 -38.95311,45.94483 -52.60406,61.68762 -22.44414,21.72545 -44.81646,45.3409 -66.77655,69.01267 -33.30367,35.89952 -65.65924,71.92856 -95.87941,101.69124 -42.68133,41.87588 -87.36182,80.25848 -129.77503,109.2922 -18.66438,12.66443 -37.01547,25.06458 -59.3123,37.54542 -19.38362,7.47397 -13.86031,7.92141 2.33477,17.92229 33.04974,23.35206 66.16864,43.52658 98.30892,63.69161 22.28381,13.98101 44.0972,27.95746 65.09094,42.98521 45.85083,33.26704 87.02744,69.77959 126.06022,107.32863 28.92616,27.82659 56.67494,56.2224 84.27618,84.28838 9.50987,9.67483 14.65602,17.33293 24.81708,26.12678 z"
   inkscape:connector-curvature="0"
   sodipodi:nodetypes="ccsccscscccscscccscccccccccccscccscccsccccscscc"
   id="path39" /></svg>