<?xml version="1.0" encoding="UTF-8" standalone="no"?>
<svg
   xmlns:dc="http://purl.org/dc/elements/1.1/"
   xmlns:cc="http://creativecommons.org/ns#"
   xmlns:rdf="http://www.w3.org/1999/02/22-rdf-syntax-ns#"
   xmlns:svg="http://www.w3.org/2000/svg"
   xmlns="http://www.w3.org/2000/svg"
   xmlns:sodipodi="http://sodipodi.sourceforge.net/DTD/sodipodi-0.dtd"
   xmlns:inkscape="http://www.inkscape.org/namespaces/inkscape"
   version="1.1"
   id="Layer_1"
   x="0px"
   y="0px"
   width="1000"
   height="1024"
   viewBox="0 0 1000 1024"
   enable-background="new 0 0 512 512"
   xml:space="preserve"
   inkscape:version="0.48.0 r9654"
   sodipodi:docname="U-x12313.svg"><title
   id="title3743">Mesopotamian Font</title><metadata
   id="metadata72"><rdf:RDF><cc:Work
       rdf:about=""><dc:format>image/svg+xml</dc:format><dc:type
         rdf:resource="http://purl.org/dc/dcmitype/StillImage" /><dc:title>Sinai 357</dc:title><dc:date>2017</dc:date><dc:creator><cc:Agent><dc:title>Celeste Claire Horner</dc:title></cc:Agent></dc:creator><dc:publisher><cc:Agent><dc:title>beitdina.net</dc:title></cc:Agent></dc:publisher></cc:Work></rdf:RDF></metadata><defs
   id="defs70" /><sodipodi:namedview
   pagecolor="#ffffff"
   bordercolor="#666666"
   borderopacity="1"
   objecttolerance="10"
   gridtolerance="10"
   guidetolerance="10"
   inkscape:pageopacity="0"
   inkscape:pageshadow="2"
   inkscape:window-width="1096"
   inkscape:window-height="756"
   id="namedview68"
   showgrid="false"
   inkscape:zoom="0.19892521"
   inkscape:cx="-62.390189"
   inkscape:cy="621.47957"
   inkscape:window-x="40"
   inkscape:window-y="72"
   inkscape:window-maximized="0"
   inkscape:current-layer="Layer_1" />
   
	<g
   id="Grid"
   transform="matrix(1.948664,0,0,2.0011811,-2.6425584,2.4557964)">
		<rect
   x="0"
   stroke-miterlimit="10"
   width="512"
   height="512"
   id="rect4"
   y="0"
   style="fill:none;stroke:#a9ccdb;stroke-miterlimit:10" />
		<line
   stroke-miterlimit="10"
   x1="0"
   y1="32"
   x2="512"
   y2="32"
   id="line6"
   style="fill:none;stroke:#a9ccdb;stroke-miterlimit:10" />
		<line
   stroke-miterlimit="10"
   x1="0"
   y1="64"
   x2="512"
   y2="64"
   id="line8"
   style="fill:none;stroke:#a9ccdb;stroke-miterlimit:10" />
		<line
   stroke-miterlimit="10"
   x1="0"
   y1="96"
   x2="512"
   y2="96"
   id="line10"
   style="fill:none;stroke:#a9ccdb;stroke-miterlimit:10" />
		<line
   stroke-miterlimit="10"
   x1="0"
   y1="128"
   x2="512"
   y2="128"
   id="line12"
   style="fill:none;stroke:#a9ccdb;stroke-miterlimit:10" />
		<line
   stroke-miterlimit="10"
   x1="0"
   y1="160"
   x2="512"
   y2="160"
   id="line14"
   style="fill:none;stroke:#a9ccdb;stroke-miterlimit:10" />
		<line
   stroke-miterlimit="10"
   x1="0"
   y1="192"
   x2="512"
   y2="192"
   id="line16"
   style="fill:none;stroke:#a9ccdb;stroke-miterlimit:10" />
		<line
   stroke-miterlimit="10"
   x1="0"
   y1="224"
   x2="512"
   y2="224"
   id="line18"
   style="fill:none;stroke:#a9ccdb;stroke-miterlimit:10" />
		<line
   stroke-miterlimit="10"
   x1="0"
   y1="256"
   x2="512"
   y2="256"
   id="line20"
   style="fill:none;stroke:#a9ccdb;stroke-miterlimit:10" />
		<line
   stroke-miterlimit="10"
   x1="0"
   y1="288"
   x2="512"
   y2="288"
   id="line22"
   style="fill:none;stroke:#a9ccdb;stroke-miterlimit:10" />
		<line
   stroke-miterlimit="10"
   x1="0"
   y1="320"
   x2="512"
   y2="320"
   id="line24"
   style="fill:none;stroke:#a9ccdb;stroke-miterlimit:10" />
		<line
   stroke-miterlimit="10"
   x1="0"
   y1="352"
   x2="512"
   y2="352"
   id="line26"
   style="fill:none;stroke:#a9ccdb;stroke-miterlimit:10" />
		<line
   stroke-miterlimit="10"
   x1="0"
   y1="384"
   x2="512"
   y2="384"
   id="line28"
   style="fill:none;stroke:#a9ccdb;stroke-miterlimit:10" />
		<line
   stroke-miterlimit="10"
   x1="0"
   y1="416"
   x2="512"
   y2="416"
   id="line30"
   style="fill:none;stroke:#a9ccdb;stroke-miterlimit:10" />
		<line
   stroke-miterlimit="10"
   x1="0"
   y1="448"
   x2="512"
   y2="448"
   id="line32"
   style="fill:none;stroke:#ff0000;stroke-miterlimit:10" />
		<line
   stroke-miterlimit="10"
   x1="0"
   y1="480"
   x2="512"
   y2="480"
   id="line34"
   style="fill:none;stroke:#a9ccdb;stroke-miterlimit:10" />
		<line
   stroke-miterlimit="10"
   x1="32"
   y1="0"
   x2="32"
   y2="512"
   id="line36"
   style="fill:none;stroke:#a9ccdb;stroke-miterlimit:10" />
		<line
   stroke-miterlimit="10"
   x1="64"
   y1="0"
   x2="64"
   y2="512"
   id="line38"
   style="fill:none;stroke:#a9ccdb;stroke-miterlimit:10" />
		<line
   stroke-miterlimit="10"
   x1="96"
   y1="0"
   x2="96"
   y2="512"
   id="line40"
   style="fill:none;stroke:#a9ccdb;stroke-miterlimit:10" />
		<line
   stroke-miterlimit="10"
   x1="128"
   y1="0"
   x2="128"
   y2="512"
   id="line42"
   style="fill:none;stroke:#a9ccdb;stroke-miterlimit:10" />
		<line
   stroke-miterlimit="10"
   x1="160"
   y1="0"
   x2="160"
   y2="512"
   id="line44"
   style="fill:none;stroke:#a9ccdb;stroke-miterlimit:10" />
		<line
   stroke-miterlimit="10"
   x1="192"
   y1="0"
   x2="192"
   y2="512"
   id="line46"
   style="fill:none;stroke:#a9ccdb;stroke-miterlimit:10" />
		<line
   stroke-miterlimit="10"
   x1="224"
   y1="0"
   x2="224"
   y2="512"
   id="line48"
   style="fill:none;stroke:#a9ccdb;stroke-miterlimit:10" />
		<line
   stroke-miterlimit="10"
   x1="256"
   y1="0"
   x2="256"
   y2="512"
   id="line50"
   style="fill:none;stroke:#a9ccdb;stroke-miterlimit:10" />
		<line
   stroke-miterlimit="10"
   x1="288"
   y1="0"
   x2="288"
   y2="512"
   id="line52"
   style="fill:none;stroke:#a9ccdb;stroke-miterlimit:10" />
		<line
   stroke-miterlimit="10"
   x1="320"
   y1="0"
   x2="320"
   y2="512"
   id="line54"
   style="fill:none;stroke:#a9ccdb;stroke-miterlimit:10" />
		<line
   stroke-miterlimit="10"
   x1="352"
   y1="0"
   x2="352"
   y2="512"
   id="line56"
   style="fill:none;stroke:#a9ccdb;stroke-miterlimit:10" />
		<line
   stroke-miterlimit="10"
   x1="384"
   y1="0"
   x2="384"
   y2="512"
   id="line58"
   style="fill:none;stroke:#a9ccdb;stroke-miterlimit:10" />
		<line
   stroke-miterlimit="10"
   x1="416"
   y1="0"
   x2="416"
   y2="512"
   id="line60"
   style="fill:none;stroke:#a9ccdb;stroke-miterlimit:10" />
		<line
   stroke-miterlimit="10"
   x1="448"
   y1="0"
   x2="448"
   y2="512"
   id="line62"
   style="fill:none;stroke:#a9ccdb;stroke-miterlimit:10" />
		<line
   stroke-miterlimit="10"
   x1="480"
   y1="0"
   x2="480"
   y2="512"
   id="line64"
   style="fill:none;stroke:#a9ccdb;stroke-miterlimit:10" />
	</g>
<path
   style="fill:#4d4e75"
   d="m 481.86477,447.24463 c -40.94644,3.9717 -48.59221,5.3547 -74.38705,13.455 -34.46219,10.822 -51.29061,17.9745 -79.53612,33.8052 -41.38195,23.19319 -54.09275,33.39019 -67.91193,54.48159 -12.37677,18.89 -17.48863,21.8904 -31.69336,18.6018 -6.16407,-1.4269 -9.10767,-1.572 -14.33073,-0.7061 -3.61527,0.5994 -9.06464,1.0925 -12.1097,1.096 -9.88579,0.011 -21.59,7.6176 -31.59152,20.5305 -2.61934,3.3818 -7.72679,12.0244 -11.34992,19.2059 -8.0395,15.9351 -27.10264,58.3089 -32.48075,72.1986 -5.9399,15.3406 -12.45715,26.9903 -19.0673,34.0835 -7.419092,7.9612 -20.717287,15.6045 -46.163253,26.5324 -20.455349,8.7848 -29.258111,14.4508 -33.343813,21.4621 -8.10074,13.9017 -4.85718,25.7818 8.889858,32.5604 5.465861,2.6952 7.768683,3.2594 11.503155,2.8184 10.933695,-1.2912 56.403583,-22.1603 75.331313,-34.5745 21.80889,-14.3037 31.00254,-26.8822 43.18284,-59.0818 14.23826,-37.6397 29.50156,-71.2334 35.02657,-77.0914 4.9429,-5.2408 15.76977,-4.9911 21.73503,0.5012 l 2.76405,2.5449 0.5662,30.3801 c 0.77928,41.8133 2.53846,50.4322 15.44881,75.6897 12.56302,24.578 31.16352,51.3637 51.33239,71.4676 47.96817,47.8136 105.72322,69.0239 181.06945,76.4355 23.70861,2.3321 69.64077,-4.2035 104.61872,-14.886 71.1307,-21.7238 130.29169,-70.4483 162.82991,-134.1055 12.91035,-25.2575 14.66954,-33.8764 15.44882,-75.6896 l 0.5662,-30.3802 2.76405,-2.5449 c 5.96526,-5.4923 16.79213,-5.742 21.73503,-0.5012 5.52501,5.8579 20.78831,39.4516 35.02656,77.0914 12.18036,32.1995 21.37402,44.7782 43.18285,59.0819 18.92778,12.4142 64.39767,33.2832 75.33136,34.5744 3.73441,0.4411 6.03724,-0.1232 11.50316,-2.8184 13.74699,-6.7786 16.99059,-18.6587 8.88985,-32.5604 -4.0857,-7.0112 -12.88849,-12.6773 -33.3439,-21.4621 -25.44588,-10.9279 -38.74412,-18.5712 -46.16318,-26.5324 -6.61016,-7.0932 -13.1274,-18.7429 -19.06729,-34.0834 -5.37814,-13.8897 -24.44129,-56.2636 -32.48081,-72.1987 -3.62311,-7.1815 -8.73056,-15.824 -11.34989,-19.2059 -10.00153,-12.9129 -21.70573,-20.5192 -31.59152,-20.5305 -3.04506,0 -8.49444,-0.4966 -12.10972,-1.096 -5.22305,-0.8659 -8.16666,-0.7208 -14.33073,0.7061 -14.20473,3.2885 -19.31659,0.2882 -31.69336,-18.6018 -13.81918,-21.0914 -26.52998,-31.2884 -67.91192,-54.48159 -28.24552,-15.8307 -45.07393,-22.9833 -79.53613,-33.8053 -20.98273,-6.5892 -30.43086,-8.6943 -48.09412,-10.7159 -20.39068,-2.3338 -34.84325,-2.8401 -47.10816,-1.6506 z m 31.20846,51.6701 c 13.59405,0.9063 27.3644,3.89579 46.91781,10.18529 9.1508,2.9434 27.48365,8.8248 40.73967,13.0696 36.9375,11.8283 55.88214,21.6765 73.05649,37.9778 16.67539,15.8276 22.9538,26.5825 32.53161,55.7263 8.07913,24.5836 8.88185,28.351 9.63208,45.207 1.0773,24.2038 -7.76013,42.3552 -18.55085,64.4225 -10.39896,21.2661 -19.14473,36.1038 -52.30002,61.7595 -22.67415,17.5452 -52.94897,31.0619 -92.57301,41.3307 -17.52479,4.5417 -23.38372,5.4929 -47.64516,7.7356 -25.94515,2.3983 -44.48774,0.7067 -72.86409,-6.6472 -39.62404,-10.2688 -65.45555,-26.128 -88.12971,-43.6733 -33.15528,-25.6556 -44.2621,-39.7124 -54.66107,-60.9785 -10.79071,-22.0673 -17.2671,-37.8763 -16.1898,-62.0801 0.75024,-16.856 -3.779,-21.4043 4.30013,-45.9878 9.57781,-29.1438 20.29952,-39.8987 36.97491,-55.7263 17.17434,-16.3013 32.56435,-26.1495 69.50185,-37.9778 13.25601,-4.2448 31.58887,-10.1262 40.73967,-13.0696 21.11548,-6.792 33.68767,-9.34799 52.43408,-10.65979 8.22014,-0.5753 15.23274,-1.3311 15.58354,-1.6796 0.35081,-0.3487 2.89201,-0.399 5.64713,-0.1123 2.7551,0.2869 9.43974,0.8169 14.85474,1.178 z"
   id="path4599"
   inkscape:connector-curvature="0"
   sodipodi:nodetypes="cssscccsssssssssssscssssssscssssssssssscccsssssccssssssssssssssssssccc" /></svg>