<?xml version="1.0" encoding="UTF-8" standalone="no"?>
<svg
   xmlns:dc="http://purl.org/dc/elements/1.1/"
   xmlns:cc="http://creativecommons.org/ns#"
   xmlns:rdf="http://www.w3.org/1999/02/22-rdf-syntax-ns#"
   xmlns:svg="http://www.w3.org/2000/svg"
   xmlns="http://www.w3.org/2000/svg"
   xmlns:sodipodi="http://sodipodi.sourceforge.net/DTD/sodipodi-0.dtd"
   xmlns:inkscape="http://www.inkscape.org/namespaces/inkscape"
   version="1.1"
   id="Layer_1"
   x="0px"
   y="0px"
   width="1000"
   height="1024"
   viewBox="0 0 1000 1024"
   enable-background="new 0 0 512 512"
   xml:space="preserve"
   inkscape:version="0.48.0 r9654"
   sodipodi:docname="UR-x12328.svg"><title
   id="title3743">Mesopotamian Font</title><metadata
   id="metadata72"><rdf:RDF><cc:Work
       rdf:about=""><dc:format>image/svg+xml</dc:format><dc:type
         rdf:resource="http://purl.org/dc/dcmitype/StillImage" /><dc:title>Sumerian</dc:title><dc:date>2017</dc:date><dc:creator><cc:Agent><dc:title>FlorinCB</dc:title></cc:Agent></dc:creator><dc:publisher><cc:Agent><dc:title>beitdina.net</dc:title></cc:Agent></dc:publisher></cc:Work></rdf:RDF></metadata><defs
   id="defs70" /><sodipodi:namedview
   pagecolor="#ffffff"
   bordercolor="#666666"
   borderopacity="1"
   objecttolerance="10"
   gridtolerance="10"
   guidetolerance="10"
   inkscape:pageopacity="0"
   inkscape:pageshadow="2"
   inkscape:window-width="1152"
   inkscape:window-height="814"
   id="namedview68"
   showgrid="false"
   inkscape:zoom="0.28132272"
   inkscape:cx="93.00454"
   inkscape:cy="888.99995"
   inkscape:window-x="-8"
   inkscape:window-y="-8"
   inkscape:window-maximized="1"
   inkscape:current-layer="g3802" />
   
	<g
   id="Grid"
   transform="matrix(1.948664,0,0,-2.0011811,-2.6425584,1027.0605)">
		<rect
   x="0"
   stroke-miterlimit="10"
   width="512"
   height="512"
   id="rect4"
   y="0"
   style="fill:none;stroke:#a9ccdb;stroke-miterlimit:10" />
		<line
   stroke-miterlimit="10"
   x1="0"
   y1="32"
   x2="512"
   y2="32"
   id="line6"
   style="fill:none;stroke:#a9ccdb;stroke-miterlimit:10" />
		<line
   stroke-miterlimit="10"
   x1="0"
   y1="64"
   x2="512"
   y2="64"
   id="line8"
   style="fill:none;stroke:#a9ccdb;stroke-miterlimit:10" />
		<line
   stroke-miterlimit="10"
   x1="0"
   y1="96"
   x2="512"
   y2="96"
   id="line10"
   style="fill:none;stroke:#a9ccdb;stroke-miterlimit:10" />
		<line
   stroke-miterlimit="10"
   x1="0"
   y1="128"
   x2="512"
   y2="128"
   id="line12"
   style="fill:none;stroke:#a9ccdb;stroke-miterlimit:10" />
		<line
   stroke-miterlimit="10"
   x1="0"
   y1="160"
   x2="512"
   y2="160"
   id="line14"
   style="fill:none;stroke:#a9ccdb;stroke-miterlimit:10" />
		<line
   stroke-miterlimit="10"
   x1="0"
   y1="192"
   x2="512"
   y2="192"
   id="line16"
   style="fill:none;stroke:#a9ccdb;stroke-miterlimit:10" />
		<line
   stroke-miterlimit="10"
   x1="0"
   y1="224"
   x2="512"
   y2="224"
   id="line18"
   style="fill:none;stroke:#a9ccdb;stroke-miterlimit:10" />
		<line
   stroke-miterlimit="10"
   x1="0"
   y1="256"
   x2="512"
   y2="256"
   id="line20"
   style="fill:none;stroke:#a9ccdb;stroke-miterlimit:10" />
		<line
   stroke-miterlimit="10"
   x1="0"
   y1="288"
   x2="512"
   y2="288"
   id="line22"
   style="fill:none;stroke:#a9ccdb;stroke-miterlimit:10" />
		<line
   stroke-miterlimit="10"
   x1="0"
   y1="320"
   x2="512"
   y2="320"
   id="line24"
   style="fill:none;stroke:#a9ccdb;stroke-miterlimit:10" />
		<line
   stroke-miterlimit="10"
   x1="0"
   y1="352"
   x2="512"
   y2="352"
   id="line26"
   style="fill:none;stroke:#a9ccdb;stroke-miterlimit:10" />
		<line
   stroke-miterlimit="10"
   x1="0"
   y1="384"
   x2="512"
   y2="384"
   id="line28"
   style="fill:none;stroke:#a9ccdb;stroke-miterlimit:10" />
		<line
   stroke-miterlimit="10"
   x1="0"
   y1="416"
   x2="512"
   y2="416"
   id="line30"
   style="fill:none;stroke:#a9ccdb;stroke-miterlimit:10" />
		<line
   stroke-miterlimit="10"
   x1="0"
   y1="448"
   x2="512"
   y2="448"
   id="line32"
   style="fill:none;stroke:#ff0000;stroke-miterlimit:10" />
		<line
   stroke-miterlimit="10"
   x1="0"
   y1="480"
   x2="512"
   y2="480"
   id="line34"
   style="fill:none;stroke:#a9ccdb;stroke-miterlimit:10" />
		<line
   stroke-miterlimit="10"
   x1="32"
   y1="0"
   x2="32"
   y2="512"
   id="line36"
   style="fill:none;stroke:#a9ccdb;stroke-miterlimit:10" />
		<line
   stroke-miterlimit="10"
   x1="64"
   y1="0"
   x2="64"
   y2="512"
   id="line38"
   style="fill:none;stroke:#a9ccdb;stroke-miterlimit:10" />
		<line
   stroke-miterlimit="10"
   x1="96"
   y1="0"
   x2="96"
   y2="512"
   id="line40"
   style="fill:none;stroke:#a9ccdb;stroke-miterlimit:10" />
		<line
   stroke-miterlimit="10"
   x1="128"
   y1="0"
   x2="128"
   y2="512"
   id="line42"
   style="fill:none;stroke:#a9ccdb;stroke-miterlimit:10" />
		<line
   stroke-miterlimit="10"
   x1="160"
   y1="0"
   x2="160"
   y2="512"
   id="line44"
   style="fill:none;stroke:#a9ccdb;stroke-miterlimit:10" />
		<line
   stroke-miterlimit="10"
   x1="192"
   y1="0"
   x2="192"
   y2="512"
   id="line46"
   style="fill:none;stroke:#a9ccdb;stroke-miterlimit:10" />
		<line
   stroke-miterlimit="10"
   x1="224"
   y1="0"
   x2="224"
   y2="512"
   id="line48"
   style="fill:none;stroke:#a9ccdb;stroke-miterlimit:10" />
		<line
   stroke-miterlimit="10"
   x1="256"
   y1="0"
   x2="256"
   y2="512"
   id="line50"
   style="fill:none;stroke:#a9ccdb;stroke-miterlimit:10" />
		<line
   stroke-miterlimit="10"
   x1="288"
   y1="0"
   x2="288"
   y2="512"
   id="line52"
   style="fill:none;stroke:#a9ccdb;stroke-miterlimit:10" />
		<line
   stroke-miterlimit="10"
   x1="320"
   y1="0"
   x2="320"
   y2="512"
   id="line54"
   style="fill:none;stroke:#a9ccdb;stroke-miterlimit:10" />
		<line
   stroke-miterlimit="10"
   x1="352"
   y1="0"
   x2="352"
   y2="512"
   id="line56"
   style="fill:none;stroke:#a9ccdb;stroke-miterlimit:10" />
		<line
   stroke-miterlimit="10"
   x1="384"
   y1="0"
   x2="384"
   y2="512"
   id="line58"
   style="fill:none;stroke:#a9ccdb;stroke-miterlimit:10" />
		<line
   stroke-miterlimit="10"
   x1="416"
   y1="0"
   x2="416"
   y2="512"
   id="line60"
   style="fill:none;stroke:#a9ccdb;stroke-miterlimit:10" />
		<line
   stroke-miterlimit="10"
   x1="448"
   y1="0"
   x2="448"
   y2="512"
   id="line62"
   style="fill:none;stroke:#a9ccdb;stroke-miterlimit:10" />
		<line
   stroke-miterlimit="10"
   x1="480"
   y1="0"
   x2="480"
   y2="512"
   id="line64"
   style="fill:none;stroke:#a9ccdb;stroke-miterlimit:10" />
	</g> 

 <g
   id="g3754"
   transform="translate(450.70635,0.32661075)"><g
     transform="translate(403.4856,-0.96713583)"
     id="g3802"><path
       inkscape:connector-curvature="0"
       id="path3804"
       d="m -664.79972,854.32736 c -19.404,-7.82893 -57.47119,-36.13174 -91.26307,-67.85376 -12.16456,-11.41953 -16.47869,-16.82873 -22.74682,-28.52076 -17.19563,-32.07556 -20.91927,-56.33229 -12.25276,-79.81601 2.35565,-6.38301 4.28293,-13.45153 4.28293,-15.70782 0,-5.97538 7.53026,-30.53615 14.24957,-46.4764 20.27369,-48.09604 34.33259,-74.33911 77.80379,-145.23335 64.61846,-105.38189 101.3564,-160.95496 131.02224,-198.19498 4.99829,-6.27457 13.7749,-18.00883 19.50357,-26.07613 12.58886,-17.7278 44.82467,-49.73348 65.2745,-64.80826 33.22943,-24.49544 94.22556,-47.88724 129.46956,-49.65098 15.84481,-0.79294 17.46569,-0.553 34.8514,5.15924 33.99184,11.16839 59.53454,25.10259 108.34188,59.10359 12.13593,8.45424 31.66099,21.08779 43.3893,28.07457 54.30024,32.34782 86.167484,65.00286 151.677411,155.42705 11.55571032,15.95039 22.071522,31.01605 23.368657,33.47927 4.121095,7.82603 6.242211,24.78216 6.147784,49.14352 -0.104558,26.9692 -1.87683,41.71486 -6.953345,57.85556 -8.5555067,27.20122 -18.3118967,41.8128 -46.309813,69.35534 -20.27021,19.94039 -40.31538,34.33852 -58.40158,41.94897 -9.696474,4.08014 -12.127944,4.40817 -31.259174,4.21703 -29.54598,-0.29518 -44.93086,-3.46822 -60.01204,-12.37703 -25.86916,-15.2817 -39.01607,-17.72355 -91.01048,-16.90408 -33.93211,0.53481 -40.42243,1.05952 -49.94385,4.03768 -34.37507,10.75208 -76.42318,36.60695 -107.41039,66.0455 -17.15729,16.29974 -47.13028,51.41425 -60.42911,70.79507 -14.71834,21.44963 -63.18916,67.68771 -89.3874,85.2699 -6.76495,4.5402 -20.4388,12.20304 -30.38618,17.02854 -16.79754,8.14854 -18.92577,8.77089 -29.8726,8.73495 -8.66045,-0.0284 -14.42729,-1.10422 -21.74398,-4.05622 z m 57.72018,-15.97719 c 17.1344,-8.18554 28.37419,-17.09314 27.45871,-21.76111 -0.33204,-1.69368 -5.08881,-5.03807 -11.47874,-8.07055 -6.00155,-2.84812 -18.69122,-10.93632 -28.19937,-17.97382 -19.86125,-14.70027 -127.91423,-102.39184 -142.44373,-115.60176 -5.34295,-4.85766 -10.54327,-8.8321 -11.55657,-8.8321 -3.36712,0 -11.5559,13.08508 -13.36072,21.3496 -4.09567,18.75403 -0.79575,41.72702 8.43718,58.73843 5.52349,10.17694 20.34106,26.96824 38.16576,43.24935 28.27736,25.82871 66.05357,48.16944 93.51277,55.3031 13.16475,3.42008 21.85814,2.01003 39.46471,-6.40114 z m 43.9983,-34.93223 c 2.69325,-2.29912 3.71169,-6.32778 5.254,-20.77942 2.27028,-21.27555 2.58631,-38.24737 0.89731,-48.18635 -1.4712,-8.65701 -7.39427,-20.67632 -12.36144,-25.08447 -2.62912,-2.33314 -3.46337,-4.70277 -3.10279,-8.8127 0.46886,-5.34478 -0.15432,-6.06759 -12.66644,-14.68544 -9.10085,-6.26834 -12.74733,-8.07426 -11.82273,-5.85513 8.70435,20.89232 11.89359,40.72871 9.39025,58.40392 -0.93016,6.56759 -4.34865,19.90717 -7.5963,29.64354 -3.24781,9.73637 -5.57102,18.55722 -5.16298,19.6019 1.2827,3.28256 25.99364,18.60622 30.00435,18.60622 2.10443,0 5.32951,-1.28343 7.16677,-2.85207 z m 34.9191,-28.86331 c 13.72894,-12.94443 21.85316,-23.5082 21.85316,-28.41516 0,-5.44081 -9.78443,-14.79223 -26.92007,-25.72875 -8.87294,-5.66304 -16.43405,-10.29643 -16.80243,-10.29643 -0.36847,0 0.78563,2.88914 2.56465,6.42032 10.54127,20.92259 10.69476,47.23277 0.42388,72.62295 -1.31223,3.24363 -1.29896,3.24393 2.69682,0.0648 2.20863,-1.75704 9.49139,-8.35757 16.18399,-14.66783 z m -79.38177,5.98363 c 0,-0.70698 1.11112,-14.20319 2.46915,-29.99159 3.43981,-39.99104 0.95605,-57.1096 -10.69983,-73.74652 -2.77539,-3.96121 -5.0757,-9.27024 -5.11187,-11.79785 -0.0564,-3.95335 -2.43398,-6.22641 -17.01078,-16.26443 -9.3198,-6.41784 -17.14128,-11.48096 -17.38139,-11.25139 -0.23994,0.22959 1.34891,4.38164 3.53091,9.22678 3.9947,8.87045 6.61485,19.61948 8.56637,35.14452 1.37811,10.96398 -1.45752,28.81645 -7.47284,47.0485 l -4.82306,14.61805 4.46662,4.38998 c 6.16683,6.06125 40.69174,33.71893 42.22202,33.82394 0.68457,0.047 1.2447,-0.49303 1.2447,-1.19999 z m 120.68814,-53.43417 c 3.44877,-4.96155 10.19115,-14.24219 14.98326,-20.62366 4.79203,-6.38149 8.69107,-12.02479 8.66435,-12.54066 -0.0265,-0.51586 -4.69412,-4.20943 -10.37243,-8.20794 -49.34638,-34.74887 -117.18453,-93.50601 -177.1126,-153.40402 -27.6331,-27.61933 -40.0698,-38.97937 -42.66971,-38.97603 -2.01822,0.003 -5.28877,1.65484 -7.26766,3.67167 -8.40732,8.56776 -32.44123,48.75319 -35.46636,59.30059 -0.68541,2.38926 0.38166,5.09225 3.40131,8.61637 6.27692,7.3255 74.81242,61.14538 99.87549,78.43057 11.61995,8.01393 28.50643,20.25913 37.52564,27.21154 36.50497,28.13992 49.0063,36.75866 63.42413,43.72586 11.41701,5.5171 17.14543,9.50589 23.49279,16.35842 9.99775,10.79355 11.74383,10.50449 21.52179,-3.56271 z m -173.93539,-18.61955 c 1.97781,-25.74219 0.99928,-41.2438 -3.39467,-53.78202 -2.30745,-6.58445 -8.74699,-17.13133 -11.46804,-18.78282 -1.05851,-0.64236 -1.62428,-4.12787 -1.3119,-8.08155 0.54826,-6.94355 0.53183,-6.96564 -13.43656,-18.04766 -7.75858,-6.15529 -13.37764,-9.69306 -12.61997,-7.94559 0.75111,1.73251 3.16816,9.01714 5.37107,16.18807 6.70089,21.81262 5.39496,46.7599 -3.8013,72.60845 -2.2039,6.19458 -4.00707,12.31844 -4.00707,13.60857 0,1.29013 8.55617,8.65671 19.01373,16.37018 10.45755,7.71349 19.52273,14.83316 20.14475,15.82155 2.28645,3.63303 3.59205,-2.99112 5.50996,-27.95718 z m -49.93148,-42.79623 c 0.96418,-12.75396 0.98509,-25.94622 0.0548,-34.11795 -1.59159,-13.9694 -7.64176,-29.92096 -13.2337,-34.89065 -2.02892,-1.80306 -3.13199,-4.97734 -3.13199,-9.01227 0,-7.08117 -3.51987,-10.24468 -13.36039,-12.00794 l -5.89203,-1.0558 -6.80959,15.19561 c -3.74538,8.35758 -9.44575,21.06273 -12.66768,28.23366 -7.09243,15.78564 -11.25713,33.61648 -8.09378,34.652 6.06428,1.98509 23.257,15.16563 40.15277,30.78272 l 19.05305,17.61094 1.17849,-7.29792 c 0.64824,-4.01385 1.88613,-16.65542 2.75075,-28.0924 z m 263.20024,9.85714 c 5.54747,-4.67099 16.80767,-14.48193 25.02258,-21.80208 27.53661,-24.53722 51.84291,-39.10238 85.04298,-50.96047 21.34913,-7.62534 30.17511,-8.8672 61.57782,-8.66439 41.69964,0.2693 64.41378,4.53677 97.55462,18.32824 12.04612,5.01291 18.6805,6.66588 32.36198,8.06311 39.98877,4.08387 37.48412,4.19466 51.231324,-2.26637 7.188,-3.37828 20.86119,-12.45051 32.36197,-21.47242 32.939346,-25.8396 46.884861,-40.6294 57.0626163,-60.5179 9.07247,-17.72843 10.544528,-24.24928 12.352485,-54.71947 1.459771,-24.60162 1.319371,-31.13778 -0.937506,-43.64146 -3.145084,-17.42531 -9.710085,-32.02095 -19.2855773,-42.87688 -3.827511,-4.33926 -8.522652,-10.93978 -10.433495,-14.66783 -1.911013,-3.72803 -7.270493,-12.46433 -11.90987,-19.414 -9.295191,-13.92389 -8.152395,-13.56283 -23.177148,-7.32255 -4.526358,1.87997 -10.686755,6.35824 -14.315765,10.40685 -3.50356,3.90875 -7.02272,7.12201 -7.82049,7.14061 -0.7976,0.0186 -5.88539,4.45046 -11.30611,9.84859 l -9.855794,9.81481 1.79218,8.48617 c 0.985804,4.6674 1.594214,8.69934 1.352244,8.95985 -0.24214,0.26051 -3.154054,-1.09881 -6.471074,-3.0207 l -6.03094,-3.49438 -3.90535,8.72486 c -2.148,4.79867 -5.19119,12.20847 -6.76249,16.46621 -2.383,6.45713 -3.59135,7.78253 -7.2836,7.98958 -2.43461,0.13657 -5.32561,0.32859 -6.42443,0.42682 -1.09881,0.0983 -3.55517,1.81998 -5.45838,3.82614 -4.07712,4.29769 -7.0979,4.60498 -10.68078,1.08655 -3.16766,-3.11072 -3.24998,-1.61508 0.7113,-12.92165 1.82554,-5.21068 3.31917,-11.5593 3.31917,-14.10809 0,-2.54877 1.49363,-6.10091 3.31918,-7.89365 1.82555,-1.79273 3.31918,-5.38598 3.31918,-7.98501 0,-2.69953 2.49037,-8.35958 5.80856,-13.20184 3.1947,-4.66199 5.80855,-10.09891 5.80855,-12.08205 0,-1.98313 2.2602,-5.73219 5.02275,-8.33124 2.76239,-2.59903 5.58567,-6.8594 6.27391,-9.46749 1.05284,-3.99037 2.90394,-5.32967 11.67885,-8.44985 9.463974,-3.36524 21.617634,-9.90644 36.442074,-19.61356 l 5.48095,-3.58894 -13.77889,-14.33639 c -29.678754,-30.87956 -76.340904,-67.82394 -113.204344,-89.62868 -11.78371,-6.97002 -25.4632,-15.90291 -30.39901,-19.85088 -29.03221,-23.22208 -75.77595,-45.46663 -88.79725,-42.2572 -8.03213,1.97968 -12.67847,7.35535 -16.14001,18.67341 -1.83635,6.0045 -5.81786,14.95092 -8.84763,19.88095 -7.3342,11.93388 -9.82094,18.38017 -18.68757,48.44457 l -7.50951,25.4619 2.55096,12.11383 c 3.3414,15.86638 3.21811,23.48412 -0.63629,39.33193 -2.85595,11.74214 -10.29975,68.27257 -12.71273,96.54518 -1.57666,18.47121 -1.9891,18.5045 -24.84113,2.00591 -59.29642,-42.81073 -89.32948,-71.63333 -116.95612,-112.24225 -15.39586,-22.63073 -25.48811,-33.43269 -31.23644,-33.43269 -6.39872,0 -22.40424,17.14295 -35.758,38.29931 -6.22366,9.86004 -20.85787,31.49507 -32.52046,48.07786 -33.88465,48.17992 -63.18568,94.85968 -72.62222,115.69477 l -4.05162,8.94565 50.35695,48.59135 c 63.27776,61.05912 115.6701,105.74877 159.11367,135.72089 6.87521,4.74332 13.89902,10.14182 15.60843,11.9967 1.70941,1.85486 4.24103,3.37248 5.6262,3.37248 1.38508,0 7.057,-3.82172 12.60454,-8.49272 z m 112.81017,-337.94856 c 2.41224,-26.62698 7.15117,-38.22098 24.26615,-59.36846 6.16624,-7.61912 12.78732,-16.82415 14.71344,-20.45561 1.92596,-3.63147 5.93103,-8.84904 8.89991,-11.59457 8.79527,-8.13373 28.50834,-22.15169 39.31047,-27.95374 12.74435,-6.84534 13.34803,-4.08582 1.81693,8.3044 -4.53731,4.87531 -9.01821,10.84928 -9.95759,13.27548 -2.49313,6.43962 -1.95316,23.50187 1.44557,45.67792 5.30984,34.64648 2.12973,38.32993 -36.51276,42.29093 -19.80276,2.02985 -21.42729,2.4698 -27.85638,7.54354 -3.75517,2.96339 -6.82742,5.94868 -6.82742,6.634 0,0.68532 -2.3554,2.89313 -5.23434,4.90625 l -5.2345,3.66023 1.17052,-12.92037 z m 46.02157,-32.52292 c 4.09302,-1.36957 10.20044,-4.72322 13.5723,-7.45257 l 6.13048,-4.96245 0,-13.53474 c 0,-14.92938 -1.83502,-18.32158 -8.96096,-16.56523 -11.19507,2.75929 -32.43485,38.03505 -26.4435,43.91858 1.81204,1.77957 7.78397,1.24573 15.70168,-1.40359 z m -105.72827,87.64496 c 2.23518,-3.36137 5.33531,-9.28022 6.88898,-13.15297 2.42817,-6.05239 2.52657,-7.92904 0.70101,-13.36128 -2.69185,-8.00968 -1.47336,-16.91133 5.21343,-38.08745 4.97846,-15.76556 5.19086,-17.58018 4.90628,-41.92782 -0.25795,-22.06221 0.26765,-27.91836 3.94865,-44.00347 5.90049,-25.78286 7.85234,-31.13692 22.67738,-62.20421 7.17879,-15.04371 13.05224,-28.39867 13.05224,-29.67765 0,-4.51908 -12.26669,-6.51206 -26.26885,-4.26794 -28.94965,4.63977 -81.64043,26.87172 -105.66846,44.58498 -21.57264,15.90323 -57.19988,54.55465 -57.23987,62.09868 -0.0183,3.27479 17.93653,39.22139 28.25595,56.57323 3.68929,6.20323 9.79563,13.45501 14.37908,17.07629 4.38142,3.46185 20.66231,18.4993 36.17948,33.41655 28.16386,27.07511 42.47515,39.04465 46.68358,39.04465 1.22496,0 4.05602,-2.75022 6.29112,-6.11159 z"
       style="fill:#222222" /></g></g></svg>